black-italic.ufo
<glyph name="exclam" format="2">
  <advance height="1920" width="740"/>
  <unicode hex="0021"/>
  <outline>
    <contour>
      <point x="495.0" y="0.0" type="curve" smooth="yes"/>
      <point x="5.0" y="0.0" type="line" smooth="yes"/>
      <point x="-2.0" y="0.0"/>
      <point x="-5.0" y="3.0"/>
      <point x="-3.0" y="10.0" type="curve" smooth="yes"/>
      <point x="99.0" y="450.0" type="line" smooth="yes"/>
      <point x="101.0" y="457.0"/>
      <point x="104.0" y="460.0"/>
      <point x="111.0" y="460.0" type="curve" smooth="yes"/>
      <point x="601.0" y="460.0" type="line" smooth="yes"/>
      <point x="608.0" y="460.0"/>
      <point x="611.0" y="457.0"/>
      <point x="609.0" y="450.0" type="curve" smooth="yes"/>
      <point x="507.0" y="10.0" type="line" smooth="yes"/>
      <point x="505.0" y="3.0"/>
      <point x="502.0" y="0.0"/>
    </contour>
    <contour>
      <point x="187.0" y="1050.0" type="curve" smooth="yes"/>
      <point x="277.0" y="1440.0" type="line" smooth="yes"/>
      <point x="279.0" y="1447.0"/>
      <point x="283.0" y="1450.0"/>
      <point x="290.0" y="1450.0" type="curve" smooth="yes"/>
      <point x="880.0" y="1450.0" type="line" smooth="yes"/>
      <point x="887.0" y="1450.0"/>
      <point x="889.0" y="1447.0"/>
      <point x="887.0" y="1440.0" type="curve" smooth="yes"/>
      <point x="797.0" y="1050.0" type="line" smooth="yes"/>
      <point x="795.0" y="1043.0"/>
      <point x="795.0" y="1037.0"/>
      <point x="792.0" y="1030.0" type="curve" smooth="yes"/>
      <point x="481.0" y="540.0" type="line" smooth="yes"/>
      <point x="478.0" y="533.0"/>
      <point x="474.0" y="530.0"/>
      <point x="467.0" y="530.0" type="curve" smooth="yes"/>
      <point x="277.0" y="530.0" type="line" smooth="yes"/>
      <point x="270.0" y="530.0"/>
      <point x="268.0" y="533.0"/>
      <point x="269.0" y="540.0" type="curve" smooth="yes"/>
      <point x="184.0" y="1030.0" type="line" smooth="yes"/>
      <point x="185.0" y="1037.0"/>
      <point x="185.0" y="1043.0"/>
    </contour>
  </outline>
</glyph>
<glyph name="numbersign" format="2">
  <advance height="1920" width="1610"/>
  <unicode hex="0023"/>
  <outline>
    <contour>
      <point x="49.0" y="690.0" type="curve" smooth="yes"/>
      <point x="1559.0" y="690.0" type="line" smooth="yes"/>
      <point x="1566.0" y="690.0"/>
      <point x="1569.0" y="687.0"/>
      <point x="1567.0" y="680.0" type="curve" smooth="yes"/>
      <point x="1500.0" y="390.0" type="line" smooth="yes"/>
      <point x="1498.0" y="383.0"/>
      <point x="1496.0" y="380.0"/>
      <point x="1488.0" y="380.0" type="curve" smooth="yes"/>
      <point x="-22.0" y="380.0" type="line" smooth="yes"/>
      <point x="-29.0" y="380.0"/>
      <point x="-32.0" y="383.0"/>
      <point x="-30.0" y="390.0" type="curve" smooth="yes"/>
      <point x="37.0" y="680.0" type="line" smooth="yes"/>
      <point x="39.0" y="687.0"/>
      <point x="42.0" y="690.0"/>
    </contour>
    <contour>
      <point x="224.0" y="1100.0" type="curve" smooth="yes"/>
      <point x="1734.0" y="1100.0" type="line" smooth="yes"/>
      <point x="1741.0" y="1100.0"/>
      <point x="1744.0" y="1097.0"/>
      <point x="1742.0" y="1090.0" type="curve" smooth="yes"/>
      <point x="1675.0" y="800.0" type="line" smooth="yes"/>
      <point x="1673.0" y="793.0"/>
      <point x="1669.0" y="790.0"/>
      <point x="1662.0" y="790.0" type="curve" smooth="yes"/>
      <point x="152.0" y="790.0" type="line" smooth="yes"/>
      <point x="145.0" y="790.0"/>
      <point x="143.0" y="793.0"/>
      <point x="145.0" y="800.0" type="curve" smooth="yes"/>
      <point x="212.0" y="1090.0" type="line" smooth="yes"/>
      <point x="214.0" y="1097.0"/>
      <point x="217.0" y="1100.0"/>
    </contour>
    <contour>
      <point x="1233.0" y="1400.0" type="curve" smooth="yes"/>
      <point x="1663.0" y="1400.0" type="line" smooth="yes"/>
      <point x="1673.0" y="1400.0"/>
      <point x="1673.0" y="1397.0"/>
      <point x="1669.0" y="1390.0" type="curve" smooth="yes"/>
      <point x="1024.0" y="10.0" type="line" smooth="yes"/>
      <point x="1020.0" y="3.0"/>
      <point x="1020.0" y="0.0"/>
      <point x="1010.0" y="0.0" type="curve" smooth="yes"/>
      <point x="580.0" y="0.0" type="line" smooth="yes"/>
      <point x="570.0" y="0.0"/>
      <point x="570.0" y="3.0"/>
      <point x="574.0" y="10.0" type="curve" smooth="yes"/>
      <point x="1219.0" y="1390.0" type="line" smooth="yes"/>
      <point x="1223.0" y="1397.0"/>
      <point x="1223.0" y="1400.0"/>
    </contour>
    <contour>
      <point x="663.0" y="1400.0" type="curve" smooth="yes"/>
      <point x="1093.0" y="1400.0" type="line" smooth="yes"/>
      <point x="1100.0" y="1400.0"/>
      <point x="1103.0" y="1397.0"/>
      <point x="1099.0" y="1390.0" type="curve" smooth="yes"/>
      <point x="454.0" y="10.0" type="line" smooth="yes"/>
      <point x="450.0" y="3.0"/>
      <point x="447.0" y="0.0"/>
      <point x="440.0" y="0.0" type="curve" smooth="yes"/>
      <point x="10.0" y="0.0" type="line" smooth="yes"/>
      <point x="3.0" y="0.0"/>
      <point x="0.0" y="3.0"/>
      <point x="4.0" y="10.0" type="curve" smooth="yes"/>
      <point x="649.0" y="1390.0" type="line" smooth="yes"/>
      <point x="653.0" y="1397.0"/>
      <point x="656.0" y="1400.0"/>
    </contour>
  </outline>
</glyph>
<glyph name="dollar" format="2">
  <advance height="1920" width="1219"/>
  <unicode hex="0024"/>
  <outline>
    <contour>
      <point x="22.0" y="488.0" type="curve" smooth="yes"/>
      <point x="372.0" y="488.0" type="line" smooth="yes"/>
      <point x="375.0" y="488.0"/>
      <point x="382.0" y="487.0"/>
      <point x="380.0" y="480.0" type="curve" smooth="yes"/>
      <point x="371.0" y="440.0" type="line" smooth="yes"/>
      <point x="345.0" y="326.0"/>
      <point x="415.0" y="285.0"/>
      <point x="555.0" y="285.0" type="curve" smooth="yes"/>
      <point x="663.0" y="285.0"/>
      <point x="702.0" y="317.0"/>
      <point x="714.0" y="368.0" type="curve" smooth="yes"/>
      <point x="724.0" y="412.0"/>
      <point x="668.0" y="435.0"/>
      <point x="574.0" y="464.0" type="curve" smooth="yes"/>
      <point x="298.0" y="549.0"/>
      <point x="91.0" y="615.0"/>
      <point x="174.0" y="973.0" type="curve" smooth="yes"/>
      <point x="236.0" y="1243.0"/>
      <point x="458.0" y="1435.0"/>
      <point x="820.0" y="1435.0" type="curve" smooth="yes"/>
      <point x="1184.0" y="1435.0"/>
      <point x="1285.0" y="1236.0"/>
      <point x="1235.0" y="1021.0" type="curve" smooth="yes"/>
      <point x="1223.0" y="971.0" type="line" smooth="yes"/>
      <point x="1221.0" y="964.0"/>
      <point x="1216.0" y="963.0"/>
      <point x="1211.0" y="963.0" type="curve" smooth="yes"/>
      <point x="881.0" y="963.0" type="line" smooth="yes"/>
      <point x="876.0" y="963.0"/>
      <point x="871.0" y="964.0"/>
      <point x="873.0" y="971.0" type="curve" smooth="yes"/>
      <point x="880.0" y="1001.0" type="line" smooth="yes"/>
      <point x="893.0" y="1056.0"/>
      <point x="856.0" y="1135.0"/>
      <point x="741.0" y="1135.0" type="curve" smooth="yes"/>
      <point x="669.0" y="1135.0"/>
      <point x="629.0" y="1083.0"/>
      <point x="620.0" y="1043.0" type="curve" smooth="yes"/>
      <point x="608.0" y="992.0"/>
      <point x="647.0" y="960.0"/>
      <point x="772.0" y="932.0" type="curve" smooth="yes"/>
      <point x="1114.0" y="855.0"/>
      <point x="1244.0" y="757.0"/>
      <point x="1168.0" y="428.0" type="curve" smooth="yes"/>
      <point x="1095.0" y="111.0"/>
      <point x="890.0" y="-35.0"/>
      <point x="451.0" y="-35.0" type="curve" smooth="yes"/>
      <point x="63.0" y="-35.0"/>
      <point x="-72.0" y="123.0"/>
      <point x="-8.0" y="399.0" type="curve" smooth="yes"/>
      <point x="11.0" y="479.0" type="line" smooth="yes"/>
      <point x="13.0" y="486.0"/>
      <point x="19.0" y="488.0"/>
    </contour>
    <contour>
      <point x="837.0" y="1590.0" type="curve" smooth="yes"/>
      <point x="897.0" y="1590.0" type="line" smooth="yes"/>
      <point x="904.0" y="1590.0"/>
      <point x="907.0" y="1587.0"/>
      <point x="905.0" y="1580.0" type="curve" smooth="yes"/>
      <point x="498.0" y="-180.0" type="line" smooth="yes"/>
      <point x="496.0" y="-187.0"/>
      <point x="493.0" y="-190.0"/>
      <point x="486.0" y="-190.0" type="curve" smooth="yes"/>
      <point x="426.0" y="-190.0" type="line" smooth="yes"/>
      <point x="419.0" y="-190.0"/>
      <point x="416.0" y="-187.0"/>
      <point x="418.0" y="-180.0" type="curve" smooth="yes"/>
      <point x="825.0" y="1580.0" type="line" smooth="yes"/>
      <point x="827.0" y="1587.0"/>
      <point x="830.0" y="1590.0"/>
    </contour>
  </outline>
</glyph>
<glyph name="percent" format="2">
  <advance height="2048" width="1855"/>
  <unicode hex="0025"/>
  <outline>
    <contour>
      <point x="180.0" y="1083.0" type="curve" smooth="yes"/>
      <point x="188.0" y="1118.0" type="line" smooth="yes"/>
      <point x="232.0" y="1308.0"/>
      <point x="419.0" y="1435.0"/>
      <point x="696.0" y="1435.0" type="curve" smooth="yes"/>
      <point x="973.0" y="1435.0"/>
      <point x="1112.0" y="1308.0"/>
      <point x="1068.0" y="1118.0" type="curve" smooth="yes"/>
      <point x="1060.0" y="1083.0" type="line" smooth="yes"/>
      <point x="1016.0" y="893.0"/>
      <point x="819.0" y="765.0"/>
      <point x="542.0" y="765.0" type="curve" smooth="yes"/>
      <point x="265.0" y="765.0"/>
      <point x="136.0" y="893.0"/>
    </contour>
    <contour>
      <point x="557.0" y="1093.0" type="line" smooth="yes"/>
      <point x="539.0" y="1013.0"/>
      <point x="555.0" y="985.0"/>
      <point x="592.0" y="985.0" type="curve" smooth="yes"/>
      <point x="629.0" y="985.0"/>
      <point x="669.0" y="1013.0"/>
      <point x="687.0" y="1093.0" type="curve" smooth="yes"/>
      <point x="691.0" y="1108.0" type="line" smooth="yes"/>
      <point x="709.0" y="1188.0"/>
      <point x="683.0" y="1215.0"/>
      <point x="646.0" y="1215.0" type="curve" smooth="yes"/>
      <point x="609.0" y="1215.0"/>
      <point x="579.0" y="1188.0"/>
      <point x="561.0" y="1108.0" type="curve" smooth="yes"/>
    </contour>
    <contour>
      <point x="870.0" y="283.0" type="curve" smooth="yes"/>
      <point x="878.0" y="318.0" type="line" smooth="yes"/>
      <point x="922.0" y="508.0"/>
      <point x="1110.0" y="635.0"/>
      <point x="1387.0" y="635.0" type="curve" smooth="yes"/>
      <point x="1664.0" y="635.0"/>
      <point x="1802.0" y="508.0"/>
      <point x="1758.0" y="318.0" type="curve" smooth="yes"/>
      <point x="1750.0" y="283.0" type="line" smooth="yes"/>
      <point x="1706.0" y="93.0"/>
      <point x="1509.0" y="-35.0"/>
      <point x="1232.0" y="-35.0" type="curve" smooth="yes"/>
      <point x="955.0" y="-35.0"/>
      <point x="826.0" y="93.0"/>
    </contour>
    <contour>
      <point x="1248.0" y="293.0" type="line" smooth="yes"/>
      <point x="1230.0" y="213.0"/>
      <point x="1246.0" y="185.0"/>
      <point x="1283.0" y="185.0" type="curve" smooth="yes"/>
      <point x="1320.0" y="185.0"/>
      <point x="1360.0" y="213.0"/>
      <point x="1378.0" y="293.0" type="curve" smooth="yes"/>
      <point x="1381.0" y="308.0" type="line" smooth="yes"/>
      <point x="1399.0" y="388.0"/>
      <point x="1373.0" y="415.0"/>
      <point x="1336.0" y="415.0" type="curve" smooth="yes"/>
      <point x="1299.0" y="415.0"/>
      <point x="1269.0" y="388.0"/>
      <point x="1251.0" y="308.0" type="curve" smooth="yes"/>
    </contour>
    <contour>
      <point x="1980.0" y="1390.0" type="curve" smooth="yes"/>
      <point x="318.0" y="10.0" type="line" smooth="yes"/>
      <point x="312.0" y="3.0"/>
      <point x="307.0" y="0.0"/>
      <point x="300.0" y="0.0" type="curve" smooth="yes"/>
      <point x="-40.0" y="0.0" type="line" smooth="yes"/>
      <point x="-47.0" y="0.0"/>
      <point x="-48.0" y="3.0"/>
      <point x="-42.0" y="10.0" type="curve" smooth="yes"/>
      <point x="1620.0" y="1390.0" type="line" smooth="yes"/>
      <point x="1626.0" y="1397.0"/>
      <point x="1631.0" y="1400.0"/>
      <point x="1638.0" y="1400.0" type="curve" smooth="yes"/>
      <point x="1978.0" y="1400.0" type="line" smooth="yes"/>
      <point x="1985.0" y="1400.0"/>
      <point x="1986.0" y="1397.0"/>
    </contour>
  </outline>
</glyph>
<glyph name="ampersand" format="2">
  <advance height="1920" width="1701"/>
  <unicode hex="0026"/>
  <outline>
    <contour>
      <point x="944.0" y="10.0" type="curve" smooth="yes"/>
      <point x="556.0" y="734.0" type="line" smooth="yes"/>
      <point x="475.0" y="919.0"/>
      <point x="450.0" y="1000.0"/>
      <point x="476.0" y="1113.0" type="curve" smooth="yes"/>
      <point x="515.0" y="1283.0"/>
      <point x="678.0" y="1435.0"/>
      <point x="1085.0" y="1435.0" type="curve" smooth="yes"/>
      <point x="1422.0" y="1435.0"/>
      <point x="1592.0" y="1313.0"/>
      <point x="1548.0" y="1123.0" type="curve" smooth="yes"/>
      <point x="1491.0" y="875.0"/>
      <point x="1056.0" y="697.0"/>
      <point x="804.0" y="596.0" type="curve" smooth="yes"/>
      <point x="645.0" y="533.0"/>
      <point x="608.0" y="492.0"/>
      <point x="598.0" y="448.0" type="curve" smooth="yes"/>
      <point x="593.0" y="427.0"/>
      <point x="600.0" y="410.0"/>
      <point x="604.0" y="398.0" type="curve" smooth="yes"/>
      <point x="608.0" y="388.0" type="line" smooth="yes"/>
      <point x="615.0" y="370.0"/>
      <point x="643.0" y="355.0"/>
      <point x="678.0" y="355.0" type="curve" smooth="yes"/>
      <point x="920.0" y="355.0"/>
      <point x="1216.0" y="446.0"/>
      <point x="1339.0" y="640.0" type="curve" smooth="yes"/>
      <point x="1342.0" y="645.0"/>
      <point x="1347.0" y="648.0"/>
      <point x="1354.0" y="648.0" type="curve" smooth="yes"/>
      <point x="1724.0" y="648.0" type="line" smooth="yes"/>
      <point x="1731.0" y="648.0"/>
      <point x="1733.0" y="645.0"/>
      <point x="1727.0" y="637.0" type="curve" smooth="yes"/>
      <point x="1437.0" y="227.0"/>
      <point x="740.0" y="-35.0"/>
      <point x="432.0" y="-35.0" type="curve" smooth="yes"/>
      <point x="216.0" y="-35.0"/>
      <point x="101.0" y="25.0"/>
      <point x="55.0" y="119.0" type="curve" smooth="yes"/>
      <point x="16.0" y="199.0" type="line" smooth="yes"/>
      <point x="-23.0" y="277.0"/>
      <point x="-29.0" y="352.0"/>
      <point x="-7.0" y="448.0" type="curve" smooth="yes"/>
      <point x="37.0" y="637.0"/>
      <point x="253.0" y="747.0"/>
      <point x="755.0" y="862.0" type="curve" smooth="yes"/>
      <point x="932.0" y="903.0"/>
      <point x="1092.0" y="1032.0"/>
      <point x="1111.0" y="1113.0" type="curve" smooth="yes"/>
      <point x="1116.0" y="1133.0"/>
      <point x="1096.0" y="1150.0"/>
      <point x="1059.0" y="1150.0" type="curve" smooth="yes"/>
      <point x="1022.0" y="1150.0"/>
      <point x="1001.0" y="1132.0"/>
      <point x="994.0" y="1103.0" type="curve" smooth="yes"/>
      <point x="983.0" y="1054.0"/>
      <point x="1034.0" y="973.0"/>
      <point x="1078.0" y="876.0" type="curve" smooth="yes"/>
      <point x="1494.0" y="10.0" type="line" smooth="yes"/>
      <point x="1497.0" y="3.0"/>
      <point x="1496.0" y="0.0"/>
      <point x="1489.0" y="0.0" type="curve" smooth="yes"/>
      <point x="959.0" y="0.0" type="line" smooth="yes"/>
      <point x="952.0" y="0.0"/>
      <point x="947.0" y="3.0"/>
    </contour>
  </outline>
</glyph>
<glyph name="quotesingle" format="2">
  <advance height="1920" width="610"/>
  <unicode hex="0027"/>
  <outline>
    <contour>
      <point x="472.0" y="830.0" type="curve" smooth="yes"/>
      <point x="272.0" y="830.0" type="line" smooth="yes"/>
      <point x="265.0" y="830.0"/>
      <point x="261.0" y="833.0"/>
      <point x="262.0" y="840.0" type="curve" smooth="yes"/>
      <point x="220.0" y="1160.0" type="line" smooth="yes"/>
      <point x="221.0" y="1167.0"/>
      <point x="220.0" y="1173.0"/>
      <point x="222.0" y="1180.0" type="curve" smooth="yes"/>
      <point x="276.0" y="1410.0" type="line" smooth="yes"/>
      <point x="278.0" y="1417.0"/>
      <point x="281.0" y="1420.0"/>
      <point x="288.0" y="1420.0" type="curve" smooth="yes"/>
      <point x="738.0" y="1420.0" type="line" smooth="yes"/>
      <point x="745.0" y="1420.0"/>
      <point x="748.0" y="1417.0"/>
      <point x="746.0" y="1410.0" type="curve" smooth="yes"/>
      <point x="692.0" y="1180.0" type="line" smooth="yes"/>
      <point x="690.0" y="1173.0"/>
      <point x="689.0" y="1167.0"/>
      <point x="686.0" y="1160.0" type="curve" smooth="yes"/>
      <point x="486.0" y="840.0" type="line" smooth="yes"/>
      <point x="483.0" y="833.0"/>
      <point x="479.0" y="830.0"/>
    </contour>
  </outline>
</glyph>
<glyph name="parenleft" format="2">
  <advance height="2048" width="785"/>
  <unicode hex="0028"/>
  <outline>
    <contour>
      <point x="93.0" y="838.0" type="line" smooth="yes"/>
      <point x="187.0" y="1243.0"/>
      <point x="550.0" y="1561.0"/>
      <point x="993.0" y="1618.0" type="curve" smooth="yes"/>
      <point x="1001.0" y="1619.0"/>
      <point x="1004.0" y="1617.0"/>
      <point x="1002.0" y="1610.0" type="curve" smooth="yes"/>
      <point x="951.0" y="1390.0" type="line" smooth="yes"/>
      <point x="949.0" y="1383.0"/>
      <point x="947.0" y="1379.0"/>
      <point x="939.0" y="1376.0" type="curve" smooth="yes"/>
      <point x="828.0" y="1325.0"/>
      <point x="655.0" y="1209.0"/>
      <point x="562.0" y="808.0" type="curve" smooth="yes"/>
      <point x="477.0" y="442.0" type="line" smooth="yes"/>
      <point x="384.0" y="41.0"/>
      <point x="505.0" y="-75.0"/>
      <point x="592.0" y="-126.0" type="curve" smooth="yes"/>
      <point x="598.0" y="-129.0"/>
      <point x="600.0" y="-133.0"/>
      <point x="598.0" y="-140.0" type="curve" smooth="yes"/>
      <point x="547.0" y="-360.0" type="line" smooth="yes"/>
      <point x="545.0" y="-367.0"/>
      <point x="542.0" y="-369.0"/>
      <point x="534.0" y="-368.0" type="curve" smooth="yes"/>
      <point x="117.0" y="-311.0"/>
      <point x="-99.0" y="7.0"/>
      <point x="-5.0" y="412.0" type="curve" smooth="yes"/>
    </contour>
  </outline>
</glyph>
<glyph name="parenright" format="2">
  <advance height="2048" width="785"/>
  <unicode hex="0029"/>
  <outline>
    <contour>
      <point x="740.0" y="412.0" type="line" smooth="yes"/>
      <point x="646.0" y="7.0"/>
      <point x="284.0" y="-311.0"/>
      <point x="-159.0" y="-368.0" type="curve" smooth="yes"/>
      <point x="-167.0" y="-369.0"/>
      <point x="-170.0" y="-367.0"/>
      <point x="-168.0" y="-360.0" type="curve" smooth="yes"/>
      <point x="-117.0" y="-140.0" type="line" smooth="yes"/>
      <point x="-115.0" y="-133.0"/>
      <point x="-113.0" y="-129.0"/>
      <point x="-105.0" y="-126.0" type="curve" smooth="yes"/>
      <point x="6.0" y="-75.0"/>
      <point x="179.0" y="41.0"/>
      <point x="272.0" y="442.0" type="curve" smooth="yes"/>
      <point x="357.0" y="808.0" type="line" smooth="yes"/>
      <point x="450.0" y="1209.0"/>
      <point x="329.0" y="1325.0"/>
      <point x="242.0" y="1376.0" type="curve" smooth="yes"/>
      <point x="236.0" y="1379.0"/>
      <point x="234.0" y="1383.0"/>
      <point x="236.0" y="1390.0" type="curve" smooth="yes"/>
      <point x="287.0" y="1610.0" type="line" smooth="yes"/>
      <point x="289.0" y="1617.0"/>
      <point x="292.0" y="1619.0"/>
      <point x="300.0" y="1618.0" type="curve" smooth="yes"/>
      <point x="717.0" y="1561.0"/>
      <point x="932.0" y="1243.0"/>
      <point x="838.0" y="838.0" type="curve" smooth="yes"/>
    </contour>
  </outline>
</glyph>
<glyph name="asterisk" format="2">
  <advance height="2048" width="1287"/>
  <unicode hex="002A"/>
  <outline>
    <contour>
      <point x="740.0" y="887.0" type="line"/>
      <point x="732.0" y="953.0" type="line"/>
      <point x="1122.0" y="1266.0" type="line" smooth="yes"/>
      <point x="1129.0" y="1269.0"/>
      <point x="1136.0" y="1270.0"/>
      <point x="1143.0" y="1271.0" type="curve" smooth="yes"/>
      <point x="1319.0" y="1318.0" type="line" smooth="yes"/>
      <point x="1326.0" y="1319.0"/>
      <point x="1330.0" y="1317.0"/>
      <point x="1330.0" y="1310.0" type="curve" smooth="yes"/>
      <point x="1369.0" y="901.0" type="line" smooth="yes"/>
      <point x="1369.0" y="894.0"/>
      <point x="1366.0" y="891.0"/>
      <point x="1359.0" y="888.0" type="curve" smooth="yes"/>
      <point x="1187.0" y="828.0" type="line" smooth="yes"/>
      <point x="1180.0" y="825.0"/>
      <point x="1172.0" y="823.0"/>
      <point x="1165.0" y="822.0" type="curve" smooth="yes"/>
    </contour>
    <contour>
      <point x="702.0" y="900.0" type="line"/>
      <point x="767.0" y="942.0" type="line"/>
      <point x="1116.0" y="736.0" type="line" smooth="yes"/>
      <point x="1120.0" y="731.0"/>
      <point x="1121.0" y="725.0"/>
      <point x="1123.0" y="719.0" type="curve" smooth="yes"/>
      <point x="1185.0" y="576.0" type="line" smooth="yes"/>
      <point x="1187.0" y="570.0"/>
      <point x="1186.0" y="566.0"/>
      <point x="1179.0" y="562.0" type="curve" smooth="yes"/>
      <point x="772.0" y="309.0" type="line" smooth="yes"/>
      <point x="765.0" y="305.0"/>
      <point x="762.0" y="306.0"/>
      <point x="758.0" y="311.0" type="curve" smooth="yes"/>
      <point x="682.0" y="443.0" type="line" smooth="yes"/>
      <point x="678.0" y="448.0"/>
      <point x="676.0" y="455.0"/>
      <point x="674.0" y="461.0" type="curve" smooth="yes"/>
    </contour>
    <contour>
      <point x="712.0" y="941.0" type="line"/>
      <point x="760.0" y="900.0" type="line"/>
      <point x="584.0" y="460.0" type="line" smooth="yes"/>
      <point x="580.0" y="454.0"/>
      <point x="575.0" y="449.0"/>
      <point x="569.0" y="444.0" type="curve" smooth="yes"/>
      <point x="431.0" y="310.0" type="line" smooth="yes"/>
      <point x="425.0" y="305.0"/>
      <point x="421.0" y="304.0"/>
      <point x="416.0" y="308.0" type="curve" smooth="yes"/>
      <point x="127.0" y="561.0" type="line" smooth="yes"/>
      <point x="122.0" y="565.0"/>
      <point x="123.0" y="570.0"/>
      <point x="127.0" y="576.0" type="curve" smooth="yes"/>
      <point x="253.0" y="718.0" type="line" smooth="yes"/>
      <point x="257.0" y="724.0"/>
      <point x="263.0" y="729.0"/>
      <point x="269.0" y="734.0" type="curve" smooth="yes"/>
    </contour>
    <contour>
      <point x="753.0" y="953.0" type="line"/>
      <point x="717.0" y="886.0" type="line"/>
      <point x="259.0" y="820.0" type="line" smooth="yes"/>
      <point x="252.0" y="821.0"/>
      <point x="247.0" y="824.0"/>
      <point x="242.0" y="827.0" type="curve" smooth="yes"/>
      <point x="96.0" y="887.0" type="line" smooth="yes"/>
      <point x="91.0" y="890.0"/>
      <point x="89.0" y="893.0"/>
      <point x="93.0" y="900.0" type="curve" smooth="yes"/>
      <point x="320.0" y="1309.0" type="line" smooth="yes"/>
      <point x="324.0" y="1316.0"/>
      <point x="328.0" y="1318.0"/>
      <point x="335.0" y="1317.0" type="curve" smooth="yes"/>
      <point x="489.0" y="1272.0" type="line" smooth="yes"/>
      <point x="496.0" y="1271.0"/>
      <point x="501.0" y="1268.0"/>
      <point x="506.0" y="1265.0" type="curve" smooth="yes"/>
    </contour>
    <contour>
      <point x="770.0" y="920.0" type="line"/>
      <point x="700.0" y="920.0" type="line"/>
      <point x="594.0" y="1320.0" type="line" smooth="yes"/>
      <point x="595.0" y="1327.0"/>
      <point x="595.0" y="1333.0"/>
      <point x="598.0" y="1340.0" type="curve" smooth="yes"/>
      <point x="646.0" y="1510.0" type="line" smooth="yes"/>
      <point x="649.0" y="1517.0"/>
      <point x="652.0" y="1520.0"/>
      <point x="659.0" y="1520.0" type="curve" smooth="yes"/>
      <point x="1089.0" y="1520.0" type="line" smooth="yes"/>
      <point x="1096.0" y="1520.0"/>
      <point x="1099.0" y="1517.0"/>
      <point x="1098.0" y="1510.0" type="curve" smooth="yes"/>
      <point x="1066.0" y="1340.0" type="line" smooth="yes"/>
      <point x="1065.0" y="1333.0"/>
      <point x="1065.0" y="1327.0"/>
      <point x="1062.0" y="1320.0" type="curve" smooth="yes"/>
    </contour>
  </outline>
</glyph>
<glyph name="plus" format="2">
  <advance height="1920" width="1040"/>
  <unicode hex="002B"/>
  <outline>
    <contour>
      <point x="46.0" y="525.0" type="curve" smooth="yes"/>
      <point x="124.0" y="860.0" type="line" smooth="yes"/>
      <point x="126.0" y="867.0"/>
      <point x="129.0" y="870.0"/>
      <point x="136.0" y="870.0" type="curve" smooth="yes"/>
      <point x="1066.0" y="870.0" type="line" smooth="yes"/>
      <point x="1073.0" y="870.0"/>
      <point x="1076.0" y="867.0"/>
      <point x="1074.0" y="860.0" type="curve" smooth="yes"/>
      <point x="996.0" y="525.0" type="line" smooth="yes"/>
      <point x="994.0" y="518.0"/>
      <point x="991.0" y="515.0"/>
      <point x="984.0" y="515.0" type="curve" smooth="yes"/>
      <point x="54.0" y="515.0" type="line" smooth="yes"/>
      <point x="47.0" y="515.0"/>
      <point x="44.0" y="518.0"/>
    </contour>
    <contour>
      <point x="510.0" y="1190.0" type="curve" smooth="yes"/>
      <point x="840.0" y="1190.0" type="line" smooth="yes"/>
      <point x="847.0" y="1190.0"/>
      <point x="849.0" y="1187.0"/>
      <point x="847.0" y="1180.0" type="curve" smooth="yes"/>
      <point x="617.0" y="180.0" type="line" smooth="yes"/>
      <point x="615.0" y="173.0"/>
      <point x="611.0" y="170.0"/>
      <point x="604.0" y="170.0" type="curve" smooth="yes"/>
      <point x="274.0" y="170.0" type="line" smooth="yes"/>
      <point x="267.0" y="170.0"/>
      <point x="265.0" y="173.0"/>
      <point x="267.0" y="180.0" type="curve" smooth="yes"/>
      <point x="497.0" y="1180.0" type="line" smooth="yes"/>
      <point x="499.0" y="1187.0"/>
      <point x="503.0" y="1190.0"/>
    </contour>
  </outline>
</glyph>
<glyph name="comma" format="2">
  <advance height="1920" width="740"/>
  <unicode hex="002C"/>
  <outline>
    <contour>
      <point x="1.0" y="-310.0" type="curve" smooth="yes"/>
      <point x="-97.0" y="-310.0" type="line" smooth="yes"/>
      <point x="-104.0" y="-310.0"/>
      <point x="-106.0" y="-307.0"/>
      <point x="-99.0" y="-300.0" type="curve" smooth="yes"/>
      <point x="165.0" y="0.0" type="line"/>
      <point x="5.0" y="0.0" type="line" smooth="yes"/>
      <point x="-4.0" y="0.0"/>
      <point x="-5.0" y="1.0"/>
      <point x="-3.0" y="10.0" type="curve" smooth="yes"/>
      <point x="99.0" y="450.0" type="line" smooth="yes"/>
      <point x="101.0" y="457.0"/>
      <point x="104.0" y="460.0"/>
      <point x="111.0" y="460.0" type="curve" smooth="yes"/>
      <point x="601.0" y="460.0" type="line" smooth="yes"/>
      <point x="608.0" y="460.0"/>
      <point x="611.0" y="457.0"/>
      <point x="609.0" y="450.0" type="curve" smooth="yes"/>
      <point x="510.0" y="20.0" type="line" smooth="yes"/>
      <point x="508.0" y="13.0"/>
      <point x="505.0" y="9.0"/>
      <point x="496.0" y="0.0" type="curve" smooth="yes"/>
      <point x="25.0" y="-300.0" type="line" smooth="yes"/>
      <point x="16.0" y="-306.0"/>
      <point x="9.0" y="-310.0"/>
    </contour>
  </outline>
</glyph>
<glyph name="hyphen" format="2">
  <advance height="1920" width="570"/>
  <unicode hex="002D"/>
  <outline>
    <contour>
      <point x="23.0" y="445.0" type="curve" smooth="yes"/>
      <point x="100.0" y="780.0" type="line" smooth="yes"/>
      <point x="102.0" y="787.0"/>
      <point x="105.0" y="790.0"/>
      <point x="112.0" y="790.0" type="curve" smooth="yes"/>
      <point x="582.0" y="790.0" type="line" smooth="yes"/>
      <point x="589.0" y="790.0"/>
      <point x="592.0" y="787.0"/>
      <point x="590.0" y="780.0" type="curve" smooth="yes"/>
      <point x="513.0" y="445.0" type="line" smooth="yes"/>
      <point x="511.0" y="438.0"/>
      <point x="507.0" y="435.0"/>
      <point x="500.0" y="435.0" type="curve" smooth="yes"/>
      <point x="30.0" y="435.0" type="line" smooth="yes"/>
      <point x="23.0" y="435.0"/>
      <point x="21.0" y="438.0"/>
    </contour>
  </outline>
</glyph>
<glyph name="period" format="2">
  <advance height="1920" width="740"/>
  <unicode hex="002E"/>
  <outline>
    <contour>
      <point x="495.0" y="0.0" type="curve" smooth="yes"/>
      <point x="5.0" y="0.0" type="line" smooth="yes"/>
      <point x="-2.0" y="0.0"/>
      <point x="-5.0" y="3.0"/>
      <point x="-3.0" y="10.0" type="curve" smooth="yes"/>
      <point x="99.0" y="450.0" type="line" smooth="yes"/>
      <point x="101.0" y="457.0"/>
      <point x="104.0" y="460.0"/>
      <point x="111.0" y="460.0" type="curve" smooth="yes"/>
      <point x="601.0" y="460.0" type="line" smooth="yes"/>
      <point x="608.0" y="460.0"/>
      <point x="611.0" y="457.0"/>
      <point x="609.0" y="450.0" type="curve" smooth="yes"/>
      <point x="507.0" y="10.0" type="line" smooth="yes"/>
      <point x="505.0" y="3.0"/>
      <point x="502.0" y="0.0"/>
    </contour>
  </outline>
</glyph>
<glyph name="slash" format="2">
  <advance height="2048" width="1040"/>
  <unicode hex="002F"/>
  <outline>
    <contour>
      <point x="1197.0" y="1390.0" type="curve" smooth="yes"/>
      <point x="238.0" y="-90.0" type="line" smooth="yes"/>
      <point x="232.0" y="-99.0"/>
      <point x="229.0" y="-100.0"/>
      <point x="222.0" y="-100.0" type="curve" smooth="yes"/>
      <point x="-118.0" y="-100.0" type="line" smooth="yes"/>
      <point x="-125.0" y="-100.0"/>
      <point x="-128.0" y="-99.0"/>
      <point x="-122.0" y="-90.0" type="curve" smooth="yes"/>
      <point x="837.0" y="1390.0" type="line" smooth="yes"/>
      <point x="843.0" y="1399.0"/>
      <point x="847.0" y="1400.0"/>
      <point x="853.0" y="1400.0" type="curve" smooth="yes"/>
      <point x="1193.0" y="1400.0" type="line" smooth="yes"/>
      <point x="1200.0" y="1400.0"/>
      <point x="1203.0" y="1399.0"/>
    </contour>
  </outline>
</glyph>
<glyph name="zero" format="2">
  <advance height="1920" width="1350"/>
  <unicode hex="0030"/>
  <outline>
    <contour>
      <point x="43.0" y="488.0" type="curve" smooth="yes"/>
      <point x="141.0" y="913.0" type="line" smooth="yes"/>
      <point x="216.0" y="1239.0"/>
      <point x="484.0" y="1435.0"/>
      <point x="886.0" y="1435.0" type="curve" smooth="yes"/>
      <point x="1288.0" y="1435.0"/>
      <point x="1466.0" y="1239.0"/>
      <point x="1391.0" y="913.0" type="curve" smooth="yes"/>
      <point x="1293.0" y="488.0" type="line" smooth="yes"/>
      <point x="1218.0" y="162.0"/>
      <point x="948.0" y="-35.0"/>
      <point x="547.0" y="-35.0" type="curve" smooth="yes"/>
      <point x="146.0" y="-35.0"/>
      <point x="-32.0" y="162.0"/>
    </contour>
    <contour>
      <point x="537.0" y="508.0" type="line" smooth="yes"/>
      <point x="503.0" y="360.0"/>
      <point x="521.0" y="305.0"/>
      <point x="625.0" y="305.0" type="curve" smooth="yes"/>
      <point x="729.0" y="305.0"/>
      <point x="773.0" y="360.0"/>
      <point x="807.0" y="508.0" type="curve" smooth="yes"/>
      <point x="896.0" y="893.0" type="line" smooth="yes"/>
      <point x="930.0" y="1041.0"/>
      <point x="912.0" y="1095.0"/>
      <point x="808.0" y="1095.0" type="curve" smooth="yes"/>
      <point x="704.0" y="1095.0"/>
      <point x="660.0" y="1041.0"/>
      <point x="626.0" y="893.0" type="curve" smooth="yes"/>
    </contour>
  </outline>
</glyph>
<glyph name="one" format="2">
  <advance height="1920" width="640"/>
  <unicode hex="0031"/>
  <outline>
    <contour>
      <point x="272.0" y="1324.0" type="curve" smooth="yes"/>
      <point x="414.0" y="1326.0"/>
      <point x="473.0" y="1367.0"/>
      <point x="501.0" y="1440.0" type="curve" smooth="yes"/>
      <point x="504.0" y="1447.0"/>
      <point x="509.0" y="1450.0"/>
      <point x="516.0" y="1450.0" type="curve" smooth="yes"/>
      <point x="770.0" y="1450.0" type="line" smooth="yes"/>
      <point x="777.0" y="1450.0"/>
      <point x="779.0" y="1447.0"/>
      <point x="777.0" y="1440.0" type="curve" smooth="yes"/>
      <point x="447.0" y="10.0" type="line" smooth="yes"/>
      <point x="445.0" y="3.0"/>
      <point x="442.0" y="0.0"/>
      <point x="435.0" y="0.0" type="curve" smooth="yes"/>
      <point x="-35.0" y="0.0" type="line" smooth="yes"/>
      <point x="-42.0" y="0.0"/>
      <point x="-45.0" y="3.0"/>
      <point x="-43.0" y="10.0" type="curve" smooth="yes"/>
      <point x="258.0" y="1314.0" type="line" smooth="yes"/>
      <point x="260.0" y="1321.0"/>
      <point x="264.0" y="1324.0"/>
    </contour>
  </outline>
</glyph>
<glyph name="two" format="2">
  <advance height="1920" width="1280"/>
  <unicode hex="0032"/>
  <outline>
    <contour>
      <point x="-76.0" y="60.0" type="line" smooth="yes"/>
      <point x="50.0" y="604.0"/>
      <point x="775.0" y="696.0"/>
      <point x="844.0" y="993.0" type="curve" smooth="yes"/>
      <point x="845.0" y="998.0" type="line" smooth="yes"/>
      <point x="859.0" y="1058.0"/>
      <point x="828.0" y="1085.0"/>
      <point x="771.0" y="1085.0" type="curve" smooth="yes"/>
      <point x="701.0" y="1085.0"/>
      <point x="658.0" y="1055.0"/>
      <point x="646.0" y="1002.0" type="curve" smooth="yes"/>
      <point x="626.0" y="912.0" type="line" smooth="yes"/>
      <point x="624.0" y="905.0"/>
      <point x="620.0" y="902.0"/>
      <point x="613.0" y="902.0" type="curve" smooth="yes"/>
      <point x="153.0" y="902.0" type="line" smooth="yes"/>
      <point x="146.0" y="902.0"/>
      <point x="144.0" y="905.0"/>
      <point x="146.0" y="912.0" type="curve" smooth="yes"/>
      <point x="166.0" y="1002.0" type="line" smooth="yes"/>
      <point x="229.0" y="1276.0"/>
      <point x="473.0" y="1435.0"/>
      <point x="870.0" y="1435.0" type="curve" smooth="yes"/>
      <point x="1197.0" y="1435.0"/>
      <point x="1396.0" y="1303.0"/>
      <point x="1336.0" y="1043.0" type="curve" smooth="yes"/>
      <point x="1325.0" y="998.0" type="line" smooth="yes"/>
      <point x="1229.0" y="582.0"/>
      <point x="623.0" y="531.0"/>
      <point x="588.0" y="380.0" type="curve" smooth="yes"/>
      <point x="585.0" y="370.0" type="line"/>
      <point x="1205.0" y="370.0" type="line" smooth="yes"/>
      <point x="1212.0" y="370.0"/>
      <point x="1215.0" y="367.0"/>
      <point x="1213.0" y="360.0" type="curve" smooth="yes"/>
      <point x="1132.0" y="10.0" type="line" smooth="yes"/>
      <point x="1130.0" y="3.0"/>
      <point x="1127.0" y="0.0"/>
      <point x="1120.0" y="0.0" type="curve" smooth="yes"/>
      <point x="-80.0" y="0.0" type="line" smooth="yes"/>
      <point x="-87.0" y="0.0"/>
      <point x="-90.0" y="3.0"/>
      <point x="-88.0" y="10.0" type="curve" smooth="yes"/>
    </contour>
  </outline>
</glyph>
<glyph name="three" format="2">
  <advance height="1920" width="1300"/>
  <unicode hex="0033"/>
  <outline>
    <contour>
      <point x="37.0" y="507.0" type="curve" smooth="yes"/>
      <point x="507.0" y="507.0" type="line" smooth="yes"/>
      <point x="514.0" y="507.0"/>
      <point x="517.0" y="504.0"/>
      <point x="515.0" y="497.0" type="curve" smooth="yes"/>
      <point x="512.0" y="487.0" type="line" smooth="yes"/>
      <point x="484.0" y="367.0"/>
      <point x="514.0" y="315.0"/>
      <point x="593.0" y="315.0" type="curve" smooth="yes"/>
      <point x="680.0" y="315.0"/>
      <point x="736.0" y="352.0"/>
      <point x="752.0" y="422.0" type="curve" smooth="yes"/>
      <point x="758.0" y="447.0" type="line" smooth="yes"/>
      <point x="774.0" y="517.0"/>
      <point x="736.0" y="560.0"/>
      <point x="639.0" y="560.0" type="curve" smooth="yes"/>
      <point x="559.0" y="560.0" type="line" smooth="yes"/>
      <point x="552.0" y="560.0"/>
      <point x="550.0" y="563.0"/>
      <point x="552.0" y="570.0" type="curve" smooth="yes"/>
      <point x="628.0" y="900.0" type="line" smooth="yes"/>
      <point x="630.0" y="907.0"/>
      <point x="633.0" y="910.0"/>
      <point x="640.0" y="910.0" type="curve" smooth="yes"/>
      <point x="700.0" y="910.0" type="line" smooth="yes"/>
      <point x="767.0" y="910.0"/>
      <point x="815.0" y="933.0"/>
      <point x="829.0" y="993.0" type="curve" smooth="yes"/>
      <point x="833.0" y="1008.0" type="line" smooth="yes"/>
      <point x="842.0" y="1048.0"/>
      <point x="826.0" y="1085.0"/>
      <point x="769.0" y="1085.0" type="curve" smooth="yes"/>
      <point x="699.0" y="1085.0"/>
      <point x="669.0" y="1055.0"/>
      <point x="654.0" y="992.0" type="curve" smooth="yes"/>
      <point x="647.0" y="962.0" type="line" smooth="yes"/>
      <point x="645.0" y="955.0"/>
      <point x="642.0" y="952.0"/>
      <point x="635.0" y="952.0" type="curve" smooth="yes"/>
      <point x="175.0" y="952.0" type="line" smooth="yes"/>
      <point x="168.0" y="952.0"/>
      <point x="165.0" y="955.0"/>
      <point x="167.0" y="962.0" type="curve" smooth="yes"/>
      <point x="188.0" y="1052.0" type="line" smooth="yes"/>
      <point x="242.0" y="1286.0"/>
      <point x="508.0" y="1435.0"/>
      <point x="855.0" y="1435.0" type="curve" smooth="yes"/>
      <point x="1202.0" y="1435.0"/>
      <point x="1398.0" y="1313.0"/>
      <point x="1345.0" y="1083.0" type="curve" smooth="yes"/>
      <point x="1339.0" y="1058.0" type="line" smooth="yes"/>
      <point x="1281.0" y="808.0"/>
      <point x="1013.0" y="720.0"/>
      <point x="756.0" y="720.0" type="curve"/>
      <point x="788.0" y="770.0" type="line"/>
      <point x="1045.0" y="770.0"/>
      <point x="1300.0" y="672.0"/>
      <point x="1242.0" y="422.0" type="curve" smooth="yes"/>
      <point x="1225.0" y="347.0" type="line" smooth="yes"/>
      <point x="1170.0" y="107.0"/>
      <point x="899.0" y="-35.0"/>
      <point x="502.0" y="-35.0" type="curve" smooth="yes"/>
      <point x="150.0" y="-35.0"/>
      <point x="-60.0" y="129.0"/>
      <point x="9.0" y="427.0" type="curve" smooth="yes"/>
      <point x="25.0" y="497.0" type="line" smooth="yes"/>
      <point x="27.0" y="504.0"/>
      <point x="30.0" y="507.0"/>
    </contour>
  </outline>
</glyph>
<glyph name="four" format="2">
  <advance height="1920" width="1310"/>
  <unicode hex="0034"/>
  <outline>
    <contour>
      <point x="1321.59472656" y="570.0" type="curve" smooth="yes"/>
      <point x="1245.40820312" y="240.0" type="line" smooth="yes"/>
      <point x="1243.79199219" y="233.0"/>
      <point x="1240.09960938" y="230.0"/>
      <point x="1233.09960938" y="230.0" type="curve" smooth="yes"/>
      <point x="1053.09960938" y="230.0" type="line"/>
      <point x="1002.30859375" y="10.0" type="line" smooth="yes"/>
      <point x="1000.69238281" y="3.0"/>
      <point x="997.0" y="0.0"/>
      <point x="990.0" y="0.0" type="curve" smooth="yes"/>
      <point x="520.0" y="0.0" type="line" smooth="yes"/>
      <point x="513.0" y="0.0"/>
      <point x="510.692382812" y="3.0"/>
      <point x="512.30859375" y="10.0" type="curve" smooth="yes"/>
      <point x="563.099609375" y="230.0" type="line"/>
      <point x="-36.900390625" y="230.0" type="line" smooth="yes"/>
      <point x="-43.900390625" y="230.0"/>
      <point x="-46.2080078125" y="233.0"/>
      <point x="-44.591796875" y="240.0" type="curve" smooth="yes"/>
      <point x="59.298828125" y="690.0" type="line" smooth="yes"/>
      <point x="60.9150390625" y="697.0"/>
      <point x="64.30078125" y="703.0"/>
      <point x="70.916015625" y="710.0" type="curve" smooth="yes"/>
      <point x="803.907226562" y="1390.0" type="line" smooth="yes"/>
      <point x="809.061523438" y="1395.0"/>
      <point x="816.215820312" y="1400.0"/>
      <point x="823.215820312" y="1400.0" type="curve" smooth="yes"/>
      <point x="1313.21582031" y="1400.0" type="line" smooth="yes"/>
      <point x="1320.21582031" y="1400.0"/>
      <point x="1322.52246094" y="1397.0"/>
      <point x="1320.90722656" y="1390.0" type="curve" smooth="yes"/>
      <point x="1133.90332031" y="580.0" type="line"/>
      <point x="1313.90332031" y="580.0" type="line" smooth="yes"/>
      <point x="1320.90332031" y="580.0"/>
      <point x="1323.2109375" y="577.0"/>
    </contour>
    <contour>
      <point x="653.903320312" y="580.0" type="line"/>
      <point x="746.481445312" y="981.0" type="line"/>
      <point x="318.903320312" y="580.0" type="line"/>
    </contour>
  </outline>
</glyph>
<glyph name="five" format="2">
  <advance height="1920" width="1300"/>
  <unicode hex="0035"/>
  <outline>
    <contour>
      <point x="47.0" y="418.0" type="curve" smooth="yes"/>
      <point x="497.0" y="418.0" type="line" smooth="yes"/>
      <point x="504.0" y="418.0"/>
      <point x="505.0" y="415.0"/>
      <point x="505.0" y="409.0" type="curve" smooth="yes"/>
      <point x="500.0" y="332.0"/>
      <point x="548.0" y="305.0"/>
      <point x="595.0" y="305.0" type="curve" smooth="yes"/>
      <point x="664.0" y="305.0"/>
      <point x="722.0" y="355.0"/>
      <point x="743.0" y="448.0" type="curve" smooth="yes"/>
      <point x="749.0" y="473.0" type="line" smooth="yes"/>
      <point x="772.0" y="573.0"/>
      <point x="749.0" y="605.0"/>
      <point x="685.0" y="605.0" type="curve" smooth="yes"/>
      <point x="634.0" y="605.0"/>
      <point x="586.0" y="565.0"/>
      <point x="555.0" y="514.0" type="curve" smooth="yes"/>
      <point x="549.0" y="505.0"/>
      <point x="543.0" y="503.0"/>
      <point x="536.0" y="503.0" type="curve" smooth="yes"/>
      <point x="86.0" y="503.0" type="line" smooth="yes"/>
      <point x="79.0" y="503.0"/>
      <point x="76.0" y="505.0"/>
      <point x="79.0" y="513.0" type="curve" smooth="yes"/>
      <point x="391.0" y="1390.0" type="line" smooth="yes"/>
      <point x="394.0" y="1397.0"/>
      <point x="397.0" y="1400.0"/>
      <point x="404.0" y="1400.0" type="curve" smooth="yes"/>
      <point x="1384.0" y="1400.0" type="line" smooth="yes"/>
      <point x="1391.0" y="1400.0"/>
      <point x="1394.0" y="1397.0"/>
      <point x="1392.0" y="1390.0" type="curve" smooth="yes"/>
      <point x="1358.0" y="1245.0" type="line" smooth="yes"/>
      <point x="1330.0" y="1125.0"/>
      <point x="1263.0" y="1050.0"/>
      <point x="1043.0" y="1050.0" type="curve" smooth="yes"/>
      <point x="678.0" y="1050.0" type="line"/>
      <point x="544.0" y="745.0" type="line"/>
      <point x="521.0" y="745.0" type="line"/>
      <point x="604.0" y="868.0"/>
      <point x="800.0" y="955.0"/>
      <point x="960.0" y="955.0" type="curve" smooth="yes"/>
      <point x="1200.0" y="955.0"/>
      <point x="1323.0" y="840.0"/>
      <point x="1248.0" y="513.0" type="curve" smooth="yes"/>
      <point x="1233.0" y="448.0" type="line" smooth="yes"/>
      <point x="1158.0" y="121.0"/>
      <point x="917.0" y="-35.0"/>
      <point x="507.0" y="-35.0" type="curve" smooth="yes"/>
      <point x="173.0" y="-35.0"/>
      <point x="-20.0" y="101.0"/>
      <point x="35.0" y="408.0" type="curve" smooth="yes"/>
      <point x="37.0" y="415.0"/>
      <point x="40.0" y="418.0"/>
    </contour>
  </outline>
</glyph>
<glyph name="six" format="2">
  <advance height="1920" width="1429"/>
  <unicode hex="0036"/>
  <outline>
    <contour>
      <point x="758.0" y="640.0" type="curve" smooth="yes"/>
      <point x="648.0" y="640.0"/>
      <point x="575.0" y="585.0"/>
      <point x="556.0" y="502.0" type="curve" smooth="yes"/>
      <point x="542.0" y="442.0" type="line"/>
      <point x="471.0" y="522.0" type="line"/>
      <point x="532.0" y="786.0"/>
      <point x="688.0" y="890.0"/>
      <point x="985.0" y="890.0" type="curve" smooth="yes"/>
      <point x="1312.0" y="890.0"/>
      <point x="1418.0" y="731.0"/>
      <point x="1355.0" y="457.0" type="curve" smooth="yes"/>
      <point x="1343.0" y="407.0" type="line" smooth="yes"/>
      <point x="1279.0" y="129.0"/>
      <point x="993.0" y="-35.0"/>
      <point x="601.0" y="-35.0" type="curve" smooth="yes"/>
      <point x="124.0" y="-35.0"/>
      <point x="-6.0" y="167.0"/>
      <point x="77.0" y="527.0" type="curve" smooth="yes"/>
      <point x="150.0" y="843.0" type="line" smooth="yes"/>
      <point x="238.0" y="1223.0"/>
      <point x="504.0" y="1435.0"/>
      <point x="931.0" y="1435.0" type="curve" smooth="yes"/>
      <point x="1328.0" y="1435.0"/>
      <point x="1474.0" y="1216.0"/>
      <point x="1432.0" y="1032.0" type="curve" smooth="yes"/>
      <point x="1425.0" y="1002.0" type="line" smooth="yes"/>
      <point x="1423.0" y="995.0"/>
      <point x="1420.0" y="992.0"/>
      <point x="1413.0" y="992.0" type="curve" smooth="yes"/>
      <point x="963.0" y="992.0" type="line" smooth="yes"/>
      <point x="956.0" y="992.0"/>
      <point x="953.0" y="995.0"/>
      <point x="955.0" y="1002.0" type="curve" smooth="yes"/>
      <point x="958.0" y="1012.0" type="line" smooth="yes"/>
      <point x="966.0" y="1045.0"/>
      <point x="950.0" y="1085.0"/>
      <point x="870.0" y="1085.0" type="curve" smooth="yes"/>
      <point x="743.0" y="1085.0"/>
      <point x="668.0" y="988.0"/>
      <point x="633.0" y="838.0" type="curve" smooth="yes"/>
      <point x="547.0" y="462.0" type="line" smooth="yes"/>
      <point x="526.0" y="372.0"/>
      <point x="565.0" y="315.0"/>
      <point x="672.0" y="315.0" type="curve" smooth="yes"/>
      <point x="791.0" y="315.0"/>
      <point x="847.0" y="377.0"/>
      <point x="865.0" y="457.0" type="curve" smooth="yes"/>
      <point x="869.0" y="477.0" type="line" smooth="yes"/>
      <point x="888.0" y="560.0"/>
      <point x="868.0" y="640.0"/>
    </contour>
  </outline>
</glyph>
<glyph name="seven" format="2">
  <advance height="1920" width="1195"/>
  <unicode hex="0037"/>
  <outline>
    <contour>
      <point x="1462.0" y="1390.0" type="curve" smooth="yes"/>
      <point x="721.0" y="10.0" type="line" smooth="yes"/>
      <point x="716.0" y="3.0"/>
      <point x="712.0" y="0.0"/>
      <point x="705.0" y="0.0" type="curve" smooth="yes"/>
      <point x="115.0" y="0.0" type="line" smooth="yes"/>
      <point x="108.0" y="0.0"/>
      <point x="106.0" y="3.0"/>
      <point x="111.0" y="10.0" type="curve" smooth="yes"/>
      <point x="854.0" y="950.0" type="line"/>
      <point x="184.0" y="950.0" type="line" smooth="yes"/>
      <point x="177.0" y="950.0"/>
      <point x="175.0" y="953.0"/>
      <point x="177.0" y="960.0" type="curve" smooth="yes"/>
      <point x="276.0" y="1390.0" type="line" smooth="yes"/>
      <point x="278.0" y="1397.0"/>
      <point x="281.0" y="1400.0"/>
      <point x="288.0" y="1400.0" type="curve" smooth="yes"/>
      <point x="1458.0" y="1400.0" type="line" smooth="yes"/>
      <point x="1465.0" y="1400.0"/>
      <point x="1466.0" y="1396.0"/>
    </contour>
  </outline>
</glyph>
<glyph name="eight" format="2">
  <advance height="1920" width="1382"/>
  <unicode hex="0038"/>
  <outline>
    <contour>
      <point x="643.0" y="310.0" type="curve" smooth="yes"/>
      <point x="733.0" y="310.0"/>
      <point x="789.0" y="356.0"/>
      <point x="807.0" y="432.0" type="curve" smooth="yes"/>
      <point x="808.0" y="437.0" type="line" smooth="yes"/>
      <point x="826.0" y="514.0"/>
      <point x="791.0" y="560.0"/>
      <point x="700.0" y="560.0" type="curve" smooth="yes"/>
      <point x="609.0" y="560.0"/>
      <point x="554.0" y="514.0"/>
      <point x="536.0" y="437.0" type="curve" smooth="yes"/>
      <point x="535.0" y="432.0" type="line" smooth="yes"/>
      <point x="517.0" y="356.0"/>
      <point x="553.0" y="310.0"/>
    </contour>
    <contour>
      <point x="781.0" y="910.0" type="curve" smooth="yes"/>
      <point x="831.0" y="910.0"/>
      <point x="876.0" y="947.0"/>
      <point x="889.0" y="1003.0" type="curve" smooth="yes"/>
      <point x="890.0" y="1008.0" type="line" smooth="yes"/>
      <point x="901.0" y="1055.0"/>
      <point x="871.0" y="1090.0"/>
      <point x="823.0" y="1090.0" type="curve" smooth="yes"/>
      <point x="775.0" y="1090.0"/>
      <point x="729.0" y="1055.0"/>
      <point x="718.0" y="1008.0" type="curve" smooth="yes"/>
      <point x="717.0" y="1003.0" type="line" smooth="yes"/>
      <point x="704.0" y="947.0"/>
      <point x="731.0" y="910.0"/>
    </contour>
    <contour>
      <point x="777.0" y="760.0" type="line"/>
      <point x="1207.0" y="760.0"/>
      <point x="1342.0" y="624.0"/>
      <point x="1288.0" y="392.0" type="curve" smooth="yes"/>
      <point x="1277.0" y="347.0" type="line" smooth="yes"/>
      <point x="1220.0" y="100.0"/>
      <point x="1021.0" y="-35.0"/>
      <point x="563.0" y="-35.0" type="curve" smooth="yes"/>
      <point x="155.0" y="-35.0"/>
      <point x="-32.0" y="100.0"/>
      <point x="25.0" y="347.0" type="curve" smooth="yes"/>
      <point x="36.0" y="392.0" type="line" smooth="yes"/>
      <point x="90.0" y="624.0"/>
      <point x="335.0" y="760.0"/>
      <point x="715.0" y="760.0" type="curve"/>
      <point x="708.0" y="720.0" type="line"/>
      <point x="343.0" y="725.0"/>
      <point x="188.0" y="837.0"/>
      <point x="239.0" y="1058.0" type="curve" smooth="yes"/>
      <point x="245.0" y="1083.0" type="line" smooth="yes"/>
      <point x="296.0" y="1304.0"/>
      <point x="534.0" y="1435.0"/>
      <point x="902.0" y="1435.0" type="curve" smooth="yes"/>
      <point x="1320.0" y="1435.0"/>
      <point x="1448.0" y="1304.0"/>
      <point x="1397.0" y="1083.0" type="curve" smooth="yes"/>
      <point x="1391.0" y="1058.0" type="line" smooth="yes"/>
      <point x="1340.0" y="837.0"/>
      <point x="1183.0" y="725.0"/>
      <point x="766.0" y="720.0" type="curve"/>
    </contour>
  </outline>
</glyph>
<glyph name="nine" format="2">
  <advance height="1920" width="1429"/>
  <unicode hex="0039"/>
  <outline>
    <contour>
      <point x="754.0" y="760.0" type="curve" smooth="yes"/>
      <point x="864.0" y="760.0"/>
      <point x="937.0" y="815.0"/>
      <point x="956.0" y="898.0" type="curve" smooth="yes"/>
      <point x="970.0" y="958.0" type="line"/>
      <point x="1042.0" y="878.0" type="line"/>
      <point x="981.0" y="614.0"/>
      <point x="824.0" y="510.0"/>
      <point x="527.0" y="510.0" type="curve" smooth="yes"/>
      <point x="200.0" y="510.0"/>
      <point x="95.0" y="669.0"/>
      <point x="158.0" y="943.0" type="curve" smooth="yes"/>
      <point x="169.0" y="993.0" type="line" smooth="yes"/>
      <point x="233.0" y="1271.0"/>
      <point x="519.0" y="1435.0"/>
      <point x="911.0" y="1435.0" type="curve" smooth="yes"/>
      <point x="1388.0" y="1435.0"/>
      <point x="1519.0" y="1233.0"/>
      <point x="1436.0" y="873.0" type="curve" smooth="yes"/>
      <point x="1363.0" y="557.0" type="line" smooth="yes"/>
      <point x="1275.0" y="177.0"/>
      <point x="988.0" y="-35.0"/>
      <point x="551.0" y="-35.0" type="curve" smooth="yes"/>
      <point x="124.0" y="-35.0"/>
      <point x="-29.0" y="154.0"/>
      <point x="20.0" y="368.0" type="curve" smooth="yes"/>
      <point x="27.0" y="398.0" type="line" smooth="yes"/>
      <point x="29.0" y="405.0"/>
      <point x="32.0" y="408.0"/>
      <point x="39.0" y="408.0" type="curve" smooth="yes"/>
      <point x="489.0" y="408.0" type="line" smooth="yes"/>
      <point x="496.0" y="408.0"/>
      <point x="499.0" y="405.0"/>
      <point x="497.0" y="398.0" type="curve" smooth="yes"/>
      <point x="495.0" y="388.0" type="line" smooth="yes"/>
      <point x="485.0" y="345.0"/>
      <point x="532.0" y="315.0"/>
      <point x="612.0" y="315.0" type="curve" smooth="yes"/>
      <point x="739.0" y="315.0"/>
      <point x="840.0" y="392.0"/>
      <point x="879.0" y="562.0" type="curve" smooth="yes"/>
      <point x="966.0" y="938.0" type="line" smooth="yes"/>
      <point x="987.0" y="1028.0"/>
      <point x="947.0" y="1085.0"/>
      <point x="840.0" y="1085.0" type="curve" smooth="yes"/>
      <point x="721.0" y="1085.0"/>
      <point x="666.0" y="1023.0"/>
      <point x="648.0" y="943.0" type="curve" smooth="yes"/>
      <point x="643.0" y="923.0" type="line" smooth="yes"/>
      <point x="624.0" y="840.0"/>
      <point x="644.0" y="760.0"/>
    </contour>
  </outline>
</glyph>
<glyph name="less" format="2">
  <advance height="1920" width="1010"/>
  <unicode hex="003C"/>
  <outline>
    <contour>
      <point x="750.0" y="86.0" type="curve" smooth="yes"/>
      <point x="63.0" y="444.0" type="line" smooth="yes"/>
      <point x="57.0" y="448.0"/>
      <point x="54.0" y="453.0"/>
      <point x="56.0" y="460.0" type="curve" smooth="yes"/>
      <point x="121.0" y="740.0" type="line" smooth="yes"/>
      <point x="123.0" y="747.0"/>
      <point x="127.0" y="752.0"/>
      <point x="135.0" y="756.0" type="curve" smooth="yes"/>
      <point x="987.0" y="1114.0" type="line" smooth="yes"/>
      <point x="995.0" y="1118.0"/>
      <point x="998.0" y="1117.0"/>
      <point x="996.0" y="1110.0" type="curve" smooth="yes"/>
      <point x="913.0" y="750.0" type="line" smooth="yes"/>
      <point x="911.0" y="743.0"/>
      <point x="908.0" y="738.0"/>
      <point x="899.0" y="734.0" type="curve" smooth="yes"/>
      <point x="428.0" y="600.0" type="line"/>
      <point x="838.0" y="466.0" type="line" smooth="yes"/>
      <point x="845.0" y="462.0"/>
      <point x="846.0" y="457.0"/>
      <point x="844.0" y="450.0" type="curve" smooth="yes"/>
      <point x="761.0" y="90.0" type="line" smooth="yes"/>
      <point x="759.0" y="83.0"/>
      <point x="756.0" y="82.0"/>
    </contour>
  </outline>
</glyph>
<glyph name="equal" format="2">
  <advance height="1920" width="1180"/>
  <unicode hex="003D"/>
  <outline>
    <contour>
      <point x="52.0" y="95.0" type="curve" smooth="yes"/>
      <point x="129.0" y="430.0" type="line" smooth="yes"/>
      <point x="131.0" y="437.0"/>
      <point x="135.0" y="440.0"/>
      <point x="142.0" y="440.0" type="curve" smooth="yes"/>
      <point x="1002.0" y="440.0" type="line" smooth="yes"/>
      <point x="1009.0" y="440.0"/>
      <point x="1011.0" y="437.0"/>
      <point x="1009.0" y="430.0" type="curve" smooth="yes"/>
      <point x="932.0" y="95.0" type="line" smooth="yes"/>
      <point x="930.0" y="88.0"/>
      <point x="927.0" y="85.0"/>
      <point x="920.0" y="85.0" type="curve" smooth="yes"/>
      <point x="60.0" y="85.0" type="line" smooth="yes"/>
      <point x="53.0" y="85.0"/>
      <point x="50.0" y="88.0"/>
    </contour>
    <contour>
      <point x="160.0" y="565.0" type="curve" smooth="yes"/>
      <point x="238.0" y="900.0" type="line" smooth="yes"/>
      <point x="240.0" y="907.0"/>
      <point x="243.0" y="910.0"/>
      <point x="250.0" y="910.0" type="curve" smooth="yes"/>
      <point x="1110.0" y="910.0" type="line" smooth="yes"/>
      <point x="1117.0" y="910.0"/>
      <point x="1120.0" y="907.0"/>
      <point x="1118.0" y="900.0" type="curve" smooth="yes"/>
      <point x="1040.0" y="565.0" type="line" smooth="yes"/>
      <point x="1038.0" y="558.0"/>
      <point x="1035.0" y="555.0"/>
      <point x="1028.0" y="555.0" type="curve" smooth="yes"/>
      <point x="168.0" y="555.0" type="line" smooth="yes"/>
      <point x="161.0" y="555.0"/>
      <point x="158.0" y="558.0"/>
    </contour>
  </outline>
</glyph>
<glyph name="greater" format="2">
  <advance height="1920" width="1010"/>
  <unicode hex="003E"/>
  <outline>
    <contour>
      <point x="297.0" y="1114.0" type="curve" smooth="yes"/>
      <point x="985.0" y="756.0" type="line" smooth="yes"/>
      <point x="991.0" y="752.0"/>
      <point x="993.0" y="747.0"/>
      <point x="991.0" y="740.0" type="curve" smooth="yes"/>
      <point x="926.0" y="460.0" type="line" smooth="yes"/>
      <point x="924.0" y="453.0"/>
      <point x="921.0" y="448.0"/>
      <point x="913.0" y="444.0" type="curve" smooth="yes"/>
      <point x="60.0" y="86.0" type="line" smooth="yes"/>
      <point x="52.0" y="82.0"/>
      <point x="49.0" y="83.0"/>
      <point x="51.0" y="90.0" type="curve" smooth="yes"/>
      <point x="134.0" y="450.0" type="line" smooth="yes"/>
      <point x="136.0" y="457.0"/>
      <point x="139.0" y="462.0"/>
      <point x="148.0" y="466.0" type="curve" smooth="yes"/>
      <point x="620.0" y="600.0" type="line"/>
      <point x="209.0" y="734.0" type="line" smooth="yes"/>
      <point x="202.0" y="738.0"/>
      <point x="201.0" y="743.0"/>
      <point x="203.0" y="750.0" type="curve" smooth="yes"/>
      <point x="286.0" y="1110.0" type="line" smooth="yes"/>
      <point x="288.0" y="1117.0"/>
      <point x="291.0" y="1118.0"/>
    </contour>
  </outline>
</glyph>
<glyph name="question" format="2">
  <advance height="1920" width="1320"/>
  <unicode hex="003F"/>
  <outline>
    <contour>
      <point x="755.0" y="0.0" type="curve" smooth="yes"/>
      <point x="265.0" y="0.0" type="line" smooth="yes"/>
      <point x="258.0" y="0.0"/>
      <point x="255.0" y="3.0"/>
      <point x="257.0" y="10.0" type="curve" smooth="yes"/>
      <point x="359.0" y="450.0" type="line" smooth="yes"/>
      <point x="361.0" y="457.0"/>
      <point x="364.0" y="460.0"/>
      <point x="371.0" y="460.0" type="curve" smooth="yes"/>
      <point x="861.0" y="460.0" type="line" smooth="yes"/>
      <point x="868.0" y="460.0"/>
      <point x="871.0" y="457.0"/>
      <point x="869.0" y="450.0" type="curve" smooth="yes"/>
      <point x="767.0" y="10.0" type="line" smooth="yes"/>
      <point x="765.0" y="3.0"/>
      <point x="762.0" y="0.0"/>
    </contour>
    <contour>
      <point x="772.0" y="530.0" type="curve" smooth="yes"/>
      <point x="482.0" y="530.0" type="line" smooth="yes"/>
      <point x="475.0" y="530.0"/>
      <point x="473.0" y="533.0"/>
      <point x="473.0" y="539.0" type="curve" smooth="yes"/>
      <point x="493.0" y="811.0"/>
      <point x="803.0" y="858.0"/>
      <point x="839.0" y="1013.0" type="curve" smooth="yes"/>
      <point x="842.0" y="1028.0" type="line" smooth="yes"/>
      <point x="858.0" y="1098.0"/>
      <point x="838.0" y="1135.0"/>
      <point x="781.0" y="1135.0" type="curve" smooth="yes"/>
      <point x="721.0" y="1135.0"/>
      <point x="673.0" y="1075.0"/>
      <point x="652.0" y="982.0" type="curve" smooth="yes"/>
      <point x="647.0" y="962.0" type="line" smooth="yes"/>
      <point x="645.0" y="955.0"/>
      <point x="642.0" y="952.0"/>
      <point x="635.0" y="952.0" type="curve" smooth="yes"/>
      <point x="175.0" y="952.0" type="line" smooth="yes"/>
      <point x="168.0" y="952.0"/>
      <point x="165.0" y="955.0"/>
      <point x="167.0" y="962.0" type="curve" smooth="yes"/>
      <point x="188.0" y="1052.0" type="line" smooth="yes"/>
      <point x="240.0" y="1276.0"/>
      <point x="485.0" y="1485.0"/>
      <point x="882.0" y="1485.0" type="curve" smooth="yes"/>
      <point x="1279.0" y="1485.0"/>
      <point x="1471.0" y="1323.0"/>
      <point x="1420.0" y="1103.0" type="curve" smooth="yes"/>
      <point x="1414.0" y="1078.0" type="line" smooth="yes"/>
      <point x="1330.0" y="715.0"/>
      <point x="928.0" y="773.0"/>
      <point x="786.0" y="538.0" type="curve" smooth="yes"/>
      <point x="783.0" y="533.0"/>
      <point x="779.0" y="530.0"/>
    </contour>
  </outline>
</glyph>
<glyph name="at" format="2">
  <advance height="1920" width="1990"/>
  <unicode hex="0040"/>
  <outline>
    <contour>
      <point x="1154.0" y="472.0" type="line"/>
      <point x="1087.0" y="182.0"/>
      <point x="957.0" y="40.0"/>
      <point x="690.0" y="40.0" type="curve" smooth="yes"/>
      <point x="473.0" y="40.0"/>
      <point x="332.0" y="157.0"/>
      <point x="410.0" y="497.0" type="curve" smooth="yes"/>
      <point x="417.0" y="528.0" type="line" smooth="yes"/>
      <point x="491.0" y="848.0"/>
      <point x="701.0" y="985.0"/>
      <point x="938.0" y="985.0" type="curve" smooth="yes"/>
      <point x="1195.0" y="985.0"/>
      <point x="1300.0" y="843.0"/>
      <point x="1233.0" y="553.0" type="curve"/>
      <point x="1078.0" y="533.0" type="line"/>
      <point x="1101.0" y="633.0"/>
      <point x="1083.0" y="695.0"/>
      <point x="1006.0" y="695.0" type="curve" smooth="yes"/>
      <point x="939.0" y="695.0"/>
      <point x="886.0" y="653.0"/>
      <point x="863.0" y="553.0" type="curve" smooth="yes"/>
      <point x="844.0" y="472.0" type="line" smooth="yes"/>
      <point x="821.0" y="372.0"/>
      <point x="855.0" y="330.0"/>
      <point x="922.0" y="330.0" type="curve" smooth="yes"/>
      <point x="999.0" y="330.0"/>
      <point x="1046.0" y="392.0"/>
      <point x="1069.0" y="492.0" type="curve"/>
    </contour>
    <contour>
      <point x="1153.0" y="-255.0" type="curve" smooth="yes"/>
      <point x="1071.0" y="-315.0"/>
      <point x="942.0" y="-360.0"/>
      <point x="782.0" y="-360.0" type="curve" smooth="yes"/>
      <point x="225.0" y="-360.0"/>
      <point x="-17.0" y="13.0"/>
      <point x="94.0" y="493.0" type="curve" smooth="yes"/>
      <point x="115.0" y="583.0" type="line" smooth="yes"/>
      <point x="233.0" y="1093.0"/>
      <point x="699.0" y="1435.0"/>
      <point x="1236.0" y="1435.0" type="curve" smooth="yes"/>
      <point x="1843.0" y="1435.0"/>
      <point x="2006.0" y="1024.0"/>
      <point x="1916.0" y="633.0" type="curve" smooth="yes"/>
      <point x="1895.0" y="543.0" type="line" smooth="yes"/>
      <point x="1812.0" y="183.0"/>
      <point x="1606.0" y="40.0"/>
      <point x="1379.0" y="40.0" type="curve" smooth="yes"/>
      <point x="1172.0" y="40.0"/>
      <point x="998.0" y="185.0"/>
      <point x="1049.0" y="405.0" type="curve" smooth="yes"/>
      <point x="1134.0" y="775.0" type="line"/>
      <point x="1463.0" y="975.0" type="line" smooth="yes"/>
      <point x="1468.0" y="980.0"/>
      <point x="1475.0" y="985.0"/>
      <point x="1482.0" y="985.0" type="curve" smooth="yes"/>
      <point x="1612.0" y="985.0" type="line" smooth="yes"/>
      <point x="1619.0" y="985.0"/>
      <point x="1622.0" y="982.0"/>
      <point x="1620.0" y="975.0" type="curve" smooth="yes"/>
      <point x="1519.0" y="535.0" type="line" smooth="yes"/>
      <point x="1474.0" y="341.0"/>
      <point x="1488.0" y="280.0"/>
      <point x="1555.0" y="280.0" type="curve" smooth="yes"/>
      <point x="1612.0" y="280.0"/>
      <point x="1669.0" y="343.0"/>
      <point x="1715.0" y="543.0" type="curve" smooth="yes"/>
      <point x="1736.0" y="633.0" type="line" smooth="yes"/>
      <point x="1814.0" y="973.0"/>
      <point x="1651.0" y="1295.0"/>
      <point x="1204.0" y="1295.0" type="curve" smooth="yes"/>
      <point x="797.0" y="1295.0"/>
      <point x="404.0" y="1013.0"/>
      <point x="307.0" y="593.0" type="curve" smooth="yes"/>
      <point x="282.0" y="483.0" type="line" smooth="yes"/>
      <point x="194.0" y="103.0"/>
      <point x="377.0" y="-220.0"/>
      <point x="814.0" y="-220.0" type="curve" smooth="yes"/>
      <point x="926.0" y="-220.0"/>
      <point x="1047.0" y="-181.0"/>
      <point x="1132.0" y="-124.0" type="curve" smooth="yes"/>
      <point x="1140.0" y="-118.0"/>
      <point x="1144.0" y="-120.0"/>
      <point x="1145.0" y="-127.0" type="curve" smooth="yes"/>
      <point x="1161.0" y="-237.0" type="line" smooth="yes"/>
      <point x="1162.0" y="-245.0"/>
      <point x="1161.0" y="-249.0"/>
    </contour>
  </outline>
</glyph>
<glyph name="A" format="2">
  <advance height="1872" width="1400"/>
  <unicode hex="0041"/>
  <anchor x="543.0" y="0.0" name="bottom"/>
  <anchor x="1048.0" y="0.0" name="ogonek"/>
  <anchor x="915.0" y="1400.0" name="top"/>
  <outline>
    <contour>
      <point x="338.0" y="520.0" type="line"/>
      <point x="947.0" y="520.0" type="line"/>
      <point x="891.0" y="276.0" type="line"/>
      <point x="282.0" y="276.0" type="line"/>
    </contour>
    <contour>
      <point x="777.0" y="984.0" type="line"/>
      <point x="264.0" y="10.0" type="line" smooth="yes"/>
      <point x="262.0" y="6.0"/>
      <point x="258.0" y="0.0"/>
      <point x="250.0" y="0.0" type="curve" smooth="yes"/>
      <point x="-132.0" y="0.0" type="line" smooth="yes"/>
      <point x="-135.0" y="0.0"/>
      <point x="-142.0" y="1.0"/>
      <point x="-137.0" y="10.0" type="curve" smooth="yes"/>
      <point x="645.0" y="1390.0" type="line" smooth="yes"/>
      <point x="650.0" y="1398.0"/>
      <point x="655.0" y="1400.0"/>
      <point x="659.0" y="1400.0" type="curve" smooth="yes"/>
      <point x="1149.0" y="1400.0" type="line" smooth="yes"/>
      <point x="1155.0" y="1400.0"/>
      <point x="1160.0" y="1397.0"/>
      <point x="1160.0" y="1390.0" type="curve" smooth="yes"/>
      <point x="1312.0" y="10.0" type="line" smooth="yes"/>
      <point x="1312.0" y="7.0"/>
      <point x="1312.0" y="0.0"/>
      <point x="1303.0" y="0.0" type="curve" smooth="yes"/>
      <point x="865.0" y="0.0" type="line" smooth="yes"/>
      <point x="862.0" y="0.0"/>
      <point x="855.0" y="0.0"/>
      <point x="854.0" y="10.0" type="curve" smooth="yes"/>
    </contour>
  </outline>
</glyph>
<glyph name="B" format="2">
  <advance height="1872" width="1341"/>
  <unicode hex="0042"/>
  <anchor x="555.0" y="0.0" name="bottom"/>
  <anchor x="847.0" y="1400.0" name="top"/>
  <outline>
    <contour>
      <point x="619.0" y="836.0" type="line"/>
      <point x="763.0" y="836.0" type="line" smooth="yes"/>
      <point x="837.0" y="836.0"/>
      <point x="875.0" y="884.0"/>
      <point x="887.0" y="935.0" type="curve" smooth="yes"/>
      <point x="893.0" y="962.0" type="line" smooth="yes"/>
      <point x="905.0" y="1013.0"/>
      <point x="889.0" y="1059.0"/>
      <point x="814.0" y="1059.0" type="curve" smooth="yes"/>
      <point x="670.0" y="1059.0" type="line"/>
    </contour>
    <contour>
      <point x="877.0" y="749.0" type="line"/>
      <point x="1128.0" y="749.0"/>
      <point x="1357.0" y="652.0"/>
      <point x="1300.0" y="405.0" type="curve" smooth="yes"/>
      <point x="1285.0" y="344.0" type="line" smooth="yes"/>
      <point x="1221.0" y="68.0"/>
      <point x="957.0" y="0.0"/>
      <point x="705.0" y="0.0" type="curve" smooth="yes"/>
      <point x="-42.0" y="0.0" type="line" smooth="yes"/>
      <point x="-49.0" y="0.0"/>
      <point x="-52.0" y="3.0"/>
      <point x="-50.0" y="10.0" type="curve" smooth="yes"/>
      <point x="269.0" y="1390.0" type="line" smooth="yes"/>
      <point x="271.0" y="1397.0"/>
      <point x="274.0" y="1400.0"/>
      <point x="281.0" y="1400.0" type="curve" smooth="yes"/>
      <point x="1008.0" y="1400.0" type="line" smooth="yes"/>
      <point x="1260.0" y="1400.0"/>
      <point x="1461.0" y="1312.0"/>
      <point x="1404.0" y="1065.0" type="curve" smooth="yes"/>
      <point x="1397.0" y="1034.0" type="line" smooth="yes"/>
      <point x="1340.0" y="787.0"/>
      <point x="1098.0" y="700.0"/>
      <point x="847.0" y="700.0" type="curve"/>
    </contour>
    <contour>
      <point x="745.0" y="593.0" type="curve" smooth="yes"/>
      <point x="563.0" y="593.0" type="line"/>
      <point x="505.0" y="341.0" type="line"/>
      <point x="687.0" y="341.0" type="line" smooth="yes"/>
      <point x="771.0" y="341.0"/>
      <point x="810.0" y="397.0"/>
      <point x="822.0" y="448.0" type="curve" smooth="yes"/>
      <point x="831.0" y="485.0" type="line" smooth="yes"/>
      <point x="843.0" y="536.0"/>
      <point x="829.0" y="593.0"/>
    </contour>
  </outline>
</glyph>
<glyph name="C" format="2">
  <advance height="1872" width="1396"/>
  <unicode hex="0043"/>
  <anchor x="615.0" y="0.0" name="bottom"/>
  <anchor x="957.0" y="1400.0" name="top"/>
  <outline>
    <contour>
      <point x="1394.0" y="598.0" type="curve" smooth="yes"/>
      <point x="1372.0" y="526.0"/>
      <point x="1344.0" y="451.0"/>
      <point x="1308.0" y="384.0" type="curve" smooth="yes"/>
      <point x="1180.0" y="147.0"/>
      <point x="949.0" y="-34.0"/>
      <point x="593.0" y="-34.0" type="curve" smooth="yes"/>
      <point x="120.0" y="-34.0"/>
      <point x="-17.0" y="232.0"/>
      <point x="69.0" y="605.0" type="curve" smooth="yes"/>
      <point x="113.0" y="796.0" type="line" smooth="yes"/>
      <point x="199.0" y="1168.0"/>
      <point x="460.0" y="1434.0"/>
      <point x="933.0" y="1434.0" type="curve" smooth="yes"/>
      <point x="1280.0" y="1434.0"/>
      <point x="1440.0" y="1286.0"/>
      <point x="1440.0" y="1076.0" type="curve" smooth="yes"/>
      <point x="1440.0" y="1013.60644531"/>
      <point x="1422.0" y="938.0"/>
      <point x="1389.0" y="873.0" type="curve" smooth="yes"/>
      <point x="1384.82638266" y="864.77923858"/>
      <point x="1384.0" y="863.0"/>
      <point x="1377.0" y="863.0" type="curve" smooth="yes"/>
      <point x="1036.0" y="863.0" type="line" smooth="yes"/>
      <point x="1029.0" y="863.0"/>
      <point x="1024.26146849" y="864.572462866"/>
      <point x="1028.0" y="873.0" type="curve" smooth="yes"/>
      <point x="1087.0" y="1006.0"/>
      <point x="1047.0" y="1101.0"/>
      <point x="905.0" y="1101.0" type="curve" smooth="yes"/>
      <point x="764.0" y="1101.0"/>
      <point x="649.0" y="1011.0"/>
      <point x="602.0" y="806.0" type="curve" smooth="yes"/>
      <point x="553.0" y="593.0" type="line" smooth="yes"/>
      <point x="504.0" y="379.0"/>
      <point x="569.0" y="299.0"/>
      <point x="729.0" y="299.0" type="curve" smooth="yes"/>
      <point x="889.0" y="299.0"/>
      <point x="992.0" y="407.0"/>
      <point x="1033.0" y="598.0" type="curve" smooth="yes"/>
      <point x="1035.0" y="607.0"/>
      <point x="1038.0" y="608.0"/>
      <point x="1045.0" y="608.0" type="curve" smooth="yes"/>
      <point x="1387.0" y="608.0" type="line" smooth="yes"/>
      <point x="1394.0" y="608.0"/>
      <point x="1397.0" y="607.0"/>
    </contour>
  </outline>
</glyph>
<glyph name="D" format="2">
  <advance height="1872" width="1389"/>
  <unicode hex="0044"/>
  <anchor x="505.0" y="0.0" name="bottom"/>
  <anchor x="857.0" y="1400.0" name="top"/>
  <outline>
    <contour>
      <point x="564.0" y="0.0" type="curve" smooth="yes"/>
      <point x="-42.0" y="0.0" type="line" smooth="yes"/>
      <point x="-49.0" y="0.0"/>
      <point x="-52.0" y="3.0"/>
      <point x="-50.0" y="10.0" type="curve" smooth="yes"/>
      <point x="269.0" y="1390.0" type="line" smooth="yes"/>
      <point x="271.0" y="1397.0"/>
      <point x="274.0" y="1400.0"/>
      <point x="281.0" y="1400.0" type="curve" smooth="yes"/>
      <point x="887.0" y="1400.0" type="line" smooth="yes"/>
      <point x="1291.0" y="1400.0"/>
      <point x="1492.0" y="1174.0"/>
      <point x="1404.0" y="793.0" type="curve" smooth="yes"/>
      <point x="1361.0" y="608.0" type="line" smooth="yes"/>
      <point x="1273.0" y="227.0"/>
      <point x="1007.0" y="0.0"/>
    </contour>
    <contour>
      <point x="606.0" y="341.0" type="line" smooth="yes"/>
      <point x="754.0" y="341.0"/>
      <point x="832.0" y="429.0"/>
      <point x="871.0" y="598.0" type="curve" smooth="yes"/>
      <point x="918.0" y="803.0" type="line" smooth="yes"/>
      <point x="957.0" y="972.0"/>
      <point x="919.0" y="1059.0"/>
      <point x="771.0" y="1059.0" type="curve" smooth="yes"/>
      <point x="670.0" y="1059.0" type="line"/>
      <point x="505.0" y="341.0" type="line"/>
    </contour>
  </outline>
</glyph>
<glyph name="E" format="2">
  <advance height="1872" width="1266"/>
  <unicode hex="0045"/>
  <anchor x="565.0" y="0.0" name="bottom"/>
  <anchor x="980.0" y="0.0" name="ogonek"/>
  <anchor x="887.0" y="1400.0" name="top"/>
  <outline>
    <contour>
      <point x="619.0" y="836.0" type="line"/>
      <point x="994.0" y="836.0" type="line" smooth="yes"/>
      <point x="1001.0" y="836.0"/>
      <point x="1003.0" y="834.0"/>
      <point x="1001.0" y="827.0" type="curve" smooth="yes"/>
      <point x="949.0" y="602.0" type="line" smooth="yes"/>
      <point x="947.0" y="595.0"/>
      <point x="945.0" y="593.0"/>
      <point x="938.0" y="593.0" type="curve" smooth="yes"/>
      <point x="563.0" y="593.0" type="line"/>
      <point x="505.0" y="341.0" type="line"/>
      <point x="1187.0" y="341.0" type="line" smooth="yes"/>
      <point x="1194.0" y="341.0"/>
      <point x="1197.0" y="339.0"/>
      <point x="1195.0" y="332.0" type="curve" smooth="yes"/>
      <point x="1120.0" y="10.0" type="line" smooth="yes"/>
      <point x="1118.0" y="3.0"/>
      <point x="1115.0" y="0.0"/>
      <point x="1108.0" y="0.0" type="curve" smooth="yes"/>
      <point x="-42.0" y="0.0" type="line" smooth="yes"/>
      <point x="-49.0" y="0.0"/>
      <point x="-52.0" y="3.0"/>
      <point x="-50.0" y="10.0" type="curve" smooth="yes"/>
      <point x="269.0" y="1390.0" type="line" smooth="yes"/>
      <point x="271.0" y="1397.0"/>
      <point x="274.0" y="1400.0"/>
      <point x="281.0" y="1400.0" type="curve" smooth="yes"/>
      <point x="1412.0" y="1400.0" type="line" smooth="yes"/>
      <point x="1419.0" y="1400.0"/>
      <point x="1421.0" y="1397.0"/>
      <point x="1419.0" y="1390.0" type="curve" smooth="yes"/>
      <point x="1345.0" y="1068.0" type="line" smooth="yes"/>
      <point x="1343.0" y="1061.0"/>
      <point x="1340.0" y="1059.0"/>
      <point x="1333.0" y="1059.0" type="curve" smooth="yes"/>
      <point x="670.0" y="1059.0" type="line"/>
    </contour>
  </outline>
</glyph>
<glyph name="F" format="2">
  <advance height="1872" width="1180"/>
  <unicode hex="0046"/>
  <anchor x="525.0" y="0.0" name="bottom"/>
  <anchor x="847.0" y="1400.0" name="top"/>
  <outline>
    <contour>
      <point x="608.0" y="789.0" type="line"/>
      <point x="992.0" y="789.0" type="line" smooth="yes"/>
      <point x="1000.0" y="789.0"/>
      <point x="1002.0" y="788.0"/>
      <point x="1000.0" y="780.0" type="curve" smooth="yes"/>
      <point x="948.0" y="555.0" type="line" smooth="yes"/>
      <point x="946.0" y="547.0"/>
      <point x="944.0" y="546.0"/>
      <point x="936.0" y="546.0" type="curve" smooth="yes"/>
      <point x="552.0" y="546.0" type="line"/>
      <point x="428.0" y="10.0" type="line" smooth="yes"/>
      <point x="426.0" y="2.0"/>
      <point x="424.0" y="0.0"/>
      <point x="416.0" y="0.0" type="curve" smooth="yes"/>
      <point x="-42.0" y="0.0" type="line" smooth="yes"/>
      <point x="-50.0" y="0.0"/>
      <point x="-52.0" y="2.0"/>
      <point x="-50.0" y="10.0" type="curve" smooth="yes"/>
      <point x="269.0" y="1390.0" type="line" smooth="yes"/>
      <point x="271.0" y="1397.0"/>
      <point x="274.0" y="1400.0"/>
      <point x="281.0" y="1400.0" type="curve" smooth="yes"/>
      <point x="1365.0" y="1400.0" type="line" smooth="yes"/>
      <point x="1372.0" y="1400.0"/>
      <point x="1374.0" y="1397.0"/>
      <point x="1372.0" y="1390.0" type="curve" smooth="yes"/>
      <point x="1298.0" y="1068.0" type="line" smooth="yes"/>
      <point x="1296.0" y="1061.0"/>
      <point x="1293.0" y="1059.0"/>
      <point x="1286.0" y="1059.0" type="curve" smooth="yes"/>
      <point x="670.0" y="1059.0" type="line"/>
    </contour>
  </outline>
</glyph>
<glyph name="G" format="2">
  <advance height="1872" width="1439"/>
  <unicode hex="0047"/>
  <anchor x="625.0" y="0.0" name="bottom"/>
  <anchor x="947.0" y="1400.0" name="top"/>
  <outline>
    <contour>
      <point x="778.0" y="528.0" type="curve" smooth="yes"/>
      <point x="828.0" y="747.0" type="line" smooth="yes"/>
      <point x="830.0" y="754.0"/>
      <point x="833.0" y="757.0"/>
      <point x="840.0" y="757.0" type="curve" smooth="yes"/>
      <point x="1423.0" y="757.0" type="line" smooth="yes"/>
      <point x="1430.0" y="757.0"/>
      <point x="1432.0" y="754.0"/>
      <point x="1430.0" y="747.0" type="curve" smooth="yes"/>
      <point x="1260.0" y="10.0" type="line" smooth="yes"/>
      <point x="1258.0" y="3.0"/>
      <point x="1255.0" y="0.0"/>
      <point x="1248.0" y="0.0" type="curve" smooth="yes"/>
      <point x="1062.0" y="0.0" type="line" smooth="yes"/>
      <point x="1055.0" y="0.0"/>
      <point x="1052.0" y="3.0"/>
      <point x="1052.0" y="10.0" type="curve" smooth="yes"/>
      <point x="1047.0" y="318.0" type="line"/>
      <point x="1300.0" y="620.0" type="line"/>
      <point x="1190.0" y="230.0"/>
      <point x="893.0" y="-34.0"/>
      <point x="572.0" y="-34.0" type="curve" smooth="yes"/>
      <point x="110.0" y="-34.0"/>
      <point x="-18.0" y="233.0"/>
      <point x="69.0" y="608.0" type="curve" smooth="yes"/>
      <point x="112.0" y="793.0" type="line" smooth="yes"/>
      <point x="199.0" y="1169.0"/>
      <point x="460.0" y="1434.0"/>
      <point x="933.0" y="1434.0" type="curve" smooth="yes"/>
      <point x="1244.0" y="1434.0"/>
      <point x="1382.0" y="1286.0"/>
      <point x="1423.0" y="1113.0" type="curve" smooth="yes"/>
      <point x="1443.0" y="1034.0"/>
      <point x="1442.0" y="948.0"/>
      <point x="1429.0" y="873.0" type="curve" smooth="yes"/>
      <point x="1427.0" y="864.0"/>
      <point x="1424.0" y="863.0"/>
      <point x="1417.0" y="863.0" type="curve" smooth="yes"/>
      <point x="1074.0" y="863.0" type="line" smooth="yes"/>
      <point x="1067.0" y="863.0"/>
      <point x="1067.0" y="864.0"/>
      <point x="1068.0" y="873.0" type="curve" smooth="yes"/>
      <point x="1093.0" y="1020.0"/>
      <point x="1036.0" y="1102.0"/>
      <point x="904.0" y="1102.0" type="curve" smooth="yes"/>
      <point x="763.0" y="1102.0"/>
      <point x="649.0" y="1012.0"/>
      <point x="601.0" y="803.0" type="curve" smooth="yes"/>
      <point x="554.0" y="598.0" type="line" smooth="yes"/>
      <point x="504.0" y="380.0"/>
      <point x="560.0" y="298.0"/>
      <point x="730.0" y="298.0" type="curve" smooth="yes"/>
      <point x="861.0" y="298.0"/>
      <point x="968.0" y="394.0"/>
      <point x="1034.0" y="616.0" type="curve"/>
      <point x="1131.0" y="518.0" type="line"/>
      <point x="785.0" y="518.0" type="line" smooth="yes"/>
      <point x="778.0" y="518.0"/>
      <point x="776.0" y="521.0"/>
    </contour>
  </outline>
</glyph>
<glyph name="H" format="2">
  <advance height="1872" width="1379"/>
  <unicode hex="0048"/>
  <anchor x="585.0" y="0.0" name="bottom"/>
  <anchor x="907.0" y="1400.0" name="top"/>
  <outline>
    <contour>
      <point x="1046.0" y="1400.0" type="curve" smooth="yes"/>
      <point x="1505.0" y="1400.0" type="line" smooth="yes"/>
      <point x="1512.0" y="1400.0"/>
      <point x="1514.0" y="1397.0"/>
      <point x="1512.0" y="1390.0" type="curve" smooth="yes"/>
      <point x="1193.0" y="10.0" type="line" smooth="yes"/>
      <point x="1191.0" y="3.0"/>
      <point x="1189.0" y="0.0"/>
      <point x="1182.0" y="0.0" type="curve" smooth="yes"/>
      <point x="723.0" y="0.0" type="line" smooth="yes"/>
      <point x="716.0" y="0.0"/>
      <point x="714.0" y="3.0"/>
      <point x="716.0" y="10.0" type="curve" smooth="yes"/>
      <point x="840.0" y="544.0" type="line"/>
      <point x="552.0" y="544.0" type="line"/>
      <point x="428.0" y="10.0" type="line" smooth="yes"/>
      <point x="426.0" y="3.0"/>
      <point x="423.0" y="0.0"/>
      <point x="416.0" y="0.0" type="curve" smooth="yes"/>
      <point x="-42.0" y="0.0" type="line" smooth="yes"/>
      <point x="-49.0" y="0.0"/>
      <point x="-52.0" y="3.0"/>
      <point x="-50.0" y="10.0" type="curve" smooth="yes"/>
      <point x="269.0" y="1390.0" type="line" smooth="yes"/>
      <point x="271.0" y="1397.0"/>
      <point x="274.0" y="1400.0"/>
      <point x="281.0" y="1400.0" type="curve" smooth="yes"/>
      <point x="739.0" y="1400.0" type="line" smooth="yes"/>
      <point x="746.0" y="1400.0"/>
      <point x="749.0" y="1397.0"/>
      <point x="747.0" y="1390.0" type="curve" smooth="yes"/>
      <point x="630.0" y="885.0" type="line"/>
      <point x="918.0" y="885.0" type="line"/>
      <point x="1035.0" y="1390.0" type="line" smooth="yes"/>
      <point x="1037.0" y="1397.0"/>
      <point x="1039.0" y="1400.0"/>
    </contour>
  </outline>
</glyph>
<glyph name="I" format="2">
  <advance height="1872" width="614"/>
  <unicode hex="0049"/>
  <anchor x="200.0" y="0.0" name="bottom"/>
  <anchor x="200.0" y="0.0" name="ogonek"/>
  <anchor x="522.0" y="1400.0" name="top"/>
  <outline>
    <contour>
      <point x="281.0" y="1400.0" type="curve" smooth="yes"/>
      <point x="739.0" y="1400.0" type="line" smooth="yes"/>
      <point x="746.0" y="1400.0"/>
      <point x="749.0" y="1397.0"/>
      <point x="747.0" y="1390.0" type="curve" smooth="yes"/>
      <point x="428.0" y="10.0" type="line" smooth="yes"/>
      <point x="426.0" y="3.0"/>
      <point x="423.0" y="0.0"/>
      <point x="416.0" y="0.0" type="curve" smooth="yes"/>
      <point x="-42.0" y="0.0" type="line" smooth="yes"/>
      <point x="-49.0" y="0.0"/>
      <point x="-52.0" y="3.0"/>
      <point x="-50.0" y="10.0" type="curve" smooth="yes"/>
      <point x="269.0" y="1390.0" type="line" smooth="yes"/>
      <point x="271.0" y="1397.0"/>
      <point x="274.0" y="1400.0"/>
    </contour>
  </outline>
</glyph>
<glyph name="J" format="2">
  <advance height="1872" width="1084"/>
  <unicode hex="004A"/>
  <anchor x="337.0" y="0.0" name="bottom"/>
  <anchor x="1059.0" y="1400.0" name="top"/>
  <outline>
    <contour>
      <point x="741.0" y="1400.0" type="curve" smooth="yes"/>
      <point x="1209.0" y="1400.0" type="line" smooth="yes"/>
      <point x="1216.0" y="1400.0"/>
      <point x="1219.0" y="1397.0"/>
      <point x="1217.0" y="1390.0" type="curve" smooth="yes"/>
      <point x="1017.0" y="525.0" type="line" smooth="yes"/>
      <point x="930.0" y="149.0"/>
      <point x="804.0" y="-34.0"/>
      <point x="391.0" y="-34.0" type="curve" smooth="yes"/>
      <point x="46.0" y="-34.0"/>
      <point x="-69.6826171875" y="164.5390625"/>
      <point x="48.0" y="466.0" type="curve" smooth="yes"/>
      <point x="121.0" y="653.0" type="line" smooth="yes"/>
      <point x="123.0" y="660.0"/>
      <point x="125.0" y="663.0"/>
      <point x="132.0" y="663.0" type="curve" smooth="yes"/>
      <point x="433.0" y="663.0" type="line" smooth="yes"/>
      <point x="440.0" y="663.0"/>
      <point x="443.0" y="660.0"/>
      <point x="441.0" y="653.0" type="curve" smooth="yes"/>
      <point x="370.0" y="476.0" type="line" smooth="yes"/>
      <point x="327.831427" y="370.875529282"/>
      <point x="350.0" y="317.0"/>
      <point x="410.0" y="317.0" type="curve" smooth="yes"/>
      <point x="471.0" y="317.0"/>
      <point x="491.0" y="359.0"/>
      <point x="522.0" y="495.0" type="curve" smooth="yes"/>
      <point x="729.0" y="1390.0" type="line" smooth="yes"/>
      <point x="731.0" y="1397.0"/>
      <point x="734.0" y="1400.0"/>
    </contour>
  </outline>
</glyph>
<glyph name="K" format="2">
  <advance height="1872" width="1418"/>
  <unicode hex="004B"/>
  <anchor x="525.0" y="0.0" name="bottom"/>
  <anchor x="847.0" y="1400.0" name="top"/>
  <outline>
    <contour>
      <point x="281.0" y="1400.0" type="curve" smooth="yes"/>
      <point x="739.0" y="1400.0" type="line" smooth="yes"/>
      <point x="746.0" y="1400.0"/>
      <point x="749.0" y="1397.0"/>
      <point x="747.0" y="1390.0" type="curve" smooth="yes"/>
      <point x="428.0" y="10.0" type="line" smooth="yes"/>
      <point x="426.0" y="3.0"/>
      <point x="423.0" y="0.0"/>
      <point x="416.0" y="0.0" type="curve" smooth="yes"/>
      <point x="-42.0" y="0.0" type="line" smooth="yes"/>
      <point x="-49.0" y="0.0"/>
      <point x="-52.0" y="3.0"/>
      <point x="-50.0" y="10.0" type="curve" smooth="yes"/>
      <point x="269.0" y="1390.0" type="line" smooth="yes"/>
      <point x="271.0" y="1397.0"/>
      <point x="274.0" y="1400.0"/>
    </contour>
    <contour>
      <point x="581.0" y="714.0" type="line"/>
      <point x="969.0" y="956.0" type="line"/>
      <point x="1391.0" y="10.0" type="line" smooth="yes"/>
      <point x="1395.0" y="2.0"/>
      <point x="1393.0" y="0.0"/>
      <point x="1386.0" y="0.0" type="curve" smooth="yes"/>
      <point x="821.0" y="0.0" type="line" smooth="yes"/>
      <point x="814.0" y="0.0"/>
      <point x="810.0" y="2.0"/>
      <point x="807.0" y="10.0" type="curve" smooth="yes"/>
    </contour>
    <contour>
      <point x="1173.0" y="1390.0" type="line" smooth="yes"/>
      <point x="1179.0" y="1395.0"/>
      <point x="1185.0" y="1400.0"/>
      <point x="1195.0" y="1400.0" type="curve" smooth="yes"/>
      <point x="1664.0" y="1400.0" type="line" smooth="yes"/>
      <point x="1676.0" y="1400.0"/>
      <point x="1677.0" y="1397.0"/>
      <point x="1668.0" y="1390.0" type="curve" smooth="yes"/>
      <point x="853.0" y="690.0" type="line"/>
      <point x="788.0" y="639.0" type="line"/>
      <point x="495.0" y="384.0" type="line"/>
      <point x="224.0" y="510.0" type="line"/>
    </contour>
  </outline>
</glyph>
<glyph name="L" format="2">
  <advance height="1872" width="1101"/>
  <unicode hex="004C"/>
  <anchor x="525.0" y="0.0" name="bottom"/>
  <anchor x="487.0" y="1400.0" name="top"/>
  <outline>
    <contour>
      <point x="281.0" y="1400.0" type="curve" smooth="yes"/>
      <point x="739.0" y="1400.0" type="line" smooth="yes"/>
      <point x="746.0" y="1400.0"/>
      <point x="749.0" y="1397.0"/>
      <point x="747.0" y="1390.0" type="curve" smooth="yes"/>
      <point x="505.0" y="341.0" type="line"/>
      <point x="1036.0" y="341.0" type="line" smooth="yes"/>
      <point x="1043.0" y="341.0"/>
      <point x="1046.0" y="339.0"/>
      <point x="1044.0" y="332.0" type="curve" smooth="yes"/>
      <point x="969.0" y="10.0" type="line" smooth="yes"/>
      <point x="967.0" y="3.0"/>
      <point x="964.0" y="0.0"/>
      <point x="957.0" y="0.0" type="curve" smooth="yes"/>
      <point x="-42.0" y="0.0" type="line" smooth="yes"/>
      <point x="-49.0" y="0.0"/>
      <point x="-52.0" y="3.0"/>
      <point x="-50.0" y="10.0" type="curve" smooth="yes"/>
      <point x="269.0" y="1390.0" type="line" smooth="yes"/>
      <point x="271.0" y="1397.0"/>
      <point x="274.0" y="1400.0"/>
    </contour>
  </outline>
</glyph>
<glyph name="M" format="2">
  <advance height="1872" width="1789"/>
  <unicode hex="004D"/>
  <anchor x="745.0" y="0.0" name="bottom"/>
  <anchor x="1067.0" y="1400.0" name="top"/>
  <outline>
    <contour>
      <point x="465.0" y="844.0" type="line"/>
      <point x="272.0" y="10.0" type="line" smooth="yes"/>
      <point x="270.0" y="3.0"/>
      <point x="267.0" y="0.0"/>
      <point x="260.0" y="0.0" type="curve" smooth="yes"/>
      <point x="-62.0" y="0.0" type="line" smooth="yes"/>
      <point x="-69.0" y="0.0"/>
      <point x="-71.0" y="3.0"/>
      <point x="-69.0" y="10.0" type="curve" smooth="yes"/>
      <point x="250.0" y="1390.0" type="line" smooth="yes"/>
      <point x="252.0" y="1397.0"/>
      <point x="254.0" y="1400.0"/>
      <point x="261.0" y="1400.0" type="curve" smooth="yes"/>
      <point x="847.0" y="1400.0" type="line" smooth="yes"/>
      <point x="854.0" y="1400.0"/>
      <point x="857.0" y="1397.0"/>
      <point x="858.0" y="1390.0" type="curve" smooth="yes"/>
      <point x="924.0" y="687.0" type="line"/>
      <point x="1342.0" y="1390.0" type="line" smooth="yes"/>
      <point x="1347.0" y="1397.0"/>
      <point x="1351.0" y="1400.0"/>
      <point x="1358.0" y="1400.0" type="curve" smooth="yes"/>
      <point x="1914.0" y="1400.0" type="line" smooth="yes"/>
      <point x="1921.0" y="1400.0"/>
      <point x="1924.0" y="1397.0"/>
      <point x="1922.0" y="1390.0" type="curve" smooth="yes"/>
      <point x="1603.0" y="10.0" type="line" smooth="yes"/>
      <point x="1601.0" y="3.0"/>
      <point x="1598.0" y="0.0"/>
      <point x="1591.0" y="0.0" type="curve" smooth="yes"/>
      <point x="1152.0" y="0.0" type="line" smooth="yes"/>
      <point x="1145.0" y="0.0"/>
      <point x="1142.0" y="3.0"/>
      <point x="1144.0" y="10.0" type="curve" smooth="yes"/>
      <point x="1337.0" y="844.0" type="line"/>
      <point x="858.0" y="10.0" type="line" smooth="yes"/>
      <point x="853.0" y="3.0"/>
      <point x="849.0" y="0.0"/>
      <point x="842.0" y="0.0" type="curve" smooth="yes"/>
      <point x="589.0" y="0.0" type="line" smooth="yes"/>
      <point x="582.0" y="0.0"/>
      <point x="578.0" y="3.0"/>
      <point x="577.0" y="10.0" type="curve" smooth="yes"/>
    </contour>
  </outline>
</glyph>
<glyph name="N" format="2">
  <advance height="1872" width="1340"/>
  <unicode hex="004E"/>
  <anchor x="565.0" y="0.0" name="bottom"/>
  <anchor x="897.0" y="1400.0" name="top"/>
  <outline>
    <contour>
      <point x="1144.0" y="1400.0" type="curve" smooth="yes"/>
      <point x="1485.0" y="1400.0" type="line" smooth="yes"/>
      <point x="1492.0" y="1400.0"/>
      <point x="1495.0" y="1397.0"/>
      <point x="1493.0" y="1390.0" type="curve" smooth="yes"/>
      <point x="1174.0" y="10.0" type="line" smooth="yes"/>
      <point x="1172.0" y="3.0"/>
      <point x="1169.0" y="0.0"/>
      <point x="1162.0" y="0.0" type="curve" smooth="yes"/>
      <point x="688.0" y="0.0" type="line" smooth="yes"/>
      <point x="681.0" y="0.0"/>
      <point x="676.0" y="1.0"/>
      <point x="674.0" y="10.0" type="curve" smooth="yes"/>
      <point x="489.0" y="948.0" type="line"/>
      <point x="509.0" y="948.0" type="line"/>
      <point x="292.0" y="10.0" type="line" smooth="yes"/>
      <point x="290.0" y="3.0"/>
      <point x="287.0" y="0.0"/>
      <point x="280.0" y="0.0" type="curve" smooth="yes"/>
      <point x="-62.0" y="0.0" type="line" smooth="yes"/>
      <point x="-69.0" y="0.0"/>
      <point x="-71.0" y="3.0"/>
      <point x="-69.0" y="10.0" type="curve" smooth="yes"/>
      <point x="250.0" y="1390.0" type="line" smooth="yes"/>
      <point x="252.0" y="1397.0"/>
      <point x="254.0" y="1400.0"/>
      <point x="261.0" y="1400.0" type="curve" smooth="yes"/>
      <point x="833.0" y="1400.0" type="line" smooth="yes"/>
      <point x="841.0" y="1400.0"/>
      <point x="846.0" y="1399.0"/>
      <point x="847.0" y="1390.0" type="curve" smooth="yes"/>
      <point x="969.0" y="599.0" type="line"/>
      <point x="949.0" y="599.0" type="line"/>
      <point x="1132.0" y="1390.0" type="line" smooth="yes"/>
      <point x="1134.0" y="1397.0"/>
      <point x="1137.0" y="1400.0"/>
    </contour>
  </outline>
</glyph>
<glyph name="O" format="2">
  <advance height="1872" width="1541"/>
  <unicode hex="004F"/>
  <anchor x="675.0" y="0.0" name="bottom"/>
  <anchor x="997.0" y="1400.0" name="top"/>
  <outline>
    <contour>
      <point x="69.0" y="605.0" type="curve" smooth="yes"/>
      <point x="113.0" y="796.0" type="line" smooth="yes"/>
      <point x="200.0" y="1174.0"/>
      <point x="512.0" y="1434.0"/>
      <point x="982.0" y="1434.0" type="curve" smooth="yes"/>
      <point x="1452.0" y="1434.0"/>
      <point x="1644.0" y="1174.0"/>
      <point x="1557.0" y="796.0" type="curve" smooth="yes"/>
      <point x="1513.0" y="605.0" type="line" smooth="yes"/>
      <point x="1426.0" y="227.0"/>
      <point x="1112.0" y="-34.0"/>
      <point x="643.0" y="-34.0" type="curve" smooth="yes"/>
      <point x="174.0" y="-34.0"/>
      <point x="-18.0" y="227.0"/>
    </contour>
    <contour>
      <point x="552.0" y="591.0" type="line" smooth="yes"/>
      <point x="507.0" y="398.0"/>
      <point x="563.0" y="297.0"/>
      <point x="720.0" y="297.0" type="curve" smooth="yes"/>
      <point x="877.0" y="297.0"/>
      <point x="977.0" y="398.0"/>
      <point x="1022.0" y="591.0" type="curve" smooth="yes"/>
      <point x="1073.0" y="810.0" type="line" smooth="yes"/>
      <point x="1117.0" y="1002.0"/>
      <point x="1063.0" y="1103.0"/>
      <point x="906.0" y="1103.0" type="curve" smooth="yes"/>
      <point x="749.0" y="1103.0"/>
      <point x="647.0" y="1002.0"/>
      <point x="603.0" y="810.0" type="curve" smooth="yes"/>
    </contour>
  </outline>
</glyph>
<glyph name="P" format="2">
  <advance height="1872" width="1292"/>
  <unicode hex="0050"/>
  <anchor x="155.0" y="0.0" name="bottom"/>
  <anchor x="827.0" y="1400.0" name="top"/>
  <outline>
    <contour>
      <point x="670.0" y="1059.0" type="line"/>
      <point x="599.0" y="749.0" type="line"/>
      <point x="704.0" y="749.0" type="line" smooth="yes"/>
      <point x="817.0" y="749.0"/>
      <point x="865.0" y="795.0"/>
      <point x="885.0" y="883.0" type="curve" smooth="yes"/>
      <point x="894.0" y="924.0" type="line" smooth="yes"/>
      <point x="914.0" y="1012.0"/>
      <point x="888.0" y="1059.0"/>
      <point x="775.0" y="1059.0" type="curve" smooth="yes"/>
    </contour>
    <contour>
      <point x="901.0" y="1400.0" type="line" smooth="yes"/>
      <point x="1278.0" y="1400.0"/>
      <point x="1409.0" y="1256.0"/>
      <point x="1348.0" y="990.0" type="curve" smooth="yes"/>
      <point x="1330.0" y="915.0" type="line" smooth="yes"/>
      <point x="1269.0" y="649.0"/>
      <point x="1072.0" y="505.0"/>
      <point x="697.0" y="505.0" type="curve" smooth="yes"/>
      <point x="543.0" y="505.0" type="line"/>
      <point x="428.0" y="10.0" type="line" smooth="yes"/>
      <point x="426.0" y="3.0"/>
      <point x="423.0" y="0.0"/>
      <point x="416.0" y="0.0" type="curve" smooth="yes"/>
      <point x="-42.0" y="0.0" type="line" smooth="yes"/>
      <point x="-49.0" y="0.0"/>
      <point x="-52.0" y="3.0"/>
      <point x="-50.0" y="10.0" type="curve" smooth="yes"/>
      <point x="269.0" y="1390.0" type="line" smooth="yes"/>
      <point x="271.0" y="1397.0"/>
      <point x="274.0" y="1400.0"/>
      <point x="281.0" y="1400.0" type="curve" smooth="yes"/>
    </contour>
  </outline>
</glyph>
<glyph name="Q" format="2">
  <advance height="1872" width="1610"/>
  <unicode hex="0051"/>
  <anchor x="645.0" y="0.0" name="bottom"/>
  <anchor x="967.0" y="1400.0" name="top"/>
  <outline>
    <contour>
      <point x="1559.0" y="400.0" type="curve" smooth="yes"/>
      <point x="1469.0" y="10.0" type="line" smooth="yes"/>
      <point x="1467.0" y="3.0"/>
      <point x="1465.0" y="-1.0"/>
      <point x="1454.0" y="-3.0" type="curve" smooth="yes"/>
      <point x="1140.0" y="-53.0"/>
      <point x="1025.0" y="90.0"/>
      <point x="1085.0" y="349.0" type="curve"/>
      <point x="1244.0" y="573.0" type="line"/>
      <point x="1165.0" y="232.0"/>
      <point x="1056.0" y="-34.0"/>
      <point x="593.0" y="-34.0" type="curve" smooth="yes"/>
      <point x="129.0" y="-34.0"/>
      <point x="6.0" y="252.0"/>
      <point x="85.0" y="593.0" type="curve" smooth="yes"/>
      <point x="135.0" y="808.0" type="line" smooth="yes"/>
      <point x="214.0" y="1149.0"/>
      <point x="478.0" y="1434.0"/>
      <point x="953.0" y="1434.0" type="curve" smooth="yes"/>
      <point x="1428.0" y="1434.0"/>
      <point x="1563.0" y="1149.0"/>
      <point x="1484.0" y="808.0" type="curve" smooth="yes"/>
      <point x="1427.0" y="564.0" type="line" smooth="yes"/>
      <point x="1401.0" y="453.0"/>
      <point x="1462.0" y="415.0"/>
      <point x="1550.0" y="410.0" type="curve" smooth="yes"/>
      <point x="1562.0" y="409.0"/>
      <point x="1561.0" y="407.0"/>
    </contour>
    <contour>
      <point x="946.0" y="591.0" type="curve" smooth="yes"/>
      <point x="997.0" y="810.0" type="line" smooth="yes"/>
      <point x="1035.0" y="975.0"/>
      <point x="1028.0" y="1103.0"/>
      <point x="877.0" y="1103.0" type="curve" smooth="yes"/>
      <point x="726.0" y="1103.0"/>
      <point x="660.0" y="975.0"/>
      <point x="622.0" y="810.0" type="curve" smooth="yes"/>
      <point x="571.0" y="591.0" type="line" smooth="yes"/>
      <point x="531.0" y="417.0"/>
      <point x="540.0" y="297.0"/>
      <point x="691.0" y="297.0" type="curve" smooth="yes"/>
      <point x="842.0" y="297.0"/>
      <point x="906.0" y="417.0"/>
    </contour>
  </outline>
</glyph>
<glyph name="R" format="2">
  <advance height="1872" width="1371"/>
  <unicode hex="0052"/>
  <anchor x="555.0" y="0.0" name="bottom"/>
  <anchor x="877.0" y="1400.0" name="top"/>
  <outline>
    <contour>
      <point x="670.0" y="1059.0" type="line"/>
      <point x="597.0" y="739.0" type="line"/>
      <point x="693.0" y="739.0" type="line" smooth="yes"/>
      <point x="815.0" y="739.0"/>
      <point x="856.0" y="800.0"/>
      <point x="876.0" y="888.0" type="curve" smooth="yes"/>
      <point x="881.0" y="910.0" type="line" smooth="yes"/>
      <point x="899.0" y="988.0"/>
      <point x="888.0" y="1059.0"/>
      <point x="766.0" y="1059.0" type="curve" smooth="yes"/>
    </contour>
    <contour>
      <point x="941.0" y="1400.0" type="line" smooth="yes"/>
      <point x="1339.0" y="1400.0"/>
      <point x="1440.0" y="1216.0"/>
      <point x="1388.0" y="990.0" type="curve" smooth="yes"/>
      <point x="1379.0" y="954.0" type="line" smooth="yes"/>
      <point x="1325.0" y="718.0"/>
      <point x="1072.0" y="583.0"/>
      <point x="753.0" y="583.0" type="curve"/>
      <point x="766.0" y="642.0" type="line"/>
      <point x="1114.0" y="642.0"/>
      <point x="1310.0" y="615.0"/>
      <point x="1255.0" y="377.0" type="curve" smooth="yes"/>
      <point x="1242.0" y="320.0" type="line" smooth="yes"/>
      <point x="1216.0" y="209.0"/>
      <point x="1227.0" y="125.0"/>
      <point x="1257.0" y="59.0" type="curve" smooth="yes"/>
      <point x="1261.0" y="48.0"/>
      <point x="1261.0" y="45.0"/>
      <point x="1260.0" y="39.0" type="curve" smooth="yes"/>
      <point x="1253.0" y="10.0" type="line" smooth="yes"/>
      <point x="1251.0" y="3.0"/>
      <point x="1248.0" y="0.0"/>
      <point x="1241.0" y="0.0" type="curve" smooth="yes"/>
      <point x="754.0" y="0.0" type="line" smooth="yes"/>
      <point x="747.0" y="0.0"/>
      <point x="744.0" y="0.0"/>
      <point x="741.0" y="9.0" type="curve" smooth="yes"/>
      <point x="709.0" y="105.0"/>
      <point x="725.0" y="233.0"/>
      <point x="745.0" y="320.0" type="curve" smooth="yes"/>
      <point x="759.0" y="380.0" type="line" smooth="yes"/>
      <point x="777.0" y="458.0"/>
      <point x="758.0" y="495.0"/>
      <point x="655.0" y="495.0" type="curve" smooth="yes"/>
      <point x="540.0" y="495.0" type="line"/>
      <point x="428.0" y="10.0" type="line" smooth="yes"/>
      <point x="426.0" y="3.0"/>
      <point x="423.0" y="0.0"/>
      <point x="416.0" y="0.0" type="curve" smooth="yes"/>
      <point x="-42.0" y="0.0" type="line" smooth="yes"/>
      <point x="-49.0" y="0.0"/>
      <point x="-52.0" y="3.0"/>
      <point x="-50.0" y="10.0" type="curve" smooth="yes"/>
      <point x="269.0" y="1390.0" type="line" smooth="yes"/>
      <point x="271.0" y="1397.0"/>
      <point x="274.0" y="1400.0"/>
      <point x="281.0" y="1400.0" type="curve" smooth="yes"/>
    </contour>
  </outline>
</glyph>
<glyph name="S" format="2">
  <advance height="1872" width="1315"/>
  <unicode hex="0053"/>
  <anchor x="534.0" y="0.0" name="bottom"/>
  <anchor x="856.0" y="1400.0" name="top"/>
  <outline>
    <contour>
      <point x="21.0" y="490.0" type="curve" smooth="yes"/>
      <point x="363.0" y="490.0" type="line" smooth="yes"/>
      <point x="366.0" y="490.0"/>
      <point x="373.0" y="489.0"/>
      <point x="371.0" y="482.0" type="curve" smooth="yes"/>
      <point x="365.0" y="455.0"/>
      <point x="362.0" y="442.0"/>
      <point x="358.0" y="424.0" type="curve" smooth="yes"/>
      <point x="338.0" y="318.0"/>
      <point x="424.0" y="279.0"/>
      <point x="591.0" y="279.0" type="curve" smooth="yes"/>
      <point x="742.0" y="279.0"/>
      <point x="809.0" y="311.0"/>
      <point x="821.0" y="365.0" type="curve" smooth="yes"/>
      <point x="834.0" y="423.0"/>
      <point x="746.0" y="439.0"/>
      <point x="634.0" y="471.0" type="curve" smooth="yes"/>
      <point x="414.0" y="530.0"/>
      <point x="82.0" y="592.0"/>
      <point x="172.0" y="980.0" type="curve" smooth="yes"/>
      <point x="234.0" y="1247.0"/>
      <point x="469.0" y="1434.0"/>
      <point x="869.0" y="1434.0" type="curve" smooth="yes"/>
      <point x="1271.0" y="1434.0"/>
      <point x="1386.0" y="1239.0"/>
      <point x="1337.0" y="1027.0" type="curve" smooth="yes"/>
      <point x="1323.0" y="968.0" type="line" smooth="yes"/>
      <point x="1321.0" y="961.0"/>
      <point x="1317.0" y="960.0"/>
      <point x="1312.0" y="960.0" type="curve" smooth="yes"/>
      <point x="990.0" y="960.0" type="line" smooth="yes"/>
      <point x="985.0" y="960.0"/>
      <point x="979.0" y="961.0"/>
      <point x="981.0" y="968.0" type="curve" smooth="yes"/>
      <point x="985.0" y="986.0"/>
      <point x="992.0" y="1009.0"/>
      <point x="993.0" y="1016.0" type="curve" smooth="yes"/>
      <point x="999.0" y="1071.0"/>
      <point x="942.0" y="1140.0"/>
      <point x="811.0" y="1140.0" type="curve" smooth="yes"/>
      <point x="694.0" y="1140.0"/>
      <point x="621.0" y="1098.0"/>
      <point x="609.0" y="1047.0" type="curve" smooth="yes"/>
      <point x="594.0" y="980.0"/>
      <point x="688.0" y="946.0"/>
      <point x="814.0" y="917.0" type="curve" smooth="yes"/>
      <point x="1038.0" y="867.0"/>
      <point x="1346.0" y="776.0"/>
      <point x="1264.0" y="422.0" type="curve" smooth="yes"/>
      <point x="1192.0" y="109.0"/>
      <point x="926.0" y="-34.0"/>
      <point x="501.0" y="-34.0" type="curve" smooth="yes"/>
      <point x="124.0" y="-34.0"/>
      <point x="-73.0" y="119.0"/>
      <point x="-10.0" y="391.0" type="curve" smooth="yes"/>
      <point x="11.0" y="481.0" type="line" smooth="yes"/>
      <point x="13.0" y="488.0"/>
      <point x="18.0" y="490.0"/>
    </contour>
  </outline>
</glyph>
<glyph name="T" format="2">
  <advance height="1872" width="1309"/>
  <unicode hex="0054"/>
  <anchor x="515.0" y="0.0" name="bottom"/>
  <anchor x="877.0" y="1400.0" name="top"/>
  <outline>
    <contour>
      <point x="241.0" y="1400.0" type="curve" smooth="yes"/>
      <point x="1475.0" y="1400.0" type="line" smooth="yes"/>
      <point x="1482.0" y="1400.0"/>
      <point x="1484.0" y="1397.0"/>
      <point x="1482.0" y="1390.0" type="curve" smooth="yes"/>
      <point x="1408.0" y="1068.0" type="line" smooth="yes"/>
      <point x="1406.0" y="1061.0"/>
      <point x="1403.0" y="1059.0"/>
      <point x="1396.0" y="1059.0" type="curve" smooth="yes"/>
      <point x="1018.0" y="1059.0" type="line"/>
      <point x="776.0" y="10.0" type="line" smooth="yes"/>
      <point x="774.0" y="3.0"/>
      <point x="771.0" y="0.0"/>
      <point x="764.0" y="0.0" type="curve" smooth="yes"/>
      <point x="306.0" y="0.0" type="line" smooth="yes"/>
      <point x="299.0" y="0.0"/>
      <point x="296.0" y="3.0"/>
      <point x="298.0" y="10.0" type="curve" smooth="yes"/>
      <point x="540.0" y="1059.0" type="line"/>
      <point x="162.0" y="1059.0" type="line" smooth="yes"/>
      <point x="155.0" y="1059.0"/>
      <point x="153.0" y="1061.0"/>
      <point x="155.0" y="1068.0" type="curve" smooth="yes"/>
      <point x="229.0" y="1390.0" type="line" smooth="yes"/>
      <point x="231.0" y="1397.0"/>
      <point x="234.0" y="1400.0"/>
    </contour>
  </outline>
</glyph>
<glyph name="U" format="2">
  <advance height="1872" width="1329"/>
  <unicode hex="0055"/>
  <anchor x="580.0" y="0.0" name="bottom"/>
  <anchor x="675.0" y="0.0" name="ogonek"/>
  <anchor x="902.0" y="1400.0" name="top"/>
  <outline>
    <contour>
      <point x="931.0" y="571.0" type="curve" smooth="yes"/>
      <point x="1120.0" y="1390.0" type="line" smooth="yes"/>
      <point x="1122.0" y="1397.0"/>
      <point x="1125.0" y="1400.0"/>
      <point x="1132.0" y="1400.0" type="curve" smooth="yes"/>
      <point x="1473.0" y="1400.0" type="line" smooth="yes"/>
      <point x="1480.0" y="1400.0"/>
      <point x="1483.0" y="1397.0"/>
      <point x="1481.0" y="1390.0" type="curve" smooth="yes"/>
      <point x="1273.0" y="488.0" type="line" smooth="yes"/>
      <point x="1201.0" y="176.0"/>
      <point x="1109.0" y="-34.0"/>
      <point x="626.0" y="-34.0" type="curve" smooth="yes"/>
      <point x="85.0" y="-34.0"/>
      <point x="-15.0" y="203.0"/>
      <point x="70.0" y="573.0" type="curve" smooth="yes"/>
      <point x="259.0" y="1390.0" type="line" smooth="yes"/>
      <point x="261.0" y="1397.0"/>
      <point x="264.0" y="1400.0"/>
      <point x="271.0" y="1400.0" type="curve" smooth="yes"/>
      <point x="739.0" y="1400.0" type="line" smooth="yes"/>
      <point x="746.0" y="1400.0"/>
      <point x="749.0" y="1397.0"/>
      <point x="747.0" y="1390.0" type="curve" smooth="yes"/>
      <point x="574.0" y="640.0" type="line" smooth="yes"/>
      <point x="518.0" y="397.0"/>
      <point x="531.0" y="297.0"/>
      <point x="691.0" y="297.0" type="curve" smooth="yes"/>
      <point x="813.0" y="297.0"/>
      <point x="884.0" y="368.0"/>
    </contour>
  </outline>
</glyph>
<glyph name="V" format="2">
  <advance height="1872" width="1400"/>
  <unicode hex="0056"/>
  <anchor x="662.0" y="0.0" name="bottom"/>
  <anchor x="954.0" y="1400.0" name="top"/>
  <outline>
    <contour>
      <point x="707.0" y="416.0" type="line"/>
      <point x="1220.0" y="1390.0" type="line" smooth="yes"/>
      <point x="1223.0" y="1396.0"/>
      <point x="1227.0" y="1400.0"/>
      <point x="1234.0" y="1400.0" type="curve" smooth="yes"/>
      <point x="1616.0" y="1400.0" type="line" smooth="yes"/>
      <point x="1623.0" y="1400.0"/>
      <point x="1624.0" y="1396.0"/>
      <point x="1621.0" y="1390.0" type="curve" smooth="yes"/>
      <point x="839.0" y="10.0" type="line" smooth="yes"/>
      <point x="836.0" y="4.0"/>
      <point x="831.0" y="0.0"/>
      <point x="824.0" y="0.0" type="curve" smooth="yes"/>
      <point x="335.0" y="0.0" type="line" smooth="yes"/>
      <point x="328.0" y="0.0"/>
      <point x="325.0" y="4.0"/>
      <point x="324.0" y="10.0" type="curve" smooth="yes"/>
      <point x="172.0" y="1390.0" type="line" smooth="yes"/>
      <point x="171.0" y="1396.0"/>
      <point x="174.0" y="1400.0"/>
      <point x="181.0" y="1400.0" type="curve" smooth="yes"/>
      <point x="619.0" y="1400.0" type="line" smooth="yes"/>
      <point x="626.0" y="1400.0"/>
      <point x="630.0" y="1397.0"/>
      <point x="630.0" y="1390.0" type="curve" smooth="yes"/>
    </contour>
  </outline>
</glyph>
<glyph name="W" format="2">
  <advance height="1872" width="1783"/>
  <unicode hex="0057"/>
  <anchor x="813.0" y="0.0" name="bottom"/>
  <anchor x="1135.0" y="1400.0" name="top"/>
  <outline>
    <contour>
      <point x="599.0" y="680.0" type="line"/>
      <point x="954.0" y="1390.0" type="line" smooth="yes"/>
      <point x="957.0" y="1396.0"/>
      <point x="962.0" y="1400.0"/>
      <point x="969.0" y="1400.0" type="curve" smooth="yes"/>
      <point x="1310.0" y="1400.0" type="line" smooth="yes"/>
      <point x="1317.0" y="1400.0"/>
      <point x="1319.0" y="1396.0"/>
      <point x="1320.0" y="1390.0" type="curve" smooth="yes"/>
      <point x="1356.0" y="645.0" type="line"/>
      <point x="1673.0" y="1390.0" type="line" smooth="yes"/>
      <point x="1676.0" y="1396.0"/>
      <point x="1681.0" y="1400.0"/>
      <point x="1688.0" y="1400.0" type="curve" smooth="yes"/>
      <point x="2038.0" y="1400.0" type="line" smooth="yes"/>
      <point x="2045.0" y="1400.0"/>
      <point x="2046.0" y="1396.0"/>
      <point x="2043.0" y="1390.0" type="curve" smooth="yes"/>
      <point x="1405.0" y="10.0" type="line" smooth="yes"/>
      <point x="1401.0" y="3.0"/>
      <point x="1397.0" y="0.0"/>
      <point x="1390.0" y="0.0" type="curve" smooth="yes"/>
      <point x="952.0" y="0.0" type="line" smooth="yes"/>
      <point x="945.0" y="0.0"/>
      <point x="941.0" y="3.0"/>
      <point x="941.0" y="10.0" type="curve" smooth="yes"/>
      <point x="908.0" y="657.0" type="line"/>
      <point x="560.0" y="10.0" type="line" smooth="yes"/>
      <point x="556.0" y="3.0"/>
      <point x="552.0" y="0.0"/>
      <point x="545.0" y="0.0" type="curve" smooth="yes"/>
      <point x="159.0" y="0.0" type="line" smooth="yes"/>
      <point x="152.0" y="0.0"/>
      <point x="148.0" y="3.0"/>
      <point x="148.0" y="10.0" type="curve" smooth="yes"/>
      <point x="158.0" y="1390.0" type="line" smooth="yes"/>
      <point x="157.0" y="1396.0"/>
      <point x="160.0" y="1400.0"/>
      <point x="167.0" y="1400.0" type="curve" smooth="yes"/>
      <point x="630.0" y="1400.0" type="line" smooth="yes"/>
      <point x="637.0" y="1400.0"/>
      <point x="639.0" y="1396.0"/>
      <point x="640.0" y="1390.0" type="curve" smooth="yes"/>
    </contour>
  </outline>
</glyph>
<glyph name="X" format="2">
  <advance height="1872" width="1392"/>
  <unicode hex="0058"/>
  <anchor x="612.0" y="0.0" name="bottom"/>
  <anchor x="934.0" y="1400.0" name="top"/>
  <outline>
    <contour>
      <point x="1117.0" y="1400.0" type="curve" smooth="yes"/>
      <point x="1580.0" y="1400.0" type="line" smooth="yes"/>
      <point x="1587.0" y="1400.0"/>
      <point x="1588.0" y="1398.0"/>
      <point x="1581.0" y="1390.0" type="curve" smooth="yes"/>
      <point x="1006.0" y="754.0" type="line"/>
      <point x="1310.0" y="10.0" type="line" smooth="yes"/>
      <point x="1313.0" y="2.0"/>
      <point x="1312.0" y="0.0"/>
      <point x="1305.0" y="0.0" type="curve" smooth="yes"/>
      <point x="721.0" y="0.0" type="line" smooth="yes"/>
      <point x="714.0" y="0.0"/>
      <point x="711.0" y="2.0"/>
      <point x="708.0" y="10.0" type="curve" smooth="yes"/>
      <point x="622.0" y="367.0" type="line"/>
      <point x="330.0" y="10.0" type="line" smooth="yes"/>
      <point x="322.0" y="2.0"/>
      <point x="318.0" y="0.0"/>
      <point x="311.0" y="0.0" type="curve" smooth="yes"/>
      <point x="-152.0" y="0.0" type="line" smooth="yes"/>
      <point x="-159.0" y="0.0"/>
      <point x="-161.0" y="2.0"/>
      <point x="-153.0" y="10.0" type="curve" smooth="yes"/>
      <point x="494.0" y="660.0" type="line"/>
      <point x="195.0" y="1390.0" type="line" smooth="yes"/>
      <point x="192.0" y="1398.0"/>
      <point x="193.0" y="1400.0"/>
      <point x="200.0" y="1400.0" type="curve" smooth="yes"/>
      <point x="793.0" y="1400.0" type="line" smooth="yes"/>
      <point x="801.0" y="1400.0"/>
      <point x="805.0" y="1398.0"/>
      <point x="808.0" y="1390.0" type="curve" smooth="yes"/>
      <point x="860.0" y="1056.0" type="line"/>
      <point x="1098.0" y="1390.0" type="line" smooth="yes"/>
      <point x="1105.0" y="1398.0"/>
      <point x="1110.0" y="1400.0"/>
    </contour>
  </outline>
</glyph>
<glyph name="Y" format="2">
  <advance height="1872" width="1447"/>
  <unicode hex="0059"/>
  <anchor x="630.0" y="0.0" name="bottom"/>
  <anchor x="982.0" y="1400.0" name="top"/>
  <outline>
    <contour>
      <point x="1271.0" y="1400.0" type="curve" smooth="yes"/>
      <point x="1646.0" y="1400.0" type="line" smooth="yes"/>
      <point x="1653.0" y="1400.0"/>
      <point x="1654.0" y="1397.0"/>
      <point x="1648.0" y="1390.0" type="curve" smooth="yes"/>
      <point x="971.0" y="554.0" type="line"/>
      <point x="845.0" y="10.0" type="line" smooth="yes"/>
      <point x="843.0" y="3.0"/>
      <point x="840.0" y="0.0"/>
      <point x="833.0" y="0.0" type="curve" smooth="yes"/>
      <point x="375.0" y="0.0" type="line" smooth="yes"/>
      <point x="368.0" y="0.0"/>
      <point x="365.0" y="3.0"/>
      <point x="367.0" y="10.0" type="curve" smooth="yes"/>
      <point x="493.0" y="554.0" type="line"/>
      <point x="202.0" y="1390.0" type="line" smooth="yes"/>
      <point x="199.0" y="1398.0"/>
      <point x="201.0" y="1400.0"/>
      <point x="208.0" y="1400.0" type="curve" smooth="yes"/>
      <point x="749.0" y="1400.0" type="line" smooth="yes"/>
      <point x="756.0" y="1400.0"/>
      <point x="761.0" y="1397.0"/>
      <point x="763.0" y="1390.0" type="curve" smooth="yes"/>
      <point x="894.0" y="895.0" type="line"/>
      <point x="1253.0" y="1390.0" type="line" smooth="yes"/>
      <point x="1259.0" y="1397.0"/>
      <point x="1264.0" y="1400.0"/>
    </contour>
  </outline>
</glyph>
<glyph name="Z" format="2">
  <advance height="1872" width="1233"/>
  <unicode hex="005A"/>
  <anchor x="548.0" y="0.0" name="bottom"/>
  <anchor x="870.0" y="1400.0" name="top"/>
  <outline>
    <contour>
      <point x="-187.0" y="10.0" type="curve" smooth="yes"/>
      <point x="715.0" y="1059.0" type="line"/>
      <point x="195.0" y="1059.0" type="line" smooth="yes"/>
      <point x="188.0" y="1059.0"/>
      <point x="186.0" y="1061.0"/>
      <point x="188.0" y="1068.0" type="curve" smooth="yes"/>
      <point x="262.0" y="1390.0" type="line" smooth="yes"/>
      <point x="264.0" y="1397.0"/>
      <point x="267.0" y="1400.0"/>
      <point x="274.0" y="1400.0" type="curve" smooth="yes"/>
      <point x="1467.0" y="1400.0" type="line" smooth="yes"/>
      <point x="1474.0" y="1400.0"/>
      <point x="1475.0" y="1398.0"/>
      <point x="1468.0" y="1390.0" type="curve" smooth="yes"/>
      <point x="567.0" y="341.0" type="line"/>
      <point x="1166.0" y="341.0" type="line" smooth="yes"/>
      <point x="1173.0" y="341.0"/>
      <point x="1175.0" y="339.0"/>
      <point x="1173.0" y="332.0" type="curve" smooth="yes"/>
      <point x="1098.0" y="10.0" type="line" smooth="yes"/>
      <point x="1096.0" y="3.0"/>
      <point x="1094.0" y="0.0"/>
      <point x="1087.0" y="0.0" type="curve" smooth="yes"/>
      <point x="-186.0" y="0.0" type="line" smooth="yes"/>
      <point x="-193.0" y="0.0"/>
      <point x="-195.0" y="2.0"/>
    </contour>
  </outline>
</glyph>
<glyph name="bracketleft" format="2">
  <advance height="1920" width="760"/>
  <unicode hex="005B"/>
  <outline>
    <contour>
      <point x="662.0" y="1350.0" type="line"/>
      <point x="325.0" y="-110.0" type="line"/>
      <point x="555.0" y="-110.0" type="line" smooth="yes"/>
      <point x="562.0" y="-110.0"/>
      <point x="564.0" y="-113.0"/>
      <point x="562.0" y="-120.0" type="curve" smooth="yes"/>
      <point x="509.0" y="-350.0" type="line" smooth="yes"/>
      <point x="507.0" y="-357.0"/>
      <point x="504.0" y="-360.0"/>
      <point x="497.0" y="-360.0" type="curve" smooth="yes"/>
      <point x="-123.0" y="-360.0" type="line" smooth="yes"/>
      <point x="-130.0" y="-360.0"/>
      <point x="-133.0" y="-357.0"/>
      <point x="-131.0" y="-350.0" type="curve" smooth="yes"/>
      <point x="317.0" y="1590.0" type="line" smooth="yes"/>
      <point x="319.0" y="1597.0"/>
      <point x="322.0" y="1600.0"/>
      <point x="329.0" y="1600.0" type="curve" smooth="yes"/>
      <point x="949.0" y="1600.0" type="line" smooth="yes"/>
      <point x="956.0" y="1600.0"/>
      <point x="959.0" y="1597.0"/>
      <point x="957.0" y="1590.0" type="curve" smooth="yes"/>
      <point x="904.0" y="1360.0" type="line" smooth="yes"/>
      <point x="902.0" y="1353.0"/>
      <point x="899.0" y="1350.0"/>
      <point x="892.0" y="1350.0" type="curve" smooth="yes"/>
    </contour>
  </outline>
</glyph>
<glyph name="backslash" format="2">
  <advance height="2048" width="1040"/>
  <unicode hex="005C"/>
  <outline>
    <contour>
      <point x="880.0" y="-90.0" type="line" smooth="yes"/>
      <point x="882.0" y="-99.0"/>
      <point x="879.0" y="-100.0"/>
      <point x="872.0" y="-100.0" type="curve" smooth="yes"/>
      <point x="532.0" y="-100.0" type="line" smooth="yes"/>
      <point x="526.0" y="-100.0"/>
      <point x="522.0" y="-99.0"/>
      <point x="520.0" y="-90.0" type="curve" smooth="yes"/>
      <point x="245.0" y="1390.0" type="line" smooth="yes"/>
      <point x="243.0" y="1399.0"/>
      <point x="246.0" y="1400.0"/>
      <point x="253.0" y="1400.0" type="curve" smooth="yes"/>
      <point x="593.0" y="1400.0" type="line" smooth="yes"/>
      <point x="600.0" y="1400.0"/>
      <point x="603.0" y="1399.0"/>
      <point x="605.0" y="1390.0" type="curve" smooth="yes"/>
    </contour>
  </outline>
</glyph>
<glyph name="bracketright" format="2">
  <advance height="1920" width="750"/>
  <unicode hex="005D"/>
  <outline>
    <contour>
      <point x="145.0" y="-110.0" type="line"/>
      <point x="482.0" y="1350.0" type="line"/>
      <point x="252.0" y="1350.0" type="line" smooth="yes"/>
      <point x="245.0" y="1350.0"/>
      <point x="242.0" y="1353.0"/>
      <point x="244.0" y="1360.0" type="curve" smooth="yes"/>
      <point x="297.0" y="1590.0" type="line" smooth="yes"/>
      <point x="299.0" y="1597.0"/>
      <point x="302.0" y="1600.0"/>
      <point x="309.0" y="1600.0" type="curve" smooth="yes"/>
      <point x="919.0" y="1600.0" type="line" smooth="yes"/>
      <point x="926.0" y="1600.0"/>
      <point x="929.0" y="1597.0"/>
      <point x="927.0" y="1590.0" type="curve" smooth="yes"/>
      <point x="479.0" y="-350.0" type="line" smooth="yes"/>
      <point x="477.0" y="-357.0"/>
      <point x="474.0" y="-360.0"/>
      <point x="467.0" y="-360.0" type="curve" smooth="yes"/>
      <point x="-143.0" y="-360.0" type="line" smooth="yes"/>
      <point x="-150.0" y="-360.0"/>
      <point x="-153.0" y="-357.0"/>
      <point x="-151.0" y="-350.0" type="curve" smooth="yes"/>
      <point x="-98.0" y="-120.0" type="line" smooth="yes"/>
      <point x="-96.0" y="-113.0"/>
      <point x="-92.0" y="-110.0"/>
      <point x="-85.0" y="-110.0" type="curve" smooth="yes"/>
    </contour>
  </outline>
</glyph>
<glyph name="asciicircum" format="2">
  <advance height="1920" width="820"/>
  <unicode hex="005E"/>
  <outline>
    <contour>
      <point x="519.0" y="991.0" type="line"/>
      <point x="405.0" y="740.0" type="line" smooth="yes"/>
      <point x="402.0" y="734.0"/>
      <point x="396.0" y="730.0"/>
      <point x="389.0" y="730.0" type="curve" smooth="yes"/>
      <point x="19.0" y="730.0" type="line" smooth="yes"/>
      <point x="12.0" y="730.0"/>
      <point x="11.0" y="734.0"/>
      <point x="15.0" y="740.0" type="curve" smooth="yes"/>
      <point x="437.0" y="1390.0" type="line" smooth="yes"/>
      <point x="443.0" y="1399.0"/>
      <point x="446.0" y="1400.0"/>
      <point x="453.0" y="1400.0" type="curve" smooth="yes"/>
      <point x="773.0" y="1400.0" type="line" smooth="yes"/>
      <point x="780.0" y="1400.0"/>
      <point x="783.0" y="1399.0"/>
      <point x="785.0" y="1390.0" type="curve" smooth="yes"/>
      <point x="907.0" y="740.0" type="line" smooth="yes"/>
      <point x="909.0" y="734.0"/>
      <point x="911.0" y="730.0"/>
      <point x="899.0" y="730.0" type="curve" smooth="yes"/>
      <point x="529.0" y="730.0" type="line" smooth="yes"/>
      <point x="519.0" y="730.0"/>
      <point x="518.0" y="734.0"/>
      <point x="517.0" y="740.0" type="curve" smooth="yes"/>
    </contour>
  </outline>
</glyph>
<glyph name="underscore" format="2">
  <advance height="1920" width="900"/>
  <unicode hex="005F"/>
  <outline>
    <contour>
      <point x="-200.0" y="-345.0" type="curve" smooth="yes"/>
      <point x="-122.0" y="-10.0" type="line" smooth="yes"/>
      <point x="-120.0" y="-3.0"/>
      <point x="-117.0" y="0.0"/>
      <point x="-110.0" y="0.0" type="curve" smooth="yes"/>
      <point x="770.0" y="0.0" type="line" smooth="yes"/>
      <point x="777.0" y="0.0"/>
      <point x="780.0" y="-3.0"/>
      <point x="778.0" y="-10.0" type="curve" smooth="yes"/>
      <point x="700.0" y="-345.0" type="line" smooth="yes"/>
      <point x="698.0" y="-352.0"/>
      <point x="695.0" y="-355.0"/>
      <point x="688.0" y="-355.0" type="curve" smooth="yes"/>
      <point x="-192.0" y="-355.0" type="line" smooth="yes"/>
      <point x="-199.0" y="-355.0"/>
      <point x="-202.0" y="-352.0"/>
    </contour>
  </outline>
</glyph>
<glyph name="grave" format="2">
  <advance width="773"/>
  <unicode hex="0060"/>
  <outline>
    <contour>
      <point x="841.0" y="1104.0" type="curve" smooth="yes"/>
      <point x="591.0" y="1104.0" type="line" smooth="yes"/>
      <point x="584.0" y="1104.0"/>
      <point x="577.0" y="1109.0"/>
      <point x="573.0" y="1114.0" type="curve" smooth="yes"/>
      <point x="262.0" y="1390.0" type="line" smooth="yes"/>
      <point x="258.0" y="1395.0"/>
      <point x="257.0" y="1400.0"/>
      <point x="264.0" y="1400.0" type="curve" smooth="yes"/>
      <point x="824.0" y="1400.0" type="line" smooth="yes"/>
      <point x="831.0" y="1400.0"/>
      <point x="836.0" y="1397.0"/>
      <point x="838.0" y="1390.0" type="curve" smooth="yes"/>
      <point x="847.0" y="1114.0" type="line" smooth="yes"/>
      <point x="849.0" y="1107.0"/>
      <point x="848.0" y="1104.0"/>
    </contour>
  </outline>
</glyph>
<glyph name="a" format="2">
  <advance height="1872" width="1273"/>
  <unicode hex="0061"/>
  <anchor x="511.0" y="0.0" name="bottom"/>
  <anchor x="916.0" y="0.0" name="ogonek"/>
  <anchor x="782.0" y="1050.0" name="top"/>
  <outline>
    <contour>
      <point x="691.0" y="408.0" type="line"/>
      <point x="626.0" y="125.0"/>
      <point x="547.0" y="-34.0"/>
      <point x="308.0" y="-34.0" type="curve" smooth="yes"/>
      <point x="59.0" y="-34.0"/>
      <point x="-71.0" y="104.0"/>
      <point x="6.0" y="436.0" type="curve" smooth="yes"/>
      <point x="47.0" y="614.0" type="line" smooth="yes"/>
      <point x="119.0" y="926.0"/>
      <point x="295.0" y="1084.0"/>
      <point x="594.0" y="1084.0" type="curve" smooth="yes"/>
      <point x="863.0" y="1084.0"/>
      <point x="885.0" y="926.0"/>
      <point x="820.0" y="643.0" type="curve"/>
      <point x="721.0" y="575.0" type="line"/>
      <point x="752.0" y="711.0"/>
      <point x="729.0" y="753.0"/>
      <point x="665.0" y="753.0" type="curve" smooth="yes"/>
      <point x="591.0" y="753.0"/>
      <point x="545.0" y="702.0"/>
      <point x="520.0" y="595.0" type="curve" smooth="yes"/>
      <point x="488.0" y="455.0" type="line" smooth="yes"/>
      <point x="463.0" y="348.0"/>
      <point x="486.0" y="297.0"/>
      <point x="560.0" y="297.0" type="curve" smooth="yes"/>
      <point x="624.0" y="297.0"/>
      <point x="673.0" y="368.0"/>
      <point x="698.0" y="475.0" type="curve"/>
    </contour>
    <contour>
      <point x="1203.0" y="252.0" type="curve" smooth="yes"/>
      <point x="1147.0" y="10.0" type="line" smooth="yes"/>
      <point x="1145.0" y="3.0"/>
      <point x="1143.0" y="1.0"/>
      <point x="1136.0" y="-1.0" type="curve" smooth="yes"/>
      <point x="749.0" y="-97.0"/>
      <point x="598.0" y="43.0"/>
      <point x="667.0" y="343.0" type="curve" smooth="yes"/>
      <point x="757.0" y="733.0" type="line"/>
      <point x="1172.0" y="1074.0" type="line" smooth="yes"/>
      <point x="1181.0" y="1081.0"/>
      <point x="1194.0" y="1084.0"/>
      <point x="1201.0" y="1084.0" type="curve" smooth="yes"/>
      <point x="1306.0" y="1084.0" type="line" smooth="yes"/>
      <point x="1313.0" y="1084.0"/>
      <point x="1316.0" y="1081.0"/>
      <point x="1314.0" y="1074.0" type="curve" smooth="yes"/>
      <point x="1152.0" y="371.0" type="line" smooth="yes"/>
      <point x="1128.0" y="266.0"/>
      <point x="1159.0" y="263.0"/>
      <point x="1196.0" y="261.0" type="curve" smooth="yes"/>
      <point x="1202.0" y="261.0"/>
      <point x="1205.0" y="259.0"/>
    </contour>
  </outline>
</glyph>
<glyph name="b" format="2">
  <advance height="1872" width="1278"/>
  <unicode hex="0062"/>
  <outline>
    <contour>
      <point x="273.0" y="1450.0" type="curve" smooth="yes"/>
      <point x="732.0" y="1450.0" type="line" smooth="yes"/>
      <point x="739.0" y="1450.0"/>
      <point x="740.0" y="1447.0"/>
      <point x="738.0" y="1440.0" type="curve" smooth="yes"/>
      <point x="479.0" y="317.0" type="line"/>
      <point x="65.0" y="-24.0" type="line" smooth="yes"/>
      <point x="56.0" y="-31.0"/>
      <point x="43.0" y="-34.0"/>
      <point x="36.0" y="-34.0" type="curve" smooth="yes"/>
      <point x="-70.0" y="-34.0" type="line" smooth="yes"/>
      <point x="-77.0" y="-34.0"/>
      <point x="-79.0" y="-31.0"/>
      <point x="-77.0" y="-24.0" type="curve" smooth="yes"/>
      <point x="261.0" y="1440.0" type="line" smooth="yes"/>
      <point x="263.0" y="1447.0"/>
      <point x="266.0" y="1450.0"/>
    </contour>
    <contour>
      <point x="536.0" y="641.0" type="line"/>
      <point x="601.0" y="924.0"/>
      <point x="702.0" y="1084.0"/>
      <point x="951.0" y="1084.0" type="curve" smooth="yes"/>
      <point x="1210.0" y="1084.0"/>
      <point x="1353.0" y="946.0"/>
      <point x="1276.0" y="614.0" type="curve" smooth="yes"/>
      <point x="1235.0" y="436.0" type="line" smooth="yes"/>
      <point x="1163.0" y="124.0"/>
      <point x="973.0" y="-34.0"/>
      <point x="664.0" y="-34.0" type="curve" smooth="yes"/>
      <point x="385.0" y="-34.0"/>
      <point x="332.0" y="124.0"/>
      <point x="397.0" y="407.0" type="curve"/>
      <point x="516.0" y="475.0" type="line"/>
      <point x="485.0" y="339.0"/>
      <point x="521.0" y="297.0"/>
      <point x="595.0" y="297.0" type="curve" smooth="yes"/>
      <point x="679.0" y="297.0"/>
      <point x="736.0" y="348.0"/>
      <point x="761.0" y="455.0" type="curve" smooth="yes"/>
      <point x="793.0" y="595.0" type="line" smooth="yes"/>
      <point x="818.0" y="702.0"/>
      <point x="784.0" y="753.0"/>
      <point x="700.0" y="753.0" type="curve" smooth="yes"/>
      <point x="626.0" y="753.0"/>
      <point x="564.0" y="682.0"/>
      <point x="539.0" y="575.0" type="curve"/>
    </contour>
  </outline>
</glyph>
<glyph name="c" format="2">
  <advance height="1872" width="1097"/>
  <unicode hex="0063"/>
  <anchor x="520.0" y="0.0" name="bottom"/>
  <anchor x="756.0" y="1050.0" name="top"/>
  <outline>
    <contour>
      <point x="1061.0" y="430.0" type="curve" smooth="yes"/>
      <point x="1042.0" y="364.0"/>
      <point x="1014.0" y="298.0"/>
      <point x="978.0" y="242.0" type="curve" smooth="yes"/>
      <point x="873.0" y="77.0"/>
      <point x="722.0" y="-34.0"/>
      <point x="465.0" y="-34.0" type="curve" smooth="yes"/>
      <point x="97.0" y="-34.0"/>
      <point x="-61.0" y="147.0"/>
      <point x="6.0" y="437.0" type="curve" smooth="yes"/>
      <point x="47.0" y="614.0" type="line" smooth="yes"/>
      <point x="114.0" y="904.0"/>
      <point x="300.0" y="1084.0"/>
      <point x="668.0" y="1084.0" type="curve" smooth="yes"/>
      <point x="930.0" y="1084.0"/>
      <point x="1106.0" y="990.0"/>
      <point x="1106.0" y="807.0" type="curve" smooth="yes"/>
      <point x="1106.0" y="752.54818644"/>
      <point x="1099.0" y="689.0"/>
      <point x="1076.0" y="621.0" type="curve" smooth="yes"/>
      <point x="1074.36625437" y="616.16979553"/>
      <point x="1072.0" y="613.0"/>
      <point x="1065.0" y="613.0" type="curve" smooth="yes"/>
      <point x="783.0" y="613.0" type="line" smooth="yes"/>
      <point x="776.0" y="613.0"/>
      <point x="771.198598813" y="616.291232851"/>
      <point x="773.0" y="620.0" type="curve" smooth="yes"/>
      <point x="790.0" y="655.0"/>
      <point x="798.0" y="683.668949879"/>
      <point x="798.0" y="708.0" type="curve" smooth="yes"/>
      <point x="798.0" y="766.0"/>
      <point x="747.0" y="799.0"/>
      <point x="687.0" y="799.0" type="curve" smooth="yes"/>
      <point x="606.0" y="799.0"/>
      <point x="554.0" y="738.0"/>
      <point x="520.0" y="592.0" type="curve" smooth="yes"/>
      <point x="489.0" y="459.0" type="line" smooth="yes"/>
      <point x="457.0" y="320.0"/>
      <point x="489.0" y="251.0"/>
      <point x="575.0" y="251.0" type="curve" smooth="yes"/>
      <point x="628.0" y="251.0"/>
      <point x="678.0" y="281.0"/>
      <point x="713.0" y="330.0" type="curve" smooth="yes"/>
      <point x="733.0" y="358.0"/>
      <point x="750.0" y="393.0"/>
      <point x="760.0" y="431.0" type="curve" smooth="yes"/>
      <point x="761.0" y="435.0"/>
      <point x="764.0" y="438.0"/>
      <point x="771.0" y="438.0" type="curve" smooth="yes"/>
      <point x="1054.0" y="438.0" type="line" smooth="yes"/>
      <point x="1061.0" y="438.0"/>
      <point x="1062.0" y="435.0"/>
    </contour>
  </outline>
</glyph>
<glyph name="d" format="2">
  <advance height="1872" width="1278"/>
  <unicode hex="0064"/>
  <outline>
    <contour>
      <point x="745.0" y="408.0" type="line"/>
      <point x="680.0" y="125.0"/>
      <point x="579.0" y="-34.0"/>
      <point x="330.0" y="-34.0" type="curve" smooth="yes"/>
      <point x="71.0" y="-34.0"/>
      <point x="-71.0" y="104.0"/>
      <point x="6.0" y="436.0" type="curve" smooth="yes"/>
      <point x="47.0" y="614.0" type="line" smooth="yes"/>
      <point x="124.0" y="946.0"/>
      <point x="269.0" y="1084.0"/>
      <point x="528.0" y="1084.0" type="curve" smooth="yes"/>
      <point x="777.0" y="1084.0"/>
      <point x="864.0" y="925.0"/>
      <point x="799.0" y="642.0" type="curve"/>
      <point x="765.0" y="575.0" type="line"/>
      <point x="790.0" y="682.0"/>
      <point x="761.0" y="753.0"/>
      <point x="687.0" y="753.0" type="curve" smooth="yes"/>
      <point x="603.0" y="753.0"/>
      <point x="545.0" y="702.0"/>
      <point x="520.0" y="595.0" type="curve" smooth="yes"/>
      <point x="488.0" y="455.0" type="line" smooth="yes"/>
      <point x="463.0" y="348.0"/>
      <point x="498.0" y="297.0"/>
      <point x="582.0" y="297.0" type="curve" smooth="yes"/>
      <point x="656.0" y="297.0"/>
      <point x="717.0" y="368.0"/>
      <point x="742.0" y="475.0" type="curve"/>
    </contour>
    <contour>
      <point x="1442.0" y="1440.0" type="curve" smooth="yes"/>
      <point x="1112.0" y="10.0" type="line" smooth="yes"/>
      <point x="1110.0" y="3.0"/>
      <point x="1107.0" y="0.0"/>
      <point x="1100.0" y="0.0" type="curve" smooth="yes"/>
      <point x="657.0" y="0.0" type="line" smooth="yes"/>
      <point x="650.0" y="0.0"/>
      <point x="647.0" y="3.0"/>
      <point x="649.0" y="10.0" type="curve" smooth="yes"/>
      <point x="696.0" y="214.0" type="line"/>
      <point x="689.0" y="246.0" type="line"/>
      <point x="964.0" y="1440.0" type="line" smooth="yes"/>
      <point x="966.0" y="1447.0"/>
      <point x="970.0" y="1450.0"/>
      <point x="977.0" y="1450.0" type="curve" smooth="yes"/>
      <point x="1435.0" y="1450.0" type="line" smooth="yes"/>
      <point x="1442.0" y="1450.0"/>
      <point x="1444.0" y="1447.0"/>
    </contour>
  </outline>
</glyph>
<glyph name="e" format="2">
  <advance height="1872" width="1223"/>
  <unicode hex="0065"/>
  <anchor x="513.0" y="0.0" name="bottom"/>
  <anchor x="733.0" y="60.0" name="ogonek"/>
  <anchor x="736.0" y="1050.0" name="top"/>
  <outline>
    <contour>
      <point x="1156.0" y="333.0" type="curve" smooth="yes"/>
      <point x="1130.0" y="273.0"/>
      <point x="1096.0" y="222.0"/>
      <point x="1054.0" y="176.0" type="curve" smooth="yes"/>
      <point x="928.0" y="39.0"/>
      <point x="759.0" y="-34.0"/>
      <point x="516.0" y="-34.0" type="curve" smooth="yes"/>
      <point x="156.0" y="-34.0"/>
      <point x="-64.0" y="134.0"/>
      <point x="6.0" y="439.0" type="curve" smooth="yes"/>
      <point x="46.0" y="612.0" type="line" smooth="yes"/>
      <point x="114.0" y="907.0"/>
      <point x="353.0" y="1084.0"/>
      <point x="721.0" y="1084.0" type="curve" smooth="yes"/>
      <point x="1079.0" y="1084.0"/>
      <point x="1264.0" y="893.0"/>
      <point x="1227.0" y="631.0" type="curve" smooth="yes"/>
      <point x="1216.0" y="558.0"/>
      <point x="1212.0" y="531.0"/>
      <point x="1192.0" y="445.0" type="curve" smooth="yes"/>
      <point x="1191.0" y="440.0"/>
      <point x="1187.0" y="437.0"/>
      <point x="1180.0" y="437.0" type="curve" smooth="yes"/>
      <point x="273.0" y="437.0" type="line"/>
      <point x="311.0" y="603.0" type="line"/>
      <point x="756.0" y="603.0" type="line"/>
      <point x="786.0" y="755.0"/>
      <point x="755.0" y="811.0"/>
      <point x="684.0" y="811.0" type="curve" smooth="yes"/>
      <point x="619.0" y="811.0"/>
      <point x="558.0" y="760.0"/>
      <point x="531.0" y="643.0" type="curve" smooth="yes"/>
      <point x="477.0" y="408.0" type="line" smooth="yes"/>
      <point x="443.0" y="262.0"/>
      <point x="482.0" y="239.0"/>
      <point x="556.0" y="239.0" type="curve" smooth="yes"/>
      <point x="635.0" y="239.0"/>
      <point x="674.0" y="269.0"/>
      <point x="700.0" y="336.0" type="curve" smooth="yes"/>
      <point x="702.0" y="340.0"/>
      <point x="704.0" y="342.0"/>
      <point x="711.0" y="342.0" type="curve" smooth="yes"/>
      <point x="1150.0" y="342.0" type="line" smooth="yes"/>
      <point x="1157.0" y="342.0"/>
      <point x="1158.0" y="339.0"/>
    </contour>
  </outline>
</glyph>
<glyph name="f" format="2">
  <advance height="1872" width="748"/>
  <unicode hex="0066"/>
  <outline>
    <contour>
      <point x="797.0" y="816.0" type="curve" smooth="yes"/>
      <point x="87.0" y="816.0" type="line" smooth="yes"/>
      <point x="80.0" y="816.0"/>
      <point x="78.0" y="819.0"/>
      <point x="80.0" y="826.0" type="curve" smooth="yes"/>
      <point x="129.0" y="1040.0" type="line" smooth="yes"/>
      <point x="131.0" y="1047.0"/>
      <point x="134.0" y="1050.0"/>
      <point x="141.0" y="1050.0" type="curve" smooth="yes"/>
      <point x="851.0" y="1050.0" type="line" smooth="yes"/>
      <point x="858.0" y="1050.0"/>
      <point x="861.0" y="1047.0"/>
      <point x="859.0" y="1040.0" type="curve" smooth="yes"/>
      <point x="810.0" y="826.0" type="line" smooth="yes"/>
      <point x="808.0" y="819.0"/>
      <point x="804.0" y="816.0"/>
    </contour>
    <contour>
      <point x="281.0" y="1188.0" type="line" smooth="yes"/>
      <point x="348.635459759" y="1480.20038514"/>
      <point x="715.0" y="1529.0"/>
      <point x="996.0" y="1421.0" type="curve" smooth="yes"/>
      <point x="1004.45214844" y="1417.75097656"/>
      <point x="1008.36523438" y="1412.71582031"/>
      <point x="1006.0" y="1407.0" type="curve" smooth="yes"/>
      <point x="956.0" y="1210.0" type="line" smooth="yes"/>
      <point x="953.098632812" y="1202.98730469"/>
      <point x="945.413085938" y="1196.69628906"/>
      <point x="934.0" y="1203.0" type="curve" smooth="yes"/>
      <point x="762.0" y="1298.0"/>
      <point x="751.776367188" y="1182.80761719"/>
      <point x="723.0" y="1058.0" type="curve" smooth="yes"/>
      <point x="397.0" y="-350.0" type="line" smooth="yes"/>
      <point x="395.416992188" y="-356.865234375"/>
      <point x="392.0" y="-360.0"/>
      <point x="385.0" y="-360.0" type="curve" smooth="yes"/>
      <point x="-67.0" y="-360.0" type="line" smooth="yes"/>
      <point x="-74.0" y="-360.0"/>
      <point x="-76.5845892524" y="-356.86506555"/>
      <point x="-75.0" y="-350.0" type="curve" smooth="yes"/>
    </contour>
  </outline>
</glyph>
<glyph name="g" format="2">
  <advance height="1872" width="1234"/>
  <unicode hex="0067"/>
  <anchor x="729.0" y="1100.0" name="top"/>
  <outline>
    <contour>
      <point x="1427.0" y="1250.0" type="curve" smooth="yes"/>
      <point x="1369.0" y="1061.0"/>
      <point x="1168.0" y="1043.0"/>
      <point x="837.0" y="1043.0" type="curve"/>
      <point x="814.0" y="1072.0" type="line"/>
      <point x="872.0" y="1072.0"/>
      <point x="944.0" y="1131.0"/>
      <point x="998.0" y="1251.0" type="curve" smooth="yes"/>
      <point x="1000.5953741" y="1256.76749801"/>
      <point x="1004.0" y="1260.0"/>
      <point x="1011.0" y="1260.0" type="curve" smooth="yes"/>
      <point x="1420.0" y="1260.0" type="line" smooth="yes"/>
      <point x="1427.0" y="1260.0"/>
      <point x="1430.0" y="1257.0"/>
    </contour>
    <contour>
      <point x="757.0" y="332.0" type="line" smooth="yes"/>
      <point x="1068.0" y="332.0"/>
      <point x="1183.0" y="175.0"/>
      <point x="1133.0" y="-41.0" type="curve" smooth="yes"/>
      <point x="1079.0" y="-276.0"/>
      <point x="850.0" y="-360.0"/>
      <point x="470.0" y="-360.0" type="curve" smooth="yes"/>
      <point x="252.0" y="-360.0" type="line" smooth="yes"/>
      <point x="-69.0" y="-360.0"/>
      <point x="-203.0" y="-263.0"/>
      <point x="-167.0" y="-107.0" type="curve" smooth="yes"/>
      <point x="-140.0" y="9.0"/>
      <point x="46.0" y="36.0"/>
      <point x="348.0" y="36.0" type="curve"/>
      <point x="413.0" y="8.0" type="line"/>
      <point x="397.0" y="8.0"/>
      <point x="312.0" y="-9.0"/>
      <point x="298.0" y="-68.0" type="curve" smooth="yes"/>
      <point x="282.0" y="-136.0"/>
      <point x="318.0" y="-165.0"/>
      <point x="434.0" y="-165.0" type="curve" smooth="yes"/>
      <point x="448.0" y="-165.0" type="line" smooth="yes"/>
      <point x="564.0" y="-165.0"/>
      <point x="649.0" y="-136.0"/>
      <point x="663.0" y="-77.0" type="curve" smooth="yes"/>
      <point x="674.0" y="-28.0"/>
      <point x="649.0" y="0.0"/>
      <point x="571.0" y="0.0" type="curve" smooth="yes"/>
      <point x="286.0" y="0.0" type="line" smooth="yes"/>
      <point x="53.0" y="0.0"/>
      <point x="-103.691307338" y="120.677326766"/>
      <point x="-45.0" y="298.0" type="curve" smooth="yes"/>
      <point x="2.0" y="440.0"/>
      <point x="179.0" y="502.0"/>
      <point x="413.0" y="502.0" type="curve"/>
      <point x="401.0" y="484.0" type="line"/>
      <point x="343.0" y="484.0"/>
      <point x="293.0" y="452.0"/>
      <point x="282.0" y="406.0" type="curve" smooth="yes"/>
      <point x="270.0" y="354.0"/>
      <point x="459.0" y="332.0"/>
      <point x="586.0" y="332.0" type="curve" smooth="yes"/>
    </contour>
    <contour>
      <point x="791.0" y="726.0" type="curve" smooth="yes"/>
      <point x="798.0" y="756.0" type="line" smooth="yes"/>
      <point x="808.0" y="801.0"/>
      <point x="794.0" y="840.0"/>
      <point x="725.0" y="840.0" type="curve" smooth="yes"/>
      <point x="659.0" y="840.0"/>
      <point x="626.0" y="804.0"/>
      <point x="615.0" y="756.0" type="curve" smooth="yes"/>
      <point x="608.0" y="726.0" type="line" smooth="yes"/>
      <point x="599.0" y="688.0"/>
      <point x="613.0" y="640.0"/>
      <point x="679.0" y="640.0" type="curve" smooth="yes"/>
      <point x="748.0" y="640.0"/>
      <point x="780.0" y="680.0"/>
    </contour>
    <contour>
      <point x="1249.0" y="710.0" type="line" smooth="yes"/>
      <point x="1205.0" y="521.0"/>
      <point x="1011.0" y="397.0"/>
      <point x="653.0" y="397.0" type="curve" smooth="yes"/>
      <point x="295.0" y="397.0"/>
      <point x="107.0" y="561.0"/>
      <point x="151.0" y="750.0" type="curve" smooth="yes"/>
      <point x="156.0" y="774.0" type="line" smooth="yes"/>
      <point x="200.0" y="963.0"/>
      <point x="393.0" y="1084.0"/>
      <point x="751.0" y="1084.0" type="curve" smooth="yes"/>
      <point x="1109.0" y="1084.0"/>
      <point x="1298.0" y="923.0"/>
      <point x="1254.0" y="734.0" type="curve" smooth="yes"/>
    </contour>
  </outline>
</glyph>
<glyph name="h" format="2">
  <advance height="1872" width="1221"/>
  <unicode hex="0068"/>
  <anchor x="509.0" y="0.0" name="bottom"/>
  <anchor x="507.0" y="1450.0" name="top"/>
  <outline>
    <contour>
      <point x="273.0" y="1450.0" type="curve" smooth="yes"/>
      <point x="732.0" y="1450.0" type="line" smooth="yes"/>
      <point x="739.0" y="1450.0"/>
      <point x="740.0" y="1447.0"/>
      <point x="738.0" y="1440.0" type="curve" smooth="yes"/>
      <point x="408.0" y="10.0" type="line" smooth="yes"/>
      <point x="406.0" y="3.0"/>
      <point x="403.0" y="0.0"/>
      <point x="397.0" y="0.0" type="curve" smooth="yes"/>
      <point x="-62.0" y="0.0" type="line" smooth="yes"/>
      <point x="-69.0" y="0.0"/>
      <point x="-71.0" y="3.0"/>
      <point x="-69.0" y="10.0" type="curve" smooth="yes"/>
      <point x="261.0" y="1440.0" type="line" smooth="yes"/>
      <point x="263.0" y="1447.0"/>
      <point x="266.0" y="1450.0"/>
    </contour>
    <contour>
      <point x="552.0" y="712.0" type="line"/>
      <point x="606.0" y="946.0"/>
      <point x="731.0" y="1084.0"/>
      <point x="942.0" y="1084.0" type="curve" smooth="yes"/>
      <point x="1163.0" y="1084.0"/>
      <point x="1282.0" y="975.0"/>
      <point x="1212.0" y="673.0" type="curve" smooth="yes"/>
      <point x="1059.0" y="10.0" type="line" smooth="yes"/>
      <point x="1057.0" y="3.0"/>
      <point x="1055.0" y="0.0"/>
      <point x="1048.0" y="0.0" type="curve" smooth="yes"/>
      <point x="589.0" y="0.0" type="line" smooth="yes"/>
      <point x="582.0" y="0.0"/>
      <point x="580.0" y="3.0"/>
      <point x="582.0" y="10.0" type="curve" smooth="yes"/>
      <point x="724.0" y="624.0" type="line" smooth="yes"/>
      <point x="747.0" y="722.0"/>
      <point x="739.0" y="762.0"/>
      <point x="684.0" y="762.0" type="curve" smooth="yes"/>
      <point x="629.0" y="762.0"/>
      <point x="565.0" y="692.0"/>
      <point x="518.0" y="487.0" type="curve"/>
    </contour>
  </outline>
</glyph>
<glyph name="i" format="2">
  <advance height="1872" width="575"/>
  <unicode hex="0069"/>
  <anchor x="176.0" y="0.0" name="bottom"/>
  <anchor x="176.0" y="0.0" name="ogonek"/>
  <outline>
    <contour>
      <point x="684.0" y="1499.0" type="curve" smooth="yes"/>
      <point x="608.0" y="1170.0" type="line" smooth="yes"/>
      <point x="606.0" y="1163.0"/>
      <point x="603.0" y="1160.0"/>
      <point x="596.0" y="1160.0" type="curve" smooth="yes"/>
      <point x="275.0" y="1160.0" type="line" smooth="yes"/>
      <point x="268.0" y="1160.0"/>
      <point x="266.0" y="1163.0"/>
      <point x="268.0" y="1170.0" type="curve" smooth="yes"/>
      <point x="344.0" y="1499.0" type="line" smooth="yes"/>
      <point x="346.0" y="1506.0"/>
      <point x="348.0" y="1509.0"/>
      <point x="355.0" y="1509.0" type="curve" smooth="yes"/>
      <point x="676.0" y="1509.0" type="line" smooth="yes"/>
      <point x="683.0" y="1509.0"/>
      <point x="686.0" y="1506.0"/>
    </contour>
    <contour>
      <point x="646.0" y="1040.0" type="curve" smooth="yes"/>
      <point x="408.0" y="10.0" type="line" smooth="yes"/>
      <point x="406.0" y="3.0"/>
      <point x="404.0" y="0.0"/>
      <point x="397.0" y="0.0" type="curve" smooth="yes"/>
      <point x="-62.0" y="0.0" type="line" smooth="yes"/>
      <point x="-69.0" y="0.0"/>
      <point x="-71.0" y="3.0"/>
      <point x="-69.0" y="10.0" type="curve" smooth="yes"/>
      <point x="169.0" y="1040.0" type="line" smooth="yes"/>
      <point x="171.0" y="1047.0"/>
      <point x="173.0" y="1050.0"/>
      <point x="180.0" y="1050.0" type="curve" smooth="yes"/>
      <point x="639.0" y="1050.0" type="line" smooth="yes"/>
      <point x="646.0" y="1050.0"/>
      <point x="648.0" y="1047.0"/>
    </contour>
  </outline>
</glyph>
<glyph name="j" format="2">
  <advance height="1872" width="575"/>
  <unicode hex="006A"/>
  <outline>
    <contour>
      <point x="387.0" y="-55.0" type="line" smooth="yes"/>
      <point x="310.765625" y="-383.3203125"/>
      <point x="100.0" y="-430.0"/>
      <point x="-84.0" y="-430.0" type="curve" smooth="yes"/>
      <point x="-433.0" y="-430.0"/>
      <point x="-479.0" y="-239.0"/>
      <point x="-418.0" y="-96.0" type="curve" smooth="yes"/>
      <point x="-416.0" y="-91.0"/>
      <point x="-411.0" y="-89.0"/>
      <point x="-404.0" y="-89.0" type="curve" smooth="yes"/>
      <point x="-203.0" y="-89.0" type="line" smooth="yes"/>
      <point x="-196.0" y="-89.0"/>
      <point x="-196.0" y="-92.0"/>
      <point x="-197.0" y="-96.0" type="curve" smooth="yes"/>
      <point x="-210.0" y="-136.0"/>
      <point x="-201.0" y="-156.0"/>
      <point x="-162.0" y="-156.0" type="curve" smooth="yes"/>
      <point x="-114.0" y="-156.0"/>
      <point x="-90.0" y="-84.0"/>
      <point x="-66.0" y="21.0" type="curve" smooth="yes"/>
      <point x="169.0" y="1040.0" type="line" smooth="yes"/>
      <point x="171.0" y="1047.0"/>
      <point x="173.0" y="1050.0"/>
      <point x="180.0" y="1050.0" type="curve" smooth="yes"/>
      <point x="634.0" y="1050.0" type="line" smooth="yes"/>
      <point x="641.0" y="1050.0"/>
      <point x="642.64453125" y="1047.08105469"/>
      <point x="641.0" y="1040.0" type="curve" smooth="yes"/>
    </contour>
    <contour>
      <point x="684.0" y="1499.0" type="curve" smooth="yes"/>
      <point x="608.0" y="1170.0" type="line" smooth="yes"/>
      <point x="606.0" y="1163.0"/>
      <point x="603.0" y="1160.0"/>
      <point x="596.0" y="1160.0" type="curve" smooth="yes"/>
      <point x="275.0" y="1160.0" type="line" smooth="yes"/>
      <point x="268.0" y="1160.0"/>
      <point x="266.0" y="1163.0"/>
      <point x="268.0" y="1170.0" type="curve" smooth="yes"/>
      <point x="344.0" y="1499.0" type="line" smooth="yes"/>
      <point x="346.0" y="1506.0"/>
      <point x="348.0" y="1509.0"/>
      <point x="355.0" y="1509.0" type="curve" smooth="yes"/>
      <point x="676.0" y="1509.0" type="line" smooth="yes"/>
      <point x="683.0" y="1509.0"/>
      <point x="686.0" y="1506.0"/>
    </contour>
  </outline>
</glyph>
<glyph name="l" format="2">
  <advance height="1872" width="575"/>
  <unicode hex="006C"/>
  <outline>
    <contour>
      <point x="273.0" y="1450.0" type="curve" smooth="yes"/>
      <point x="732.0" y="1450.0" type="line" smooth="yes"/>
      <point x="739.0" y="1450.0"/>
      <point x="740.0" y="1447.0"/>
      <point x="738.0" y="1440.0" type="curve" smooth="yes"/>
      <point x="408.0" y="10.0" type="line" smooth="yes"/>
      <point x="406.0" y="3.0"/>
      <point x="403.0" y="0.0"/>
      <point x="397.0" y="0.0" type="curve" smooth="yes"/>
      <point x="-62.0" y="0.0" type="line" smooth="yes"/>
      <point x="-69.0" y="0.0"/>
      <point x="-71.0" y="3.0"/>
      <point x="-69.0" y="10.0" type="curve" smooth="yes"/>
      <point x="261.0" y="1440.0" type="line" smooth="yes"/>
      <point x="263.0" y="1447.0"/>
      <point x="266.0" y="1450.0"/>
    </contour>
  </outline>
</glyph>
<glyph name="m" format="2">
  <advance height="1872" width="1583"/>
  <unicode hex="006D"/>
  <outline>
    <contour>
      <point x="990.0" y="712.0" type="line"/>
      <point x="1044.0" y="946.0"/>
      <point x="1160.0" y="1084.0"/>
      <point x="1352.0" y="1084.0" type="curve" smooth="yes"/>
      <point x="1554.0" y="1084.0"/>
      <point x="1645.0" y="975.0"/>
      <point x="1575.0" y="673.0" type="curve" smooth="yes"/>
      <point x="1422.0" y="10.0" type="line" smooth="yes"/>
      <point x="1420.0" y="3.0"/>
      <point x="1417.0" y="0.0"/>
      <point x="1410.0" y="0.0" type="curve" smooth="yes"/>
      <point x="972.0" y="0.0" type="line" smooth="yes"/>
      <point x="965.0" y="0.0"/>
      <point x="962.0" y="3.0"/>
      <point x="964.0" y="10.0" type="curve" smooth="yes"/>
      <point x="1106.0" y="625.0" type="line" smooth="yes"/>
      <point x="1128.0" y="721.0"/>
      <point x="1130.0" y="762.0"/>
      <point x="1094.0" y="762.0" type="curve" smooth="yes"/>
      <point x="1058.0" y="762.0"/>
      <point x="1024.0" y="694.0"/>
      <point x="977.0" y="489.0" type="curve"/>
    </contour>
    <contour>
      <point x="180.0" y="1050.0" type="curve" smooth="yes"/>
      <point x="610.0" y="1050.0" type="line" smooth="yes"/>
      <point x="617.0" y="1050.0"/>
      <point x="619.0" y="1047.0"/>
      <point x="617.0" y="1040.0" type="curve" smooth="yes"/>
      <point x="538.0" y="696.0" type="line"/>
      <point x="542.0" y="670.0" type="line"/>
      <point x="389.0" y="10.0" type="line" smooth="yes"/>
      <point x="387.0" y="3.0"/>
      <point x="384.0" y="0.0"/>
      <point x="377.0" y="0.0" type="curve" smooth="yes"/>
      <point x="-62.0" y="0.0" type="line" smooth="yes"/>
      <point x="-69.0" y="0.0"/>
      <point x="-71.0" y="3.0"/>
      <point x="-69.0" y="10.0" type="curve" smooth="yes"/>
      <point x="169.0" y="1040.0" type="line" smooth="yes"/>
      <point x="171.0" y="1047.0"/>
      <point x="173.0" y="1050.0"/>
    </contour>
    <contour>
      <point x="522.0" y="712.0" type="line"/>
      <point x="576.0" y="946.0"/>
      <point x="654.0" y="1084.0"/>
      <point x="836.0" y="1084.0" type="curve" smooth="yes"/>
      <point x="1018.0" y="1084.0"/>
      <point x="1089.0" y="975.0"/>
      <point x="1019.0" y="673.0" type="curve" smooth="yes"/>
      <point x="866.0" y="10.0" type="line" smooth="yes"/>
      <point x="864.0" y="3.0"/>
      <point x="862.0" y="0.0"/>
      <point x="855.0" y="0.0" type="curve" smooth="yes"/>
      <point x="494.0" y="0.0" type="line" smooth="yes"/>
      <point x="487.0" y="0.0"/>
      <point x="484.0" y="3.0"/>
      <point x="486.0" y="10.0" type="curve" smooth="yes"/>
      <point x="628.0" y="625.0" type="line" smooth="yes"/>
      <point x="650.0" y="721.0"/>
      <point x="652.0" y="762.0"/>
      <point x="616.0" y="762.0" type="curve" smooth="yes"/>
      <point x="580.0" y="762.0"/>
      <point x="547.0" y="694.0"/>
      <point x="500.0" y="489.0" type="curve"/>
    </contour>
  </outline>
</glyph>
<glyph name="n" format="2">
  <advance height="1872" width="1221"/>
  <unicode hex="006E"/>
  <anchor x="509.0" y="0.0" name="bottom"/>
  <anchor x="752.0" y="1050.0" name="top"/>
  <outline>
    <contour>
      <point x="180.0" y="1050.0" type="curve" smooth="yes"/>
      <point x="629.0" y="1050.0" type="line" smooth="yes"/>
      <point x="636.0" y="1050.0"/>
      <point x="639.0" y="1047.0"/>
      <point x="637.0" y="1040.0" type="curve" smooth="yes"/>
      <point x="558.0" y="696.0" type="line"/>
      <point x="561.0" y="670.0" type="line"/>
      <point x="408.0" y="10.0" type="line" smooth="yes"/>
      <point x="406.0" y="3.0"/>
      <point x="404.0" y="0.0"/>
      <point x="397.0" y="0.0" type="curve" smooth="yes"/>
      <point x="-62.0" y="0.0" type="line" smooth="yes"/>
      <point x="-69.0" y="0.0"/>
      <point x="-71.0" y="3.0"/>
      <point x="-69.0" y="10.0" type="curve" smooth="yes"/>
      <point x="169.0" y="1040.0" type="line" smooth="yes"/>
      <point x="171.0" y="1047.0"/>
      <point x="173.0" y="1050.0"/>
    </contour>
    <contour>
      <point x="542.0" y="712.0" type="line"/>
      <point x="596.0" y="946.0"/>
      <point x="731.0" y="1084.0"/>
      <point x="942.0" y="1084.0" type="curve" smooth="yes"/>
      <point x="1163.0" y="1084.0"/>
      <point x="1282.0" y="975.0"/>
      <point x="1212.0" y="673.0" type="curve" smooth="yes"/>
      <point x="1059.0" y="10.0" type="line" smooth="yes"/>
      <point x="1057.0" y="3.0"/>
      <point x="1055.0" y="0.0"/>
      <point x="1048.0" y="0.0" type="curve" smooth="yes"/>
      <point x="589.0" y="0.0" type="line" smooth="yes"/>
      <point x="582.0" y="0.0"/>
      <point x="580.0" y="3.0"/>
      <point x="582.0" y="10.0" type="curve" smooth="yes"/>
      <point x="724.0" y="624.0" type="line" smooth="yes"/>
      <point x="747.0" y="722.0"/>
      <point x="739.0" y="762.0"/>
      <point x="684.0" y="762.0" type="curve" smooth="yes"/>
      <point x="629.0" y="762.0"/>
      <point x="565.0" y="692.0"/>
      <point x="518.0" y="487.0" type="curve"/>
    </contour>
  </outline>
</glyph>
<glyph name="o" format="2">
  <advance height="1872" width="1245"/>
  <unicode hex="006F"/>
  <anchor x="519.0" y="0.0" name="bottom"/>
  <anchor x="762.411" y="1050.0" name="top"/>
  <outline>
    <contour>
      <point x="6.0" y="449.0" type="curve" smooth="yes"/>
      <point x="46.0" y="622.0" type="line" smooth="yes"/>
      <point x="112.0" y="907.0"/>
      <point x="354.0" y="1084.0"/>
      <point x="722.0" y="1084.0" type="curve" smooth="yes"/>
      <point x="1090.0" y="1084.0"/>
      <point x="1307.0" y="887.0"/>
      <point x="1241.0" y="602.0" type="curve" smooth="yes"/>
      <point x="1201.0" y="429.0" type="line" smooth="yes"/>
      <point x="1135.0" y="144.0"/>
      <point x="892.0" y="-34.0"/>
      <point x="524.0" y="-34.0" type="curve" smooth="yes"/>
      <point x="156.0" y="-34.0"/>
      <point x="-60.0" y="164.0"/>
    </contour>
    <contour>
      <point x="481.0" y="408.0" type="line" smooth="yes"/>
      <point x="454.0" y="291.0"/>
      <point x="473.0" y="239.0"/>
      <point x="557.0" y="239.0" type="curve" smooth="yes"/>
      <point x="641.0" y="239.0"/>
      <point x="685.0" y="291.0"/>
      <point x="712.0" y="408.0" type="curve" smooth="yes"/>
      <point x="766.0" y="643.0" type="line" smooth="yes"/>
      <point x="793.0" y="760.0"/>
      <point x="773.0" y="811.0"/>
      <point x="689.0" y="811.0" type="curve" smooth="yes"/>
      <point x="605.0" y="811.0"/>
      <point x="562.0" y="760.0"/>
      <point x="535.0" y="643.0" type="curve" smooth="yes"/>
    </contour>
  </outline>
</glyph>
<glyph name="p" format="2">
  <advance height="1872" width="1278"/>
  <unicode hex="0070"/>
  <outline>
    <contour>
      <point x="516.0" y="641.0" type="line"/>
      <point x="581.0" y="924.0"/>
      <point x="701.0" y="1084.0"/>
      <point x="950.0" y="1084.0" type="curve" smooth="yes"/>
      <point x="1209.0" y="1084.0"/>
      <point x="1353.0" y="946.0"/>
      <point x="1276.0" y="614.0" type="curve" smooth="yes"/>
      <point x="1235.0" y="436.0" type="line" smooth="yes"/>
      <point x="1158.0" y="104.0"/>
      <point x="1011.0" y="-34.0"/>
      <point x="752.0" y="-34.0" type="curve" smooth="yes"/>
      <point x="503.0" y="-34.0"/>
      <point x="407.0" y="126.0"/>
      <point x="472.0" y="409.0" type="curve"/>
      <point x="516.0" y="475.0" type="line"/>
      <point x="491.0" y="368.0"/>
      <point x="521.0" y="297.0"/>
      <point x="595.0" y="297.0" type="curve" smooth="yes"/>
      <point x="679.0" y="297.0"/>
      <point x="736.0" y="348.0"/>
      <point x="761.0" y="455.0" type="curve" smooth="yes"/>
      <point x="793.0" y="595.0" type="line" smooth="yes"/>
      <point x="818.0" y="702.0"/>
      <point x="784.0" y="753.0"/>
      <point x="700.0" y="753.0" type="curve" smooth="yes"/>
      <point x="626.0" y="753.0"/>
      <point x="564.0" y="682.0"/>
      <point x="539.0" y="575.0" type="curve"/>
    </contour>
    <contour>
      <point x="-152.0" y="-350.0" type="curve" smooth="yes"/>
      <point x="169.0" y="1040.0" type="line" smooth="yes"/>
      <point x="171.0" y="1047.0"/>
      <point x="173.0" y="1050.0"/>
      <point x="180.0" y="1050.0" type="curve" smooth="yes"/>
      <point x="624.0" y="1050.0" type="line" smooth="yes"/>
      <point x="631.0" y="1050.0"/>
      <point x="634.0" y="1047.0"/>
      <point x="632.0" y="1040.0" type="curve" smooth="yes"/>
      <point x="585.0" y="834.0" type="line"/>
      <point x="592.0" y="804.0" type="line"/>
      <point x="325.0" y="-350.0" type="line" smooth="yes"/>
      <point x="323.0" y="-357.0"/>
      <point x="321.0" y="-360.0"/>
      <point x="314.0" y="-360.0" type="curve" smooth="yes"/>
      <point x="-145.0" y="-360.0" type="line" smooth="yes"/>
      <point x="-152.0" y="-360.0"/>
      <point x="-154.0" y="-357.0"/>
    </contour>
  </outline>
</glyph>
<glyph name="q" format="2">
  <advance height="1872" width="1297"/>
  <unicode hex="0071"/>
  <outline>
    <contour>
      <point x="1017.0" y="-360.0" type="curve" smooth="yes"/>
      <point x="559.0" y="-360.0" type="line" smooth="yes"/>
      <point x="552.0" y="-360.0"/>
      <point x="549.0" y="-357.0"/>
      <point x="551.0" y="-350.0" type="curve" smooth="yes"/>
      <point x="801.0" y="733.0" type="line"/>
      <point x="1216.0" y="1074.0" type="line" smooth="yes"/>
      <point x="1225.0" y="1081.0"/>
      <point x="1238.0" y="1084.0"/>
      <point x="1245.0" y="1084.0" type="curve" smooth="yes"/>
      <point x="1350.0" y="1084.0" type="line" smooth="yes"/>
      <point x="1357.0" y="1084.0"/>
      <point x="1360.0" y="1081.0"/>
      <point x="1358.0" y="1074.0" type="curve" smooth="yes"/>
      <point x="1029.0" y="-350.0" type="line" smooth="yes"/>
      <point x="1027.0" y="-357.0"/>
      <point x="1024.0" y="-360.0"/>
    </contour>
    <contour>
      <point x="745.0" y="408.0" type="line"/>
      <point x="680.0" y="125.0"/>
      <point x="579.0" y="-34.0"/>
      <point x="330.0" y="-34.0" type="curve" smooth="yes"/>
      <point x="71.0" y="-34.0"/>
      <point x="-71.0" y="104.0"/>
      <point x="6.0" y="436.0" type="curve" smooth="yes"/>
      <point x="47.0" y="614.0" type="line" smooth="yes"/>
      <point x="119.0" y="926.0"/>
      <point x="307.0" y="1084.0"/>
      <point x="616.0" y="1084.0" type="curve" smooth="yes"/>
      <point x="895.0" y="1084.0"/>
      <point x="919.0" y="926.0"/>
      <point x="854.0" y="643.0" type="curve"/>
      <point x="765.0" y="575.0" type="line"/>
      <point x="796.0" y="711.0"/>
      <point x="761.0" y="753.0"/>
      <point x="687.0" y="753.0" type="curve" smooth="yes"/>
      <point x="603.0" y="753.0"/>
      <point x="545.0" y="702.0"/>
      <point x="520.0" y="595.0" type="curve" smooth="yes"/>
      <point x="488.0" y="455.0" type="line" smooth="yes"/>
      <point x="463.0" y="348.0"/>
      <point x="498.0" y="297.0"/>
      <point x="582.0" y="297.0" type="curve" smooth="yes"/>
      <point x="656.0" y="297.0"/>
      <point x="717.0" y="368.0"/>
      <point x="742.0" y="475.0" type="curve"/>
    </contour>
  </outline>
</glyph>
<glyph name="r" format="2">
  <advance height="1872" width="1098"/>
  <unicode hex="0072"/>
  <anchor x="204.0" y="0.0" name="bottom"/>
  <anchor x="597.0" y="1050.0" name="top"/>
  <outline>
    <contour>
      <point x="531.0" y="453.0" type="curve"/>
      <point x="558.0" y="770.0" type="line"/>
      <point x="632.0" y="930.0"/>
      <point x="748.0" y="1084.0"/>
      <point x="910.0" y="1084.0" type="curve" smooth="yes"/>
      <point x="1159.0" y="1084.0"/>
      <point x="1147.0" y="813.0"/>
      <point x="1074.0" y="620.0" type="curve" smooth="yes"/>
      <point x="1072.0" y="615.0"/>
      <point x="1068.0" y="613.0"/>
      <point x="1061.0" y="613.0" type="curve" smooth="yes"/>
      <point x="680.0" y="613.0" type="line" smooth="yes"/>
      <point x="673.0" y="613.0"/>
      <point x="672.0" y="616.0"/>
      <point x="673.0" y="620.0" type="curve" smooth="yes"/>
      <point x="698.0" y="710.0"/>
      <point x="695.0" y="760.0"/>
      <point x="656.0" y="760.0" type="curve" smooth="yes"/>
      <point x="608.0" y="760.0"/>
      <point x="581.0" y="658.0"/>
    </contour>
    <contour>
      <point x="200.0" y="1050.0" type="curve" smooth="yes"/>
      <point x="624.0" y="1050.0" type="line" smooth="yes"/>
      <point x="632.0" y="1049.0"/>
      <point x="632.0" y="1046.0"/>
      <point x="631.0" y="1040.0" type="curve" smooth="yes"/>
      <point x="560.0" y="732.0" type="line"/>
      <point x="593.0" y="723.0" type="line"/>
      <point x="428.0" y="10.0" type="line" smooth="yes"/>
      <point x="426.0" y="2.0"/>
      <point x="422.0" y="0.0"/>
      <point x="416.0" y="0.0" type="curve" smooth="yes"/>
      <point x="-42.0" y="0.0" type="line" smooth="yes"/>
      <point x="-48.0" y="0.0"/>
      <point x="-51.0" y="4.0"/>
      <point x="-50.0" y="10.0" type="curve" smooth="yes"/>
      <point x="188.0" y="1040.0" type="line" smooth="yes"/>
      <point x="189.0" y="1046.0"/>
      <point x="194.0" y="1050.0"/>
    </contour>
  </outline>
</glyph>
<glyph name="s" format="2">
  <advance height="1872" width="1126"/>
  <unicode hex="0073"/>
  <anchor x="441.0" y="0.0" name="bottom"/>
  <anchor x="644.0" y="1050.0" name="top"/>
  <outline>
    <contour>
      <point x="-9.0" y="360.0" type="curve" smooth="yes"/>
      <point x="330.0" y="360.0" type="line" smooth="yes"/>
      <point x="338.0" y="360.0"/>
      <point x="341.0" y="357.0"/>
      <point x="340.0" y="351.0" type="curve" smooth="yes"/>
      <point x="335.0" y="331.0"/>
      <point x="333.0" y="316.0"/>
      <point x="330.0" y="293.0" type="curve" smooth="yes"/>
      <point x="324.0" y="245.0"/>
      <point x="373.0" y="222.0"/>
      <point x="446.0" y="222.0" type="curve" smooth="yes"/>
      <point x="527.0" y="222.0"/>
      <point x="562.0" y="228.0"/>
      <point x="572.0" y="271.0" type="curve" smooth="yes"/>
      <point x="602.0" y="399.0"/>
      <point x="8.0" y="376.0"/>
      <point x="95.0" y="752.0" type="curve" smooth="yes"/>
      <point x="151.0" y="996.0"/>
      <point x="325.0" y="1084.0"/>
      <point x="646.0" y="1084.0" type="curve" smooth="yes"/>
      <point x="957.0" y="1084.0"/>
      <point x="1136.0" y="967.0"/>
      <point x="1089.0" y="760.0" type="curve" smooth="yes"/>
      <point x="1087.0" y="752.0"/>
      <point x="1086.0" y="747.0"/>
      <point x="1084.0" y="738.0" type="curve" smooth="yes"/>
      <point x="1082.0" y="731.0"/>
      <point x="1080.0" y="729.0"/>
      <point x="1073.0" y="729.0" type="curve" smooth="yes"/>
      <point x="743.0" y="729.0" type="line" smooth="yes"/>
      <point x="736.0" y="729.0"/>
      <point x="733.0" y="732.0"/>
      <point x="735.0" y="739.0" type="curve" smooth="yes"/>
      <point x="738.0" y="750.0"/>
      <point x="739.0" y="760.0"/>
      <point x="742.0" y="771.0" type="curve" smooth="yes"/>
      <point x="752.0" y="823.0"/>
      <point x="703.0" y="843.0"/>
      <point x="627.0" y="843.0" type="curve" smooth="yes"/>
      <point x="559.0" y="843.0"/>
      <point x="521.0" y="830.0"/>
      <point x="513.0" y="796.0" type="curve" smooth="yes"/>
      <point x="483.0" y="668.0"/>
      <point x="1149.0" y="715.0"/>
      <point x="1048.0" y="278.0" type="curve" smooth="yes"/>
      <point x="993.0" y="40.0"/>
      <point x="827.0" y="-34.0"/>
      <point x="466.0" y="-34.0" type="curve" smooth="yes"/>
      <point x="112.0" y="-34.0"/>
      <point x="-77.0" y="68.0"/>
      <point x="-36.0" y="276.0" type="curve" smooth="yes"/>
      <point x="-33.0" y="293.0"/>
      <point x="-25.0" y="324.0"/>
      <point x="-19.0" y="352.0" type="curve" smooth="yes"/>
      <point x="-17.0" y="359.0"/>
      <point x="-16.0" y="360.0"/>
    </contour>
  </outline>
</glyph>
<glyph name="t" format="2">
  <advance height="1872" width="792"/>
  <unicode hex="0074"/>
  <anchor x="439.0" y="0.0" name="bottom"/>
  <outline>
    <contour>
      <point x="822.0" y="816.0" type="curve" smooth="yes"/>
      <point x="63.0" y="816.0" type="line" smooth="yes"/>
      <point x="56.0" y="816.0"/>
      <point x="54.0" y="819.0"/>
      <point x="56.0" y="826.0" type="curve" smooth="yes"/>
      <point x="105.0" y="1040.0" type="line" smooth="yes"/>
      <point x="107.0" y="1047.0"/>
      <point x="110.0" y="1050.0"/>
      <point x="117.0" y="1050.0" type="curve" smooth="yes"/>
      <point x="876.0" y="1050.0" type="line" smooth="yes"/>
      <point x="883.0" y="1050.0"/>
      <point x="885.0" y="1047.0"/>
      <point x="883.0" y="1040.0" type="curve" smooth="yes"/>
      <point x="834.0" y="826.0" type="line" smooth="yes"/>
      <point x="832.0" y="819.0"/>
      <point x="829.0" y="816.0"/>
    </contour>
    <contour>
      <point x="720.0" y="312.0" type="curve" smooth="yes"/>
      <point x="650.0" y="10.0" type="line" smooth="yes"/>
      <point x="648.0" y="3.0"/>
      <point x="645.0" y="0.0"/>
      <point x="638.0" y="-1.0" type="curve" smooth="yes"/>
      <point x="150.0" y="-57.0"/>
      <point x="1.0" y="43.0"/>
      <point x="70.0" y="343.0" type="curve" smooth="yes"/>
      <point x="312.0" y="1390.0" type="line" smooth="yes"/>
      <point x="314.0" y="1397.0"/>
      <point x="317.0" y="1400.0"/>
      <point x="324.0" y="1400.0" type="curve" smooth="yes"/>
      <point x="777.0" y="1400.0" type="line" smooth="yes"/>
      <point x="784.0" y="1400.0"/>
      <point x="787.0" y="1397.0"/>
      <point x="785.0" y="1390.0" type="curve" smooth="yes"/>
      <point x="559.0" y="411.0" type="line" smooth="yes"/>
      <point x="535.0" y="306.0"/>
      <point x="612.0" y="303.0"/>
      <point x="713.0" y="321.0" type="curve" smooth="yes"/>
      <point x="719.0" y="322.0"/>
      <point x="722.0" y="319.0"/>
    </contour>
  </outline>
</glyph>
<glyph name="u" format="2">
  <advance height="1872" width="1221"/>
  <unicode hex="0075"/>
  <anchor x="448.0" y="0.0" name="bottom"/>
  <anchor x="834.0" y="0.0" name="ogonek"/>
  <anchor x="741.0" y="1050.0" name="top"/>
  <outline>
    <contour>
      <point x="1043.0" y="0.0" type="curve" smooth="yes"/>
      <point x="594.0" y="0.0" type="line" smooth="yes"/>
      <point x="587.0" y="0.0"/>
      <point x="585.0" y="3.0"/>
      <point x="587.0" y="10.0" type="curve" smooth="yes"/>
      <point x="667.0" y="354.0" type="line"/>
      <point x="663.0" y="380.0" type="line"/>
      <point x="815.0" y="1040.0" type="line" smooth="yes"/>
      <point x="817.0" y="1047.0"/>
      <point x="820.0" y="1050.0"/>
      <point x="827.0" y="1050.0" type="curve" smooth="yes"/>
      <point x="1285.0" y="1050.0" type="line" smooth="yes"/>
      <point x="1292.0" y="1050.0"/>
      <point x="1295.0" y="1047.0"/>
      <point x="1293.0" y="1040.0" type="curve" smooth="yes"/>
      <point x="1055.0" y="10.0" type="line" smooth="yes"/>
      <point x="1053.0" y="3.0"/>
      <point x="1050.0" y="0.0"/>
    </contour>
    <contour>
      <point x="672.0" y="338.0" type="line"/>
      <point x="618.0" y="104.0"/>
      <point x="492.0" y="-34.0"/>
      <point x="281.0" y="-34.0" type="curve" smooth="yes"/>
      <point x="60.0" y="-34.0"/>
      <point x="-59.0" y="75.0"/>
      <point x="11.0" y="377.0" type="curve" smooth="yes"/>
      <point x="164.0" y="1040.0" type="line" smooth="yes"/>
      <point x="166.0" y="1047.0"/>
      <point x="169.0" y="1050.0"/>
      <point x="176.0" y="1050.0" type="curve" smooth="yes"/>
      <point x="634.0" y="1050.0" type="line" smooth="yes"/>
      <point x="641.0" y="1050.0"/>
      <point x="644.0" y="1047.0"/>
      <point x="642.0" y="1040.0" type="curve" smooth="yes"/>
      <point x="500.0" y="426.0" type="line" smooth="yes"/>
      <point x="477.0" y="328.0"/>
      <point x="485.0" y="288.0"/>
      <point x="540.0" y="288.0" type="curve" smooth="yes"/>
      <point x="595.0" y="288.0"/>
      <point x="658.0" y="358.0"/>
      <point x="705.0" y="563.0" type="curve"/>
    </contour>
  </outline>
</glyph>
<glyph name="v" format="2">
  <advance height="1872" width="1183"/>
  <unicode hex="0076"/>
  <outline>
    <contour>
      <point x="578.0" y="337.0" type="line"/>
      <point x="883.0" y="1040.0" type="line" smooth="yes"/>
      <point x="887.0" y="1047.0"/>
      <point x="892.0" y="1050.0"/>
      <point x="899.0" y="1050.0" type="curve" smooth="yes"/>
      <point x="1318.0" y="1050.0" type="line" smooth="yes"/>
      <point x="1325.0" y="1050.0"/>
      <point x="1327.0" y="1047.0"/>
      <point x="1322.0" y="1040.0" type="curve" smooth="yes"/>
      <point x="791.0" y="10.0" type="line" smooth="yes"/>
      <point x="786.0" y="2.0"/>
      <point x="783.0" y="0.0"/>
      <point x="776.0" y="0.0" type="curve" smooth="yes"/>
      <point x="206.0" y="0.0" type="line" smooth="yes"/>
      <point x="199.0" y="0.0"/>
      <point x="196.0" y="3.0"/>
      <point x="195.0" y="10.0" type="curve" smooth="yes"/>
      <point x="91.0" y="1040.0" type="line" smooth="yes"/>
      <point x="91.0" y="1047.0"/>
      <point x="92.0" y="1050.0"/>
      <point x="99.0" y="1050.0" type="curve" smooth="yes"/>
      <point x="586.0" y="1050.0" type="line" smooth="yes"/>
      <point x="593.0" y="1050.0"/>
      <point x="596.0" y="1047.0"/>
      <point x="596.0" y="1040.0" type="curve" smooth="yes"/>
    </contour>
  </outline>
</glyph>
<glyph name="w" format="2">
  <advance height="1872" width="1486"/>
  <unicode hex="0077"/>
  <outline>
    <contour>
      <point x="1048.0" y="467.0" type="line"/>
      <point x="1256.0" y="1040.0" type="line" smooth="yes"/>
      <point x="1260.0" y="1047.0"/>
      <point x="1262.0" y="1050.0"/>
      <point x="1269.0" y="1050.0" type="curve" smooth="yes"/>
      <point x="1601.0" y="1050.0" type="line" smooth="yes"/>
      <point x="1608.0" y="1050.0"/>
      <point x="1610.0" y="1047.0"/>
      <point x="1606.0" y="1040.0" type="curve" smooth="yes"/>
      <point x="1190.0" y="10.0" type="line" smooth="yes"/>
      <point x="1186.0" y="3.0"/>
      <point x="1182.0" y="0.0"/>
      <point x="1175.0" y="0.0" type="curve" smooth="yes"/>
      <point x="713.0" y="0.0" type="line" smooth="yes"/>
      <point x="706.0" y="0.0"/>
      <point x="702.0" y="2.0"/>
      <point x="702.0" y="10.0" type="curve" smooth="yes"/>
      <point x="710.0" y="363.0" type="line"/>
      <point x="567.0" y="10.0" type="line" smooth="yes"/>
      <point x="563.0" y="2.0"/>
      <point x="560.0" y="0.0"/>
      <point x="553.0" y="0.0" type="curve" smooth="yes"/>
      <point x="81.0" y="0.0" type="line" smooth="yes"/>
      <point x="74.0" y="0.0"/>
      <point x="70.0" y="2.0"/>
      <point x="70.0" y="10.0" type="curve" smooth="yes"/>
      <point x="120.0" y="1040.0" type="line" smooth="yes"/>
      <point x="120.0" y="1047.0"/>
      <point x="122.0" y="1050.0"/>
      <point x="129.0" y="1050.0" type="curve" smooth="yes"/>
      <point x="547.0" y="1050.0" type="line" smooth="yes"/>
      <point x="554.0" y="1050.0"/>
      <point x="558.0" y="1047.0"/>
      <point x="558.0" y="1040.0" type="curve" smooth="yes"/>
      <point x="511.0" y="497.0" type="line"/>
      <point x="750.0" y="1040.0" type="line" smooth="yes"/>
      <point x="754.0" y="1047.0"/>
      <point x="758.0" y="1050.0"/>
      <point x="765.0" y="1050.0" type="curve" smooth="yes"/>
      <point x="1052.0" y="1050.0" type="line" smooth="yes"/>
      <point x="1059.0" y="1050.0"/>
      <point x="1062.0" y="1047.0"/>
      <point x="1062.0" y="1040.0" type="curve" smooth="yes"/>
    </contour>
  </outline>
</glyph>
<glyph name="x" format="2">
  <advance height="1872" width="1241"/>
  <unicode hex="0078"/>
  <outline>
    <contour>
      <point x="266.0" y="0.0" type="curve" smooth="yes"/>
      <point x="-172.0" y="0.0" type="line" smooth="yes"/>
      <point x="-179.0" y="0.0"/>
      <point x="-180.0" y="3.0"/>
      <point x="-173.0" y="10.0" type="curve" smooth="yes"/>
      <point x="327.0" y="505.0" type="line"/>
      <point x="90.0" y="1040.0" type="line" smooth="yes"/>
      <point x="87.0" y="1048.0"/>
      <point x="88.0" y="1050.0"/>
      <point x="95.0" y="1050.0" type="curve" smooth="yes"/>
      <point x="678.0" y="1050.0" type="line" smooth="yes"/>
      <point x="685.0" y="1050.0"/>
      <point x="688.0" y="1048.0"/>
      <point x="691.0" y="1040.0" type="curve" smooth="yes"/>
      <point x="737.0" y="858.0" type="line"/>
      <point x="887.0" y="1040.0" type="line" smooth="yes"/>
      <point x="894.0" y="1048.0"/>
      <point x="897.0" y="1050.0"/>
      <point x="904.0" y="1050.0" type="curve" smooth="yes"/>
      <point x="1343.0" y="1050.0" type="line" smooth="yes"/>
      <point x="1350.0" y="1050.0"/>
      <point x="1351.0" y="1047.0"/>
      <point x="1344.0" y="1040.0" type="curve" smooth="yes"/>
      <point x="894.0" y="618.0" type="line"/>
      <point x="1159.0" y="10.0" type="line" smooth="yes"/>
      <point x="1162.0" y="3.0"/>
      <point x="1161.0" y="0.0"/>
      <point x="1154.0" y="0.0" type="curve" smooth="yes"/>
      <point x="579.0" y="0.0" type="line" smooth="yes"/>
      <point x="571.0" y="0.0"/>
      <point x="569.0" y="2.0"/>
      <point x="566.0" y="10.0" type="curve" smooth="yes"/>
      <point x="488.0" y="238.0" type="line"/>
      <point x="284.0" y="10.0" type="line" smooth="yes"/>
      <point x="278.0" y="3.0"/>
      <point x="273.0" y="0.0"/>
    </contour>
  </outline>
</glyph>
<glyph name="y" format="2">
  <advance height="1872" width="1175"/>
  <unicode hex="0079"/>
  <anchor x="739.0" y="1050.0" name="top"/>
  <outline>
    <contour>
      <point x="599.0" y="335.0" type="line"/>
      <point x="906.0" y="1040.0" type="line" smooth="yes"/>
      <point x="910.0" y="1047.0"/>
      <point x="914.0" y="1050.0"/>
      <point x="921.0" y="1050.0" type="curve" smooth="yes"/>
      <point x="1310.0" y="1050.0" type="line" smooth="yes"/>
      <point x="1317.0" y="1050.0"/>
      <point x="1317.09570989" y="1045.94943707"/>
      <point x="1314.0" y="1040.0" type="curve" smooth="yes"/>
      <point x="943.0" y="327.0" type="line" smooth="yes"/>
      <point x="725.0" y="-90.0"/>
      <point x="529.0" y="-390.0"/>
      <point x="106.0" y="-390.0" type="curve" smooth="yes"/>
      <point x="-243.0" y="-390.0"/>
      <point x="-239.0" y="-199.0"/>
      <point x="-178.0" y="-56.0" type="curve" smooth="yes"/>
      <point x="-176.0" y="-51.0"/>
      <point x="-171.0" y="-49.0"/>
      <point x="-164.0" y="-49.0" type="curve" smooth="yes"/>
      <point x="67.0" y="-49.0" type="line" smooth="yes"/>
      <point x="74.0" y="-49.0"/>
      <point x="74.0" y="-52.0"/>
      <point x="73.0" y="-56.0" type="curve" smooth="yes"/>
      <point x="60.0" y="-96.0"/>
      <point x="49.0" y="-156.0"/>
      <point x="78.0" y="-156.0" type="curve" smooth="yes"/>
      <point x="101.0" y="-156.0"/>
      <point x="139.0" y="-96.0"/>
      <point x="193.0" y="-15.0" type="curve"/>
      <point x="92.0" y="1040.0" type="line" smooth="yes"/>
      <point x="91.0" y="1046.0"/>
      <point x="92.0" y="1050.0"/>
      <point x="99.0" y="1050.0" type="curve" smooth="yes"/>
      <point x="606.0" y="1050.0" type="line" smooth="yes"/>
      <point x="613.0" y="1050.0"/>
      <point x="616.0" y="1046.0"/>
      <point x="617.0" y="1040.0" type="curve" smooth="yes"/>
    </contour>
  </outline>
</glyph>
<glyph name="z" format="2">
  <advance height="1872" width="1098"/>
  <unicode hex="007A"/>
  <anchor x="677.0" y="1050.0" name="top"/>
  <outline>
    <contour>
      <point x="-157.0" y="10.0" type="curve" smooth="yes"/>
      <point x="464.0" y="709.0" type="line"/>
      <point x="114.0" y="709.0" type="line" smooth="yes"/>
      <point x="106.0" y="709.0"/>
      <point x="104.0" y="710.0"/>
      <point x="106.0" y="718.0" type="curve" smooth="yes"/>
      <point x="180.0" y="1040.0" type="line" smooth="yes"/>
      <point x="182.0" y="1048.0"/>
      <point x="184.0" y="1050.0"/>
      <point x="192.0" y="1050.0" type="curve" smooth="yes"/>
      <point x="1232.0" y="1050.0" type="line" smooth="yes"/>
      <point x="1239.0" y="1050.0"/>
      <point x="1240.0" y="1048.0"/>
      <point x="1233.0" y="1040.0" type="curve" smooth="yes"/>
      <point x="605.0" y="341.0" type="line"/>
      <point x="1010.0" y="341.0" type="line" smooth="yes"/>
      <point x="1017.0" y="341.0"/>
      <point x="1020.0" y="339.0"/>
      <point x="1018.0" y="332.0" type="curve" smooth="yes"/>
      <point x="943.0" y="10.0" type="line" smooth="yes"/>
      <point x="941.0" y="3.0"/>
      <point x="938.0" y="0.0"/>
      <point x="931.0" y="0.0" type="curve" smooth="yes"/>
      <point x="-157.0" y="0.0" type="line" smooth="yes"/>
      <point x="-164.0" y="0.0"/>
      <point x="-165.0" y="2.0"/>
    </contour>
  </outline>
</glyph>
<glyph name="braceleft" format="2">
  <advance height="2048" width="775"/>
  <unicode hex="007B"/>
  <outline>
    <contour>
      <point x="330.0" y="1278.0" type="line" smooth="yes"/>
      <point x="382.0" y="1505.0"/>
      <point x="496.0" y="1598.0"/>
      <point x="914.0" y="1600.0" type="curve" smooth="yes"/>
      <point x="921.0" y="1600.0"/>
      <point x="924.0" y="1597.0"/>
      <point x="922.0" y="1590.0" type="curve" smooth="yes"/>
      <point x="874.0" y="1380.0" type="line" smooth="yes"/>
      <point x="872.0" y="1373.0"/>
      <point x="868.0" y="1370.0"/>
      <point x="860.0" y="1370.0" type="curve" smooth="yes"/>
      <point x="760.0" y="1366.0"/>
      <point x="713.0" y="1312.0"/>
      <point x="673.0" y="1138.0" type="curve" smooth="yes"/>
      <point x="631.0" y="956.0" type="line" smooth="yes"/>
      <point x="588.0" y="771.0"/>
      <point x="476.0" y="668.0"/>
      <point x="309.0" y="620.0" type="curve"/>
      <point x="454.0" y="572.0"/>
      <point x="519.0" y="469.0"/>
      <point x="476.0" y="284.0" type="curve" smooth="yes"/>
      <point x="436.0" y="112.0" type="line" smooth="yes"/>
      <point x="396.0" y="-61.0"/>
      <point x="418.0" y="-114.0"/>
      <point x="514.0" y="-120.0" type="curve" smooth="yes"/>
      <point x="524.0" y="-121.0"/>
      <point x="527.0" y="-123.0"/>
      <point x="525.0" y="-130.0" type="curve" smooth="yes"/>
      <point x="474.0" y="-350.0" type="line" smooth="yes"/>
      <point x="472.0" y="-357.0"/>
      <point x="469.0" y="-360.0"/>
      <point x="460.0" y="-360.0" type="curve" smooth="yes"/>
      <point x="45.0" y="-356.0"/>
      <point x="-26.0" y="-265.0"/>
      <point x="26.0" y="-38.0" type="curve" smooth="yes"/>
      <point x="101.0" y="284.0" type="line" smooth="yes"/>
      <point x="132.0" y="417.0"/>
      <point x="108.0" y="471.0"/>
      <point x="18.0" y="502.0" type="curve" smooth="yes"/>
      <point x="10.0" y="505.0"/>
      <point x="7.0" y="509.0"/>
      <point x="9.0" y="516.0" type="curve" smooth="yes"/>
      <point x="57.0" y="724.0" type="line" smooth="yes"/>
      <point x="59.0" y="731.0"/>
      <point x="63.0" y="735.0"/>
      <point x="70.0" y="737.0" type="curve" smooth="yes"/>
      <point x="179.0" y="770.0"/>
      <point x="225.0" y="822.0"/>
      <point x="256.0" y="956.0" type="curve" smooth="yes"/>
    </contour>
  </outline>
</glyph>
<glyph name="bar" format="2">
  <advance height="1920" width="515"/>
  <unicode hex="007C"/>
  <outline>
    <contour>
      <point x="337.0" y="1600.0" type="curve" smooth="yes"/>
      <point x="677.0" y="1600.0" type="line" smooth="yes"/>
      <point x="684.0" y="1600.0"/>
      <point x="687.0" y="1597.0"/>
      <point x="685.0" y="1590.0" type="curve" smooth="yes"/>
      <point x="237.0" y="-350.0" type="line" smooth="yes"/>
      <point x="235.0" y="-357.0"/>
      <point x="232.0" y="-360.0"/>
      <point x="225.0" y="-360.0" type="curve" smooth="yes"/>
      <point x="-115.0" y="-360.0" type="line" smooth="yes"/>
      <point x="-122.0" y="-360.0"/>
      <point x="-125.0" y="-357.0"/>
      <point x="-123.0" y="-350.0" type="curve" smooth="yes"/>
      <point x="325.0" y="1590.0" type="line" smooth="yes"/>
      <point x="327.0" y="1597.0"/>
      <point x="330.0" y="1600.0"/>
    </contour>
  </outline>
</glyph>
<glyph name="braceright" format="2">
  <advance height="2048" width="775"/>
  <unicode hex="007D"/>
  <outline>
    <contour>
      <point x="491.0" y="-38.0" type="line" smooth="yes"/>
      <point x="439.0" y="-265.0"/>
      <point x="325.0" y="-358.0"/>
      <point x="-93.0" y="-360.0" type="curve" smooth="yes"/>
      <point x="-100.0" y="-360.0"/>
      <point x="-103.0" y="-357.0"/>
      <point x="-101.0" y="-350.0" type="curve" smooth="yes"/>
      <point x="-50.0" y="-130.0" type="line" smooth="yes"/>
      <point x="-48.0" y="-123.0"/>
      <point x="-45.0" y="-120.0"/>
      <point x="-37.0" y="-120.0" type="curve" smooth="yes"/>
      <point x="63.0" y="-116.0"/>
      <point x="111.0" y="-62.0"/>
      <point x="151.0" y="112.0" type="curve" smooth="yes"/>
      <point x="191.0" y="284.0" type="line" smooth="yes"/>
      <point x="234.0" y="469.0"/>
      <point x="335.0" y="572.0"/>
      <point x="502.0" y="620.0" type="curve"/>
      <point x="357.0" y="668.0"/>
      <point x="303.0" y="771.0"/>
      <point x="346.0" y="956.0" type="curve" smooth="yes"/>
      <point x="385.0" y="1128.0" type="line" smooth="yes"/>
      <point x="425.0" y="1301.0"/>
      <point x="403.0" y="1354.0"/>
      <point x="307.0" y="1360.0" type="curve" smooth="yes"/>
      <point x="297.0" y="1361.0"/>
      <point x="294.0" y="1363.0"/>
      <point x="296.0" y="1370.0" type="curve" smooth="yes"/>
      <point x="347.0" y="1590.0" type="line" smooth="yes"/>
      <point x="349.0" y="1597.0"/>
      <point x="352.0" y="1600.0"/>
      <point x="361.0" y="1600.0" type="curve" smooth="yes"/>
      <point x="776.0" y="1596.0"/>
      <point x="847.0" y="1505.0"/>
      <point x="795.0" y="1278.0" type="curve" smooth="yes"/>
      <point x="721.0" y="956.0" type="line" smooth="yes"/>
      <point x="690.0" y="823.0"/>
      <point x="713.0" y="769.0"/>
      <point x="803.0" y="738.0" type="curve" smooth="yes"/>
      <point x="811.0" y="735.0"/>
      <point x="814.0" y="731.0"/>
      <point x="812.0" y="724.0" type="curve" smooth="yes"/>
      <point x="764.0" y="516.0" type="line" smooth="yes"/>
      <point x="762.0" y="509.0"/>
      <point x="758.0" y="505.0"/>
      <point x="751.0" y="503.0" type="curve" smooth="yes"/>
      <point x="642.0" y="470.0"/>
      <point x="597.0" y="418.0"/>
      <point x="566.0" y="284.0" type="curve" smooth="yes"/>
    </contour>
  </outline>
</glyph>
<glyph name="asciitilde" format="2">
  <advance height="2048" width="1330"/>
  <unicode hex="007E"/>
  <outline>
    <contour>
      <point x="422.0" y="519.0" type="curve" smooth="yes"/>
      <point x="370.0" y="519.0"/>
      <point x="351.0" y="470.0"/>
      <point x="336.0" y="417.0" type="curve" smooth="yes"/>
      <point x="335.0" y="411.0"/>
      <point x="331.0" y="408.0"/>
      <point x="324.0" y="408.0" type="curve" smooth="yes"/>
      <point x="-16.0" y="408.0" type="line" smooth="yes"/>
      <point x="-23.0" y="408.0"/>
      <point x="-25.0" y="411.0"/>
      <point x="-24.0" y="417.0" type="curve" smooth="yes"/>
      <point x="28.0" y="625.0"/>
      <point x="164.0" y="879.0"/>
      <point x="435.0" y="879.0" type="curve" smooth="yes"/>
      <point x="724.0" y="879.0"/>
      <point x="844.0" y="682.0"/>
      <point x="946.0" y="682.0" type="curve" smooth="yes"/>
      <point x="998.0" y="682.0"/>
      <point x="1021.0" y="751.0"/>
      <point x="1034.0" y="793.0" type="curve" smooth="yes"/>
      <point x="1037.0" y="800.0"/>
      <point x="1039.0" y="803.0"/>
      <point x="1046.0" y="803.0" type="curve" smooth="yes"/>
      <point x="1385.0" y="803.0" type="line" smooth="yes"/>
      <point x="1392.0" y="803.0"/>
      <point x="1395.0" y="800.0"/>
      <point x="1393.0" y="793.0" type="curve" smooth="yes"/>
      <point x="1341.0" y="585.0"/>
      <point x="1216.0" y="332.0"/>
      <point x="946.0" y="332.0" type="curve" smooth="yes"/>
      <point x="657.0" y="332.0"/>
      <point x="524.0" y="519.0"/>
    </contour>
  </outline>
</glyph>
<glyph name="exclamdown" format="2">
  <advance height="1920" width="740"/>
  <unicode hex="00A1"/>
  <outline>
    <contour>
      <point x="247.0" y="1050.0" type="curve" smooth="yes"/>
      <point x="737.0" y="1050.0" type="line" smooth="yes"/>
      <point x="744.0" y="1050.0"/>
      <point x="747.0" y="1047.0"/>
      <point x="745.0" y="1040.0" type="curve" smooth="yes"/>
      <point x="644.0" y="600.0" type="line" smooth="yes"/>
      <point x="642.0" y="593.0"/>
      <point x="638.0" y="590.0"/>
      <point x="631.0" y="590.0" type="curve" smooth="yes"/>
      <point x="141.0" y="590.0" type="line" smooth="yes"/>
      <point x="134.0" y="590.0"/>
      <point x="132.0" y="593.0"/>
      <point x="134.0" y="600.0" type="curve" smooth="yes"/>
      <point x="235.0" y="1040.0" type="line" smooth="yes"/>
      <point x="237.0" y="1047.0"/>
      <point x="240.0" y="1050.0"/>
    </contour>
    <contour>
      <point x="555.0" y="0.0" type="curve" smooth="yes"/>
      <point x="465.0" y="-390.0" type="line" smooth="yes"/>
      <point x="463.0" y="-397.0"/>
      <point x="460.0" y="-400.0"/>
      <point x="453.0" y="-400.0" type="curve" smooth="yes"/>
      <point x="-137.0" y="-400.0" type="line" smooth="yes"/>
      <point x="-144.0" y="-400.0"/>
      <point x="-147.0" y="-397.0"/>
      <point x="-145.0" y="-390.0" type="curve" smooth="yes"/>
      <point x="-55.0" y="0.0" type="line" smooth="yes"/>
      <point x="-53.0" y="7.0"/>
      <point x="-52.0" y="13.0"/>
      <point x="-49.0" y="20.0" type="curve" smooth="yes"/>
      <point x="262.0" y="510.0" type="line" smooth="yes"/>
      <point x="265.0" y="517.0"/>
      <point x="268.0" y="520.0"/>
      <point x="275.0" y="520.0" type="curve" smooth="yes"/>
      <point x="465.0" y="520.0" type="line" smooth="yes"/>
      <point x="472.0" y="520.0"/>
      <point x="475.0" y="517.0"/>
      <point x="474.0" y="510.0" type="curve" smooth="yes"/>
      <point x="559.0" y="20.0" type="line" smooth="yes"/>
      <point x="558.0" y="13.0"/>
      <point x="557.0" y="7.0"/>
    </contour>
  </outline>
</glyph>
<glyph name="cent" format="2">
  <advance height="1920" width="1097"/>
  <unicode hex="00A2"/>
  <outline>
    <contour>
      <point x="796.0" y="1240.0" type="curve" smooth="yes"/>
      <point x="856.0" y="1240.0" type="line" smooth="yes"/>
      <point x="863.0" y="1240.0"/>
      <point x="866.0" y="1237.0"/>
      <point x="864.0" y="1230.0" type="curve" smooth="yes"/>
      <point x="538.0" y="-180.0" type="line" smooth="yes"/>
      <point x="536.0" y="-187.0"/>
      <point x="533.0" y="-190.0"/>
      <point x="526.0" y="-190.0" type="curve" smooth="yes"/>
      <point x="466.0" y="-190.0" type="line" smooth="yes"/>
      <point x="459.0" y="-190.0"/>
      <point x="456.0" y="-187.0"/>
      <point x="458.0" y="-180.0" type="curve" smooth="yes"/>
      <point x="784.0" y="1230.0" type="line" smooth="yes"/>
      <point x="786.0" y="1237.0"/>
      <point x="789.0" y="1240.0"/>
    </contour>
    <component base="c"/>
  </outline>
</glyph>
<glyph name="sterling" format="2">
  <advance height="1920" width="1420"/>
  <unicode hex="00A3"/>
  <outline>
    <contour>
      <point x="46.0" y="545.0" type="curve" smooth="yes"/>
      <point x="114.0" y="840.0" type="line" smooth="yes"/>
      <point x="116.0" y="847.0"/>
      <point x="119.0" y="850.0"/>
      <point x="126.0" y="850.0" type="curve" smooth="yes"/>
      <point x="1116.0" y="850.0" type="line" smooth="yes"/>
      <point x="1123.0" y="850.0"/>
      <point x="1126.0" y="847.0"/>
      <point x="1124.0" y="840.0" type="curve" smooth="yes"/>
      <point x="1056.0" y="545.0" type="line" smooth="yes"/>
      <point x="1054.0" y="538.0"/>
      <point x="1051.0" y="535.0"/>
      <point x="1044.0" y="535.0" type="curve" smooth="yes"/>
      <point x="54.0" y="535.0" type="line" smooth="yes"/>
      <point x="47.0" y="535.0"/>
      <point x="44.0" y="538.0"/>
    </contour>
    <contour>
      <point x="36.0" y="354.0" type="curve" smooth="yes"/>
      <point x="165.0" y="410.0"/>
      <point x="306.0" y="465.0"/>
      <point x="340.0" y="614.0" type="curve" smooth="yes"/>
      <point x="381.0" y="792.0"/>
      <point x="194.0" y="795.0"/>
      <point x="251.0" y="1043.0" type="curve" smooth="yes"/>
      <point x="304.0" y="1273.0"/>
      <point x="589.0" y="1435.0"/>
      <point x="926.0" y="1435.0" type="curve" smooth="yes"/>
      <point x="1270.0" y="1435.0"/>
      <point x="1479.0" y="1266.0"/>
      <point x="1424.0" y="971.0" type="curve" smooth="yes"/>
      <point x="1422.0" y="963.0"/>
      <point x="1419.0" y="963.0"/>
      <point x="1412.0" y="963.0" type="curve" smooth="yes"/>
      <point x="962.0" y="963.0" type="line" smooth="yes"/>
      <point x="955.0" y="963.0"/>
      <point x="952.0" y="963.0"/>
      <point x="954.0" y="971.0" type="curve" smooth="yes"/>
      <point x="970.0" y="1057.0"/>
      <point x="943.0" y="1095.0"/>
      <point x="868.0" y="1095.0" type="curve" smooth="yes"/>
      <point x="791.0" y="1095.0"/>
      <point x="735.0" y="1063.0"/>
      <point x="719.0" y="993.0" type="curve" smooth="yes"/>
      <point x="691.0" y="872.0"/>
      <point x="855.0" y="850.0"/>
      <point x="807.0" y="644.0" type="curve" smooth="yes"/>
      <point x="767.0" y="472.0"/>
      <point x="623.0" y="411.0"/>
      <point x="491.0" y="355.0" type="curve"/>
      <point x="1282.0" y="355.0" type="line" smooth="yes"/>
      <point x="1289.0" y="355.0"/>
      <point x="1292.0" y="352.0"/>
      <point x="1290.0" y="345.0" type="curve" smooth="yes"/>
      <point x="1212.0" y="10.0" type="line" smooth="yes"/>
      <point x="1210.0" y="3.0"/>
      <point x="1207.0" y="0.0"/>
      <point x="1200.0" y="0.0" type="curve" smooth="yes"/>
      <point x="-40.0" y="0.0" type="line" smooth="yes"/>
      <point x="-47.0" y="0.0"/>
      <point x="-50.0" y="3.0"/>
      <point x="-48.0" y="10.0" type="curve" smooth="yes"/>
      <point x="30.0" y="345.0" type="line" smooth="yes"/>
      <point x="31.0" y="349.0"/>
      <point x="31.0" y="352.0"/>
    </contour>
  </outline>
</glyph>
<glyph name="currency" format="2">
  <advance width="1112"/>
  <unicode hex="00A4"/>
  <outline>
    <contour>
      <point x="1062.0" y="1274.0" type="curve" smooth="yes"/>
      <point x="1238.0" y="1046.0" type="line" smooth="yes"/>
      <point x="1242.0" y="1041.0"/>
      <point x="1241.0" y="1037.0"/>
      <point x="1235.0" y="1032.0" type="curve" smooth="yes"/>
      <point x="1035.0" y="869.0" type="line" smooth="yes"/>
      <point x="1029.0" y="864.0"/>
      <point x="1025.0" y="864.0"/>
      <point x="1021.0" y="869.0" type="curve" smooth="yes"/>
      <point x="845.0" y="1097.0" type="line" smooth="yes"/>
      <point x="841.0" y="1102.0"/>
      <point x="843.0" y="1107.0"/>
      <point x="849.0" y="1112.0" type="curve" smooth="yes"/>
      <point x="1048.0" y="1274.0" type="line" smooth="yes"/>
      <point x="1054.0" y="1279.0"/>
      <point x="1058.0" y="1279.0"/>
    </contour>
    <contour>
      <point x="166.0" y="546.0" type="curve" smooth="yes"/>
      <point x="341.0" y="318.0" type="line" smooth="yes"/>
      <point x="345.0" y="313.0"/>
      <point x="344.0" y="308.0"/>
      <point x="338.0" y="303.0" type="curve" smooth="yes"/>
      <point x="139.0" y="141.0" type="line" smooth="yes"/>
      <point x="133.0" y="136.0"/>
      <point x="129.0" y="136.0"/>
      <point x="125.0" y="141.0" type="curve" smooth="yes"/>
      <point x="-52.0" y="369.0" type="line" smooth="yes"/>
      <point x="-56.0" y="374.0"/>
      <point x="-55.0" y="378.0"/>
      <point x="-49.0" y="383.0" type="curve" smooth="yes"/>
      <point x="152.0" y="546.0" type="line" smooth="yes"/>
      <point x="158.0" y="551.0"/>
      <point x="162.0" y="551.0"/>
    </contour>
    <contour>
      <point x="104.0" y="1046.0" type="curve" smooth="yes"/>
      <point x="386.0" y="1274.0" type="line" smooth="yes"/>
      <point x="392.0" y="1279.0"/>
      <point x="396.0" y="1279.0"/>
      <point x="400.0" y="1274.0" type="curve" smooth="yes"/>
      <point x="525.0" y="1112.0" type="line" smooth="yes"/>
      <point x="529.0" y="1107.0"/>
      <point x="527.0" y="1102.0"/>
      <point x="521.0" y="1097.0" type="curve" smooth="yes"/>
      <point x="241.0" y="869.0" type="line" smooth="yes"/>
      <point x="235.0" y="864.0"/>
      <point x="231.0" y="864.0"/>
      <point x="227.0" y="869.0" type="curve" smooth="yes"/>
      <point x="101.0" y="1032.0" type="line" smooth="yes"/>
      <point x="97.0" y="1037.0"/>
      <point x="98.0" y="1041.0"/>
    </contour>
    <contour>
      <point x="665.0" y="318.0" type="curve" smooth="yes"/>
      <point x="860.0" y="476.0" type="line" smooth="yes"/>
      <point x="866.0" y="481.0"/>
      <point x="956.0" y="551.0"/>
      <point x="960.0" y="546.0" type="curve" smooth="yes"/>
      <point x="1085.0" y="383.0" type="line" smooth="yes"/>
      <point x="1089.0" y="378.0"/>
      <point x="1088.0" y="374.0"/>
      <point x="1082.0" y="369.0" type="curve" smooth="yes"/>
      <point x="801.0" y="141.0" type="line" smooth="yes"/>
      <point x="795.0" y="136.0"/>
      <point x="791.0" y="136.0"/>
      <point x="787.0" y="141.0" type="curve" smooth="yes"/>
      <point x="662.0" y="303.0" type="line" smooth="yes"/>
      <point x="658.0" y="308.0"/>
      <point x="659.0" y="313.0"/>
    </contour>
    <contour>
      <point x="107.0" y="710.0" type="curve" smooth="yes"/>
      <point x="169.0" y="979.0"/>
      <point x="441.0" y="1200.0"/>
      <point x="710.0" y="1200.0" type="curve" smooth="yes"/>
      <point x="979.0" y="1200.0"/>
      <point x="1149.0" y="979.0"/>
      <point x="1087.0" y="710.0" type="curve" smooth="yes"/>
      <point x="1025.0" y="441.0"/>
      <point x="753.0" y="220.0"/>
      <point x="484.0" y="220.0" type="curve" smooth="yes"/>
      <point x="215.0" y="220.0"/>
      <point x="45.0" y="441.0"/>
    </contour>
    <contour>
      <point x="467.0" y="710.0" type="curve" smooth="yes"/>
      <point x="446.0" y="621.0"/>
      <point x="476.0" y="570.0"/>
      <point x="565.0" y="570.0" type="curve" smooth="yes"/>
      <point x="654.0" y="570.0"/>
      <point x="706.0" y="621.0"/>
      <point x="727.0" y="710.0" type="curve" smooth="yes"/>
      <point x="748.0" y="799.0"/>
      <point x="718.0" y="850.0"/>
      <point x="629.0" y="850.0" type="curve" smooth="yes"/>
      <point x="540.0" y="850.0"/>
      <point x="488.0" y="799.0"/>
    </contour>
  </outline>
</glyph>
<glyph name="yen" format="2">
  <advance height="1920" width="1447"/>
  <unicode hex="00A5"/>
  <outline>
    <contour>
      <point x="91.0" y="285.0" type="curve" smooth="yes"/>
      <point x="115.0" y="390.0" type="line" smooth="yes"/>
      <point x="117.0" y="397.0"/>
      <point x="120.0" y="400.0"/>
      <point x="127.0" y="400.0" type="curve" smooth="yes"/>
      <point x="1297.0" y="400.0" type="line" smooth="yes"/>
      <point x="1304.0" y="400.0"/>
      <point x="1307.0" y="397.0"/>
      <point x="1305.0" y="390.0" type="curve" smooth="yes"/>
      <point x="1281.0" y="285.0" type="line" smooth="yes"/>
      <point x="1279.0" y="278.0"/>
      <point x="1275.0" y="275.0"/>
      <point x="1268.0" y="275.0" type="curve" smooth="yes"/>
      <point x="98.0" y="275.0" type="line" smooth="yes"/>
      <point x="91.0" y="275.0"/>
      <point x="89.0" y="278.0"/>
    </contour>
    <contour>
      <point x="153.0" y="555.0" type="curve" smooth="yes"/>
      <point x="177.0" y="660.0" type="line" smooth="yes"/>
      <point x="179.0" y="667.0"/>
      <point x="183.0" y="670.0"/>
      <point x="190.0" y="670.0" type="curve" smooth="yes"/>
      <point x="1360.0" y="670.0" type="line" smooth="yes"/>
      <point x="1367.0" y="670.0"/>
      <point x="1369.0" y="667.0"/>
      <point x="1367.0" y="660.0" type="curve" smooth="yes"/>
      <point x="1343.0" y="555.0" type="line" smooth="yes"/>
      <point x="1341.0" y="548.0"/>
      <point x="1338.0" y="545.0"/>
      <point x="1331.0" y="545.0" type="curve" smooth="yes"/>
      <point x="161.0" y="545.0" type="line" smooth="yes"/>
      <point x="154.0" y="545.0"/>
      <point x="151.0" y="548.0"/>
    </contour>
    <component base="Y"/>
  </outline>
</glyph>
<glyph name="brokenbar" format="2">
  <advance height="1920" width="515"/>
  <unicode hex="00A6"/>
  <outline>
    <contour>
      <point x="67.0" y="430.0" type="curve" smooth="yes"/>
      <point x="407.0" y="430.0" type="line" smooth="yes"/>
      <point x="414.0" y="430.0"/>
      <point x="417.0" y="427.0"/>
      <point x="415.0" y="420.0" type="curve" smooth="yes"/>
      <point x="237.0" y="-350.0" type="line" smooth="yes"/>
      <point x="235.0" y="-357.0"/>
      <point x="232.0" y="-360.0"/>
      <point x="225.0" y="-360.0" type="curve" smooth="yes"/>
      <point x="-115.0" y="-360.0" type="line" smooth="yes"/>
      <point x="-122.0" y="-360.0"/>
      <point x="-125.0" y="-357.0"/>
      <point x="-123.0" y="-350.0" type="curve" smooth="yes"/>
      <point x="55.0" y="420.0" type="line" smooth="yes"/>
      <point x="57.0" y="427.0"/>
      <point x="60.0" y="430.0"/>
    </contour>
    <contour>
      <point x="337.0" y="1600.0" type="curve" smooth="yes"/>
      <point x="677.0" y="1600.0" type="line" smooth="yes"/>
      <point x="684.0" y="1600.0"/>
      <point x="687.0" y="1597.0"/>
      <point x="685.0" y="1590.0" type="curve" smooth="yes"/>
      <point x="507.0" y="820.0" type="line" smooth="yes"/>
      <point x="505.0" y="813.0"/>
      <point x="502.0" y="810.0"/>
      <point x="495.0" y="810.0" type="curve" smooth="yes"/>
      <point x="155.0" y="810.0" type="line" smooth="yes"/>
      <point x="148.0" y="810.0"/>
      <point x="145.0" y="813.0"/>
      <point x="147.0" y="820.0" type="curve" smooth="yes"/>
      <point x="325.0" y="1590.0" type="line" smooth="yes"/>
      <point x="327.0" y="1597.0"/>
      <point x="330.0" y="1600.0"/>
    </contour>
  </outline>
</glyph>
